<svg width="49" height="55" viewBox="0 0 49 55" fill="none" xmlns="http://www.w3.org/2000/svg">
<path d="M48.0727 36.795C48.4667 33.156 40.6727 29.229 33.7597 26.485C41.2057 21.185 47.3407 16.186 47.2197 14.173C47.1817 13.513 46.8057 12.972 46.1897 12.69C44.0697 11.717 37.3287 14.165 29.9457 17.896C29.9157 9.82804 29.1867 2.12404 26.6767 0.342037C26.0967 -0.0689625 25.4127 -0.111963 24.8017 0.226037C22.3867 1.56304 20.4337 11.126 19.2697 21.619C13.4807 19.994 4.46073 17.975 1.30773 20.11C0.505725 20.652 0.0547019 21.439 0.00270186 22.383C-0.0322981 23.026 0.273725 23.701 0.863725 24.397C2.44672 26.264 6.07072 28.279 10.5997 30.193C5.44272 34.68 3.01371 39.125 4.63371 41.433C4.67971 41.499 4.72872 41.562 4.78072 41.623C6.12572 43.21 9.0707 42.768 12.7357 40.407C14.2827 39.436 16.1367 38.261 18.1637 36.958C18.0597 40.283 18.0697 43.29 18.2057 45.68C18.4877 50.622 19.1967 52.634 19.9397 53.511C20.2027 53.821 20.4707 53.989 20.7257 54.095C21.6507 54.476 22.5927 54.412 23.4477 53.907C27.3257 51.623 28.7687 40.029 28.9207 38.714L28.9227 38.696C28.9637 38.269 29.0407 37.432 29.1347 36.295C34.2367 37.609 38.8607 38.515 41.8447 38.759C44.4047 38.969 47.8367 38.991 48.0727 36.795ZM45.3847 14.32C45.0217 15.77 39.4077 20.236 31.6707 25.679C31.0327 25.44 30.4127 25.214 29.8167 25.001C29.8787 23.342 29.9227 21.628 29.9397 19.907C37.5007 16.011 44.0567 13.621 45.3847 14.32ZM21.8747 32.345C21.3267 32.171 20.7707 31.99 20.2107 31.805C20.3477 29.527 20.5177 27.303 20.7197 25.162C21.1567 24.887 21.5947 24.615 22.0347 24.346C22.5927 24.522 23.1357 24.697 23.6437 24.868L23.6677 24.875C25.0297 25.294 26.4707 25.769 27.9337 26.28C27.9047 26.968 27.8737 27.654 27.8387 28.337C25.9237 29.647 23.9227 30.991 21.8747 32.345ZM27.7087 30.675C27.6397 31.812 27.5647 32.928 27.4837 34.015C26.4097 33.719 25.2927 33.393 24.1577 33.051C25.3307 32.274 26.5197 31.479 27.7087 30.675ZM18.7967 26.4C18.6567 28.016 18.5387 29.625 18.4387 31.207C16.8947 30.676 15.4727 30.158 14.1687 29.656C15.6397 28.547 17.1947 27.457 18.7967 26.4ZM24.1187 23.102C25.4487 22.325 26.7787 21.582 28.0917 20.878C28.0737 22.031 28.0437 23.198 28.0047 24.367C26.3337 23.796 24.9887 23.372 24.2157 23.134C24.1897 23.126 24.1507 23.113 24.1187 23.102ZM29.7367 26.924C29.7697 26.936 29.8027 26.948 29.8357 26.96C29.8007 26.984 29.7667 27.008 29.7317 27.032C29.7337 26.997 29.7357 26.96 29.7367 26.924ZM25.6207 1.83104C25.7377 1.91404 25.8497 2.01904 25.9577 2.14704C27.5957 4.07904 28.1427 10.961 28.1107 18.841C26.0127 19.946 23.8897 21.138 21.8297 22.371C21.5767 22.294 21.3087 22.212 21.0277 22.128C22.2817 10.773 24.2777 2.36404 25.6207 1.83104ZM1.82573 22.485C1.84573 22.11 2.00271 21.844 2.33171 21.622C4.59571 20.09 12.5357 21.626 19.0747 23.465C19.0527 23.681 19.0307 23.897 19.0097 24.114C16.7547 25.549 14.6317 27.006 12.7777 28.419C12.5787 28.57 12.3927 28.723 12.1997 28.875C4.69472 25.795 1.77273 23.423 1.82573 22.485ZM11.7587 38.864L11.7497 38.87C8.39371 41.033 6.52472 40.981 6.12673 40.384C5.44373 39.411 6.71772 35.746 12.5007 30.969C14.3527 31.702 16.3157 32.415 18.3287 33.094C18.2997 33.642 18.2737 34.183 18.2497 34.719C16.0997 36.115 13.9227 37.505 11.7587 38.864ZM27.1047 38.515C26.5707 43.133 24.8547 50.96 22.5207 52.336C22.1577 52.549 21.8187 52.572 21.4227 52.408C20.8547 52.13 19.5227 48.507 20.0117 35.766C20.7267 35.302 21.4597 34.825 22.2027 34.338C23.9267 34.867 25.6527 35.365 27.3427 35.822C27.2667 36.751 27.1877 37.653 27.1047 38.515ZM29.2767 34.49C29.3877 33.03 29.5057 31.293 29.6127 29.379C30.3997 28.839 31.1807 28.298 31.9547 27.757C38.0297 30.11 43.7697 32.9 45.6387 35.105C46.0877 35.635 46.3137 36.132 46.2657 36.58C45.6057 37.563 38.9557 37.01 29.2767 34.49Z" fill="#193DD6"/>
</svg>
