<svg width="574" height="379" viewBox="0 0 574 379" fill="none" xmlns="http://www.w3.org/2000/svg">
<path d="M469.5 54.9497C460.524 46.529 451.356 38.1515 440.744 31.9097C421.098 20.3536 393.677 22.142 380.124 30.55C369.721 37.0036 364.238 45.0414 357.556 54.9946C349.192 67.4538 340.421 80.8566 326.639 86.8214C319.922 89.7289 312.535 90.6023 305.35 92.0069C298.165 93.4115 290.818 95.5158 285.313 100.337C279.809 105.157 276.672 113.342 279.646 120.023C281.982 125.271 287.734 128.573 293.483 128.735C299.232 128.899 304.837 126.234 308.976 122.246C319.537 112.071 324.453 85.3025 304.945 77.5968" stroke="#AFB9E8" stroke-width="1.5" stroke-miterlimit="10"/>
<path d="M304.11 77.5799C268.233 69.1686 242.112 77.3431 212.274 87.6085C197.566 92.6682 182.678 98.0192 167.179 100.055C155.611 101.575 143.924 101.978 132.312 103.128C120.239 104.324 108.172 105.834 96.3233 108.489C76.3631 112.963 41.598 121.206 43.7309 148.001C44.5849 158.731 51.9311 168.483 51.1895 179.222C50.2384 192.984 37.3613 203.644 28.9253 213.368C17.2801 226.791 6.80747 241.686 8.72831 260.346C10.2771 275.397 20.0814 288.623 32.1692 297.769C44.2571 306.916 58.5621 312.593 72.6568 318.198C94.1249 326.735 112.279 336.733 129.168 352.606C138.951 361.802 149.367 370.913 162.047 375.37C179.085 381.359 200.806 376.147 207.744 358.157C211.526 348.35 212.59 336.932 218.456 328.022C224.499 318.844 237.24 311.122 248.479 312.607C266.785 315.027 273.925 328.568 282.65 342.811C286.912 349.766 291.97 356.173 299.127 360.349C311.404 367.511 323.671 364.718 336.613 361.812C350.597 358.673 364.724 356.135 378.96 354.438C403.111 351.56 427.41 352.849 451.476 355.875C474.327 358.75 507.507 373.731 526.354 353.4C534.611 344.493 536.255 332.299 533.248 320.92C528.939 304.616 519.666 286.516 520.166 269.582C520.905 244.582 532.206 227.942 546.019 208.408C552.634 199.054 557.73 188.66 557.492 176.958C556.944 150.032 540.015 129.36 522.365 110.796C504.753 92.2726 487.158 71.167 469.338 54.7424" stroke="#AFB9E8" stroke-width="1.5" stroke-miterlimit="10"/>
<path d="M458.5 63.7424C458.5 69.2656 454.023 73.7424 448.5 73.7424C442.976 73.7424 438.5 69.2656 438.5 63.7424C438.5 58.2192 442.978 53.7424 448.5 53.7424C454.023 53.7424 458.5 58.2192 458.5 63.7424Z" stroke="#5C1847" stroke-width="1.5" stroke-miterlimit="10"/>
<path d="M393.5 55.7424C395.242 51.4052 399.834 48.3849 404.503 48.5044C406.879 48.5647 409.289 49.3542 411.59 48.7579C418.749 46.9025 418.154 34.4242 425.227 32.2634C430.13 30.7666 435.459 35.5191 440.258 33.7168C444.386 32.1657 445.398 26.9629 446.706 22.7487C450.239 11.3557 460.701 2.43123 472.5 0.742432" stroke="#8F96DB" stroke-width="1.5" stroke-miterlimit="10"/>
<path d="M94.4995 312.742L101.802 359.742L130.5 339.085L94.4995 312.742Z" fill="#EA72C1"/>
<path d="M305.354 208.066V358.314C305.354 361.502 307.937 364.085 311.124 364.085H533.76C536.948 364.085 539.531 361.501 539.531 358.314V208.066H305.354Z" fill="#B8BEF5" stroke="black"/>
<path d="M533.76 186.244H311.124C307.115 186.245 303.854 189.506 303.854 193.515V358.315C303.855 362.323 307.116 365.585 311.125 365.585H533.76C537.769 365.585 541.031 362.323 541.031 358.315V193.516C541.031 189.507 537.769 186.244 533.76 186.244ZM533.76 186.744C537.499 186.744 540.531 189.776 540.531 193.516V358.315C540.531 362.054 537.5 365.085 533.76 365.085H311.124C307.385 365.085 304.354 362.055 304.354 358.315V193.516C304.354 189.777 307.384 186.745 311.124 186.744H533.76Z" fill="white" stroke="black"/>
<path d="M522.134 198C522.134 200.409 524.087 202.362 526.495 202.362C528.904 202.362 530.856 200.409 530.856 198C530.856 195.591 528.903 193.639 526.495 193.639C524.087 193.639 522.134 195.592 522.134 198Z" stroke="black" stroke-width="1.5" stroke-miterlimit="10"/>
<path d="M509.59 202.361C507.182 202.361 505.229 200.409 505.229 198C505.229 195.592 507.182 193.639 509.59 193.639C511.999 193.639 513.951 195.592 513.951 198C513.951 200.409 511.999 202.361 509.59 202.361Z" stroke="black" stroke-width="1.5" stroke-miterlimit="10"/>
<path d="M540.031 207.566H304.853" stroke="black" stroke-width="1.5" stroke-miterlimit="10"/>
<path d="M337.5 364.742C340.59 356.96 344.799 349.672 349.941 343.203C353.097 339.231 356.766 335.455 361.397 333.708C366.028 331.96 371.807 332.726 374.956 336.704C377.365 339.748 377.823 343.951 378.182 347.894C385.81 339.531 393.536 331.083 402.84 324.88C412.145 318.676 423.436 314.264 434.21 316.677C446.157 319.352 446.157 334.775 446.157 334.775C446.157 334.775 453.481 324.289 454.142 323.303C459.041 315.985 464.582 309.283 470.479 302.847C476.27 296.527 481.778 289.88 488.303 284.362C494.805 278.865 505.356 271.844 514.095 275.171C518.641 276.902 519.893 280.93 518.885 285.576C517.941 289.923 517.444 294.279 516.121 298.559C523.471 290.192 531.835 282.487 541.53 277.28C548.526 273.522 563.123 267.155 570.384 273.309C572.478 275.084 573.429 278.024 573.491 280.852C573.871 298.164 561.659 316.768 551.82 329.558C541.725 342.681 529.546 354.305 516.935 364.742H337.5Z" fill="#3665E4"/>
<path d="M372.64 286.325C373.974 293.688 373.578 301.3 373.542 308.823C373.506 316.347 372.9 321.269 375.622 328.098C378.079 334.265 383.211 336.36 385.89 342.4C387.254 345.476 392.427 364.571 392.427 364.571H461.9C461.9 364.571 463.848 334.555 453.135 308.94C442.422 283.324 429.03 278.73 429.03 278.73L389.505 268.535L372.64 286.325Z" fill="#5C1847"/>
<path d="M281.623 241.545C279.562 239.059 276.679 237.499 274.211 235.477C271.936 233.614 270.236 231.001 268.349 228.744C266.041 225.983 264.247 222.842 262.245 219.863C260.097 216.666 257.344 214.08 254.618 211.389C254.24 211.015 253.853 210.63 253.638 210.144C253.249 209.266 253.702 208.112 254.71 207.84C256.68 207.309 258.781 207.813 260.692 208.528C261.827 208.953 265.676 210.316 265.91 208.149C266.174 205.7 264.124 202.124 263.338 199.854C262.317 196.901 261.271 193.941 260.442 190.926C259.653 188.054 259.832 182.535 261.359 182.445C262.887 182.355 261.734 183.27 262.132 183.486C261.494 182.646 262.611 180.707 263.527 180.128C264.443 179.549 265.635 181.424 265.909 182.435C265.597 181.448 266.464 179.817 267.198 179.749C268.266 179.65 269.096 180.662 269.733 181.487C270.37 182.312 270.936 183.234 271.837 183.786C271.83 183.078 271.936 182.368 272.151 181.688C272.847 181.294 273.647 181.946 274.15 182.54C284.389 194.629 291.317 209.619 302.675 221.257" fill="#E27769"/>
<path d="M265.669 206.488C265.633 209.464 265.709 212.441 265.896 215.412" stroke="black" stroke-miterlimit="10"/>
<path d="M262.458 182.777C263.352 185.586 265.078 187.96 266.375 190.573C268.44 194.732 270.285 198.993 272.201 203.221" stroke="black" stroke-miterlimit="10"/>
<path d="M265.983 182.225C266.608 183.539 267.321 184.811 268.116 186.029C268.968 187.335 269.912 188.578 270.824 189.842C273.432 193.456 275.783 197.255 277.855 201.201" stroke="black" stroke-miterlimit="10"/>
<path d="M272.191 184.235C272.881 185.707 274.007 186.92 275.07 188.15C278.4 192.002 281.267 196.253 283.59 200.784" stroke="black" stroke-miterlimit="10"/>
<path d="M409.444 272.518C397.014 267.316 388.872 261.854 376.566 256.311C365.47 251.314 349.899 247.215 338.958 241.881C323.828 234.505 309.641 226.358 297.204 215.198L274.61 238.985C274.61 238.985 306.539 271.557 317.686 277.906C344.549 293.207 354.334 296.072 382.258 310.676" fill="#5C1847"/>
<path d="M373.858 306.586C373.7 300.968 372.419 295.384 370.111 290.259" stroke="black" stroke-miterlimit="10"/>
<path d="M304.745 221.452L282.337 246.602" stroke="black" stroke-miterlimit="10"/>
<path d="M413.06 341.475C403.584 341.651 394.148 343.147 385.933 348.139C381.988 350.536 379.79 353.743 378.703 358.194C377.785 361.952 377.488 365.971 377.826 369.826C377.858 370.192 378.141 370.529 378.456 370.605C378.901 370.713 379.796 370.269 379.796 370.269C379.796 370.269 378.988 374.091 379.844 374.886C380.44 375.44 381.565 374.687 381.988 374.226C382.481 373.689 383.154 372.317 383.154 372.317C383.154 372.317 382.589 374.51 383.066 374.888C383.774 375.448 385.821 374.028 386.305 372.591C386.603 373.407 387.089 374.164 387.842 373.964C390.21 373.335 392.063 369.985 394.012 368.324C396.602 366.116 400.076 365.966 403.307 366.015C404.794 366.037 406.285 366.074 407.768 365.927C409.287 365.776 410.655 365.18 412.137 364.88C414.895 364.322 417.772 364.067 420.57 363.904" fill="#E27769"/>
<path d="M395.561 361.213C392.96 362.294 390.204 363.498 388.74 365.727C388.302 366.394 388.001 367.126 387.732 367.862C387.166 369.414 386.734 371.003 386.303 372.59" stroke="black" stroke-miterlimit="10"/>
<path d="M391.829 356.513C390.35 357.453 388.9 358.456 387.646 359.68C386.392 360.904 385.335 362.362 384.764 364.018C384.438 364.965 384.275 365.959 384.111 366.947C383.774 368.982 383.425 371.015 383.066 373.046" stroke="black" stroke-miterlimit="10"/>
<path d="M386.75 353.283C384.287 355.119 382.358 357.664 381.257 360.532C380.283 363.068 379.958 365.799 379.64 368.498C379.539 369.353 379.439 370.208 379.338 371.063" stroke="black" stroke-miterlimit="10"/>
<path d="M423.496 274.337C423.496 274.337 443.107 277.238 450.633 281.561C462.399 288.32 467.571 298.636 475.069 316.13C482.567 333.624 485.608 341.301 485.681 347.097C485.789 355.63 481.948 364.573 466.253 364.573C438.294 364.573 416.2 364.573 416.2 364.573L406.101 340.983L445.049 334.889L434.301 309.726" fill="#5C1847"/>
<path d="M406.102 340.983L445.05 334.889L434.302 309.726" stroke="black" stroke-miterlimit="10"/>
<path d="M458.882 338.489C458.582 338.489 452.654 334.795 445.049 334.889" stroke="black" stroke-miterlimit="10"/>
<path d="M416.846 339.302L427.53 364.573" stroke="black" stroke-miterlimit="10"/>
<path d="M393.088 280.345C392.573 277.684 392.591 274.844 393.018 271.99" stroke="black" stroke-miterlimit="10"/>
<path d="M434.594 279.673C432.433 285.069 427.653 289.543 422.431 291.832C415.856 294.713 406.938 295.246 400.654 291.398C397.727 289.605 395.713 287.248 394.443 284.556" stroke="black" stroke-miterlimit="10"/>
<path d="M323.98 289.789C312.271 283.824 301.565 275.897 292.444 266.437" stroke="black" stroke-miterlimit="10"/>
<path d="M302.139 284.129C296.463 279.733 291.141 274.88 286.241 269.633" stroke="black" stroke-miterlimit="10"/>
<path d="M489.93 332.379C492.407 340.457 493.301 349.017 492.545 357.432" stroke="black" stroke-miterlimit="10"/>
<path d="M497.749 333.584C499.312 338.117 500.206 342.881 500.391 347.673" stroke="black" stroke-miterlimit="10"/>
<path d="M416.933 250.22L427.658 257.408L425.343 265.074L428.568 276.63C428.774 277.367 428.649 278.151 428.223 278.786C426.471 281.395 421.034 287.878 410.258 287.868C398.868 287.857 399.028 280.302 399.028 280.302L396.954 264.21" fill="#E27769"/>
<path d="M395.359 249.262C398.308 243.767 399.993 240.367 403.091 236.578C405.714 233.37 410.071 228.837 414.179 227.934C419.468 226.769 424.445 230.585 428.95 233.371C436.347 237.945 436.218 247.792 433.72 255.127C431.801 260.762 427.833 262.912 422.827 266.348C416.285 270.838 402.065 272.869 395.96 267.949C391.393 264.27 392.236 255.082 395.359 249.262Z" fill="#E27769"/>
<path d="M411.168 248.778C410.818 249.63 411.062 250.537 411.714 250.805C412.365 251.073 413.177 250.6 413.527 249.748C413.877 248.897 413.633 247.989 412.981 247.721C412.33 247.453 411.518 247.926 411.168 248.778Z" fill="black"/>
<path d="M400.666 242.992C400.316 243.843 400.56 244.751 401.211 245.019C401.862 245.287 402.674 244.813 403.024 243.962C403.374 243.11 403.13 242.203 402.478 241.935C401.828 241.667 401.016 242.14 400.666 242.992Z" fill="black"/>
<path d="M406.29 246.693C405.114 247.741 403.697 248.446 402.278 249.101C401.399 249.507 398.468 250.288 399.122 251.714C399.542 252.63 401.256 254.077 401.256 254.077" stroke="black" stroke-miterlimit="10"/>
<path d="M427.749 273.695C427.749 273.695 426.41 270.269 426.084 269.044C425.535 266.975 427.276 266.869 427.876 265.047C428.189 264.098 427.932 262.935 427.721 261.995C427.269 259.978 426.23 257.713 427.161 255.677C427.75 254.388 429.016 253.571 430.029 252.58C431.043 251.589 431.868 250.078 431.261 248.797C430.543 247.281 428.422 247.168 427.121 246.109C425.821 245.051 425.517 243.185 425.606 241.511C425.695 239.837 426.081 238.151 425.788 236.501C425.735 236.204 425.653 235.896 425.443 235.679C424.808 235.021 423.749 235.658 422.952 236.106C421.519 236.912 419.786 236.812 418.287 236.205C417.527 235.897 416.83 235.333 416.556 234.56C416.386 234.083 416.388 233.564 416.305 233.064C416.222 232.564 416.025 232.04 415.593 231.775C415.279 231.583 414.891 231.559 414.524 231.575C413.367 231.627 412.228 232.032 411.298 232.724C410.519 233.304 410.082 233.724 409.1 233.687C408.157 233.651 407.25 233.339 406.308 233.613C405.172 233.944 404.413 234.985 403.743 235.96C401.899 238.644 400.055 241.328 398.211 244.012C397.289 242.681 396.353 241.321 395.899 239.767C395.446 238.213 395.551 236.404 396.571 235.147C397.554 233.936 399.232 233.393 400.067 232.075C400.99 230.619 400.847 228.515 400.947 226.866C401.056 225.066 401.61 223.249 402.638 221.729C403.633 220.258 405.305 219.115 407.076 219.25C408.101 219.328 409.076 219.82 410.103 219.789C410.738 219.77 411.349 219.552 411.932 219.301C414.633 218.142 416.974 216.261 419.665 215.08C422.356 213.899 425.732 213.54 428.054 215.342C429.245 216.266 430.035 217.666 431.331 218.435C435.068 220.653 440.43 216.475 443.991 218.964C446.289 220.57 446.36 224.048 448.295 226.077C450.769 228.671 455.269 227.989 458.076 230.218C460.908 232.467 460.919 236.951 459.22 240.144C458.38 241.722 457.157 243.347 457.519 245.097C457.745 246.187 458.55 247.046 459.234 247.925C460.211 249.183 461.006 250.635 461.201 252.216C461.396 253.797 460.911 255.518 459.693 256.544C458.936 257.182 457.783 257.484 457.21 258.31C456.565 259.24 456.384 260.907 456.257 262.003C456.145 262.966 456.133 263.95 455.842 264.875C455.047 267.4 452.26 268.904 449.613 268.905C448.392 268.905 447.052 268.676 446.048 269.37C445.216 269.944 444.877 270.983 444.373 271.859C442.733 274.707 438.743 275.904 435.806 274.429C434.702 273.875 433.682 272.985 432.447 272.966C431.22 272.949 428.911 273.897 427.749 273.695Z" fill="#2C221D"/>
<path d="M410.502 270.54C407.196 271.364 400.932 271.537 396.184 268.537" stroke="black" stroke-miterlimit="10"/>
<path d="M419.442 248.521C419.452 245.205 417.262 242.025 413.686 242.652" stroke="black" stroke-miterlimit="10"/>
<path d="M407.116 240.26C407.228 239.315 406.518 238.21 405.449 237.667C404.38 237.124 403.051 237.206 402.304 237.815" stroke="black" stroke-miterlimit="10"/>
<path d="M421.952 258.104C423.843 255.79 428.462 256.433 429.963 258.819C433.57 264.556 424.832 272.221 419.492 269.427C417.981 268.637 416.494 266.632 417.198 264.772" fill="#E27769"/>
<path d="M427.185 263.114L419.807 263.641" stroke="black" stroke-miterlimit="10"/>
<path d="M426.44 256.941C424.894 256.749 423.28 257.054 421.876 257.802" stroke="black" stroke-miterlimit="10"/>
<path d="M427.023 268.485C424.869 269.901 421.953 270.9 419.591 269.607C417.952 268.71 416.788 266.771 417.374 264.8" stroke="black" stroke-miterlimit="10"/>
<path d="M405.14 254.622C405.616 256.398 405.028 258.732 402.99 259.099C401.462 259.375 399.808 258.434 399.314 256.955" stroke="black" stroke-miterlimit="10"/>
<path d="M19.5811 44.2424H260.216C264.225 44.2426 267.487 47.5045 267.486 51.5129V175.496C267.486 179.505 264.225 182.768 260.216 182.768H19.5811C15.5722 182.768 12.3096 179.505 12.3096 175.496V51.5139C12.3096 47.5051 15.5722 44.2424 19.5811 44.2424ZM19.5811 44.7424C15.8419 44.7424 12.8096 47.7748 12.8096 51.5139V175.496C12.8096 179.235 15.8409 182.268 19.5811 182.268H260.216C263.955 182.268 266.986 179.236 266.986 175.496V51.5139C266.986 47.7749 263.956 44.7426 260.216 44.7424H19.5811Z" fill="white" stroke="black"/>
<path d="M265.987 62.4653V175.497C265.987 178.684 263.404 181.267 260.216 181.267H19.5811C16.3933 181.267 13.8097 178.683 13.8096 175.497V62.4653H265.987Z" fill="#AFB9E8" stroke="black"/>
<path d="M28.0364 54.0934C28.0364 56.0754 26.4294 57.6824 24.4474 57.6824C22.4654 57.6824 20.8584 56.0754 20.8584 54.0934C20.8584 52.1114 22.4654 50.5044 24.4474 50.5044C26.4294 50.5044 28.0364 52.1114 28.0364 54.0934Z" stroke="black" stroke-width="1.5" stroke-miterlimit="10"/>
<path d="M41.9485 54.0934C41.9485 56.0754 40.3415 57.6824 38.3595 57.6824C36.3775 57.6824 34.7705 56.0754 34.7705 54.0934C34.7705 52.1114 36.3775 50.5044 38.3595 50.5044C40.3415 50.5044 41.9485 52.1114 41.9485 54.0934Z" stroke="black" stroke-width="1.5" stroke-miterlimit="10"/>
<path d="M13.3096 61.9653H266.488" stroke="black" stroke-width="1.5" stroke-miterlimit="10"/>
<path d="M246.132 164.378C243.586 161.003 239.241 157.897 235.849 160.221C233.003 162.171 232.898 166.574 233.118 170.234C225.048 158.81 215.447 148.677 204.714 140.257C198.898 135.695 192.213 131.478 185.069 132.028C177.925 132.578 174.22 142.603 176.098 150.146C156.592 124.317 134.837 105.996 112.182 90.1435C104.45 84.7335 95.8705 79.5165 86.6975 76.4325C76.9405 73.1515 63.4625 69.3065 54.6465 76.9245C50.8695 80.1885 48.9015 85.1685 48.3655 90.1315C47.7025 96.2745 48.7415 102.761 50.4155 108.68C54.4195 122.839 60.8415 136.189 68.2905 148.765C75.7425 161.345 92.1335 182.004 92.1335 182.004H253.891C252.652 175.563 249.965 169.459 246.132 164.378Z" fill="#909DF4"/>
<path d="M161.07 156.698C161.07 156.698 130.015 129.765 116.695 125.198C103.375 120.631 76.0046 127.967 75.6616 127.967C75.3176 127.967 51.1606 181.771 51.1606 181.771H150.237L161.07 156.698Z" fill="#EF9748"/>
<path d="M123.846 126.037C136.113 129.893 142.269 130.245 153.243 137.054C164.905 144.289 193.754 174.687 193.754 174.687C193.754 174.687 195 175.743 201 183.243H186C149 183.243 160.5 185.243 140.344 173.825" fill="#EF9748"/>
<path d="M79.3354 176.553C79.3354 176.553 91.5014 170.028 96.8554 168.681C104.271 166.816 113.067 166.289 115.425 167.007C116.529 167.343 120.684 169.05 122.858 171.593C125.167 172.603 126.105 173.109 127.476 173.686C128.847 174.263 129.491 175.877 130.927 177.107C132.362 178.337 133.938 181.763 133.938 181.763C133.938 181.763 122.99 181.8 119.915 181.902C116.839 182.004 113.518 187.876 106.637 189.956" fill="#FFCAA3"/>
<path d="M104.401 121.197C95.9607 121.129 87.7417 118.93 79.3187 118.925C64.0197 118.916 55.2387 126.942 47.7967 138.067C42.1617 146.491 36.8557 156.858 32.8627 166.107C28.2027 176.903 22.9827 188.925 21.6227 200.715C21.0007 206.108 21.7757 211.678 24.2687 216.471C28.8817 225.338 39.1317 226.887 45.1107 227.551C51.0897 228.216 61.5667 226.196 66.6977 223.014C93.7047 206.268 111.562 189.485 111.562 189.485L82.5077 174.592L68.5697 180.046L86.1717 147.506" fill="#EF9748"/>
<path d="M84.7423 150.148L68.5703 180.048" stroke="black" stroke-miterlimit="10"/>
<path d="M82.5087 174.594C74.1777 177.827 65.8457 181.059 57.5147 184.292C51.8267 186.499 46.2507 190.866 41.7197 194.926" stroke="black" stroke-miterlimit="10"/>
<path d="M72.5264 178.655L102.626 197.177" stroke="black" stroke-miterlimit="10"/>
<path d="M153.432 164.162C149.447 170.75 143.929 181.764 143.929 181.764" stroke="black" stroke-miterlimit="10"/>
<path d="M121.733 174.713C123.85 175.275 126.004 175.7 128.176 175.985C128.847 176.073 129.546 176.157 130.114 176.524" stroke="black" stroke-miterlimit="10"/>
<path d="M123.603 172.164C123.227 171.975 122.831 171.83 122.435 171.685C120.339 170.915 118.181 170.134 115.949 170.192" stroke="black" stroke-miterlimit="10"/>
<path d="M116.8 183.123C117.933 182.307 119.333 181.937 120.721 181.793C123.603 181.494 126.688 182.115 129.454 181.031" stroke="black" stroke-miterlimit="10"/>
<path d="M8.56543 202.804C9.03243 214.2 16.3044 225.056 26.6654 229.825" stroke="black" stroke-miterlimit="10"/>
<path d="M0.499512 202.309C0.735512 209.745 3.80551 216.951 8.56551 221.24" stroke="black" stroke-miterlimit="10"/>
<path d="M164.377 130.176C173.263 137.697 181.517 145.966 189.022 154.866" stroke="black" stroke-miterlimit="10"/>
<path d="M164.575 121.259C170.772 125.861 176.452 131.159 181.472 137.022" stroke="black" stroke-miterlimit="10"/>
<path d="M92.8254 136.364C88.1294 134.677 83.7784 132.167 79.4844 129.626C77.6634 128.548 75.8234 127.444 74.3534 125.921C72.8834 124.398 71.8024 122.383 71.8444 120.267C71.8834 118.317 72.8594 116.498 74.0724 114.97C77.8564 110.204 83.9724 107.73 90.0324 107.18C96.0924 106.63 102.172 107.8 108.095 109.198C116.998 111.299 126.087 114.092 132.956 120.133C134.889 121.834 136.639 123.805 137.719 126.143C139.21 129.372 139.32 133.101 138.683 136.6C138.046 140.099 136.704 143.424 135.371 146.721" fill="#EF9748"/>
<path d="M116.91 101.189L104.938 104.677L105.206 110.696L99.1465 121.035C99.1465 121.035 113.471 126.583 118.857 137.896C124.724 138.768 127.073 134.012 127.073 134.012L132.841 120.191" fill="#FFCAA3"/>
<path d="M145.081 113.203C146.113 107.268 147.356 100.847 147.259 96.1214C147.177 92.1204 146.565 86.0784 143.981 82.9444C140.655 78.9084 134.598 78.8434 129.514 78.2764C121.166 77.3464 115.397 84.9084 112.926 91.9724C111.028 97.3994 111.184 102.696 112.942 108.29C115.24 115.601 123.388 125.421 133.99 124.216C139.616 123.577 143.988 119.488 145.081 113.203Z" fill="#FFCAA3"/>
<path d="M134.837 100.234C134.735 101.117 134.105 101.77 133.429 101.692C132.753 101.614 132.288 100.835 132.39 99.9514C132.492 99.0684 133.123 98.4154 133.798 98.4934C134.474 98.5714 134.939 99.3504 134.837 100.234Z" fill="black"/>
<path d="M146.389 101.331C146.287 102.214 145.656 102.867 144.981 102.789C144.305 102.711 143.84 101.932 143.942 101.048C144.044 100.165 144.675 99.5116 145.35 99.5896C146.026 99.6686 146.491 100.448 146.389 101.331Z" fill="black"/>
<path d="M141.267 99.3745C141.01 101.42 141.221 103.498 141.225 105.55C141.228 106.82 141.273 109.057 139.623 109.345C138.541 109.534 136.184 108.889 136.184 108.889" stroke="black" stroke-miterlimit="10"/>
<path d="M137.108 112.515L132.78 108.871C132.78 108.871 129.602 113.025 131.243 114.53C133.895 116.963 137.108 112.515 137.108 112.515Z" fill="white"/>
<path d="M144.134 84.2084C146.043 87.1954 147.097 89.5984 147.178 98.5594C148.092 98.3314 149.018 98.0984 149.839 97.6374C150.66 97.1764 151.378 96.4514 151.619 95.5414C152.066 93.8554 150.81 92.1874 150.741 90.4444C150.691 89.1854 151.267 87.9844 151.951 86.9254C152.477 86.1104 153.093 85.2984 153.219 84.3364C153.397 82.9814 152.548 81.6934 151.536 80.7745C149.276 78.7234 146.247 77.9064 143.651 76.4014C142.393 75.6724 141.724 74.5335 140.556 73.6775C139.237 72.7105 137.827 71.8685 136.351 71.1645C132.946 69.5385 129.21 68.6604 125.444 68.5004C118.146 68.1884 110.936 70.9135 105.848 76.0115C99.1223 82.7525 96.4223 95.6085 100.642 103.053C103.021 107.249 105.205 110.697 105.205 110.697C105.475 111.126 111.295 105.901 111.652 105.191C112.013 104.471 112.149 103.664 112.37 102.889C113.123 100.248 115.749 99.8054 118 98.9804C121.283 97.7784 122.925 94.8554 123.561 91.5564C123.927 89.6604 123.981 87.7185 124.034 85.7885C124.023 86.2204 126.676 87.1525 127.073 87.2754C130.987 88.4825 135.41 88.6954 139.383 87.6264C140.556 87.3114 141.806 86.9074 142.733 86.1064C142.987 85.8874 144.556 84.6384 144.134 84.2084Z" fill="#1E1611"/>
<path d="M119.677 118.916C119.886 119.068 124.042 123.607 131.992 124.317" stroke="black" stroke-miterlimit="10"/>
<path d="M127.833 93.9515C128.54 92.5665 129.955 91.5665 131.498 91.3645C133.04 91.1625 134.665 91.7635 135.706 92.9195" stroke="black" stroke-miterlimit="10"/>
<path d="M142.528 94.1405C143.053 92.9675 144.165 92.2185 145.136 92.3845C146.107 92.5505 146.84 93.6285 146.9 94.8855" stroke="black" stroke-miterlimit="10"/>
<path d="M138.998 102.51C137.987 105.516 134.789 107.113 131.856 106.077C128.923 105.041 127.365 101.763 128.376 98.7565C129.387 95.7505 132.585 94.1535 135.518 95.1895C138.451 96.2255 140.009 99.5035 138.998 102.51Z" stroke="#572A2F" stroke-miterlimit="10"/>
<path d="M149.776 103.915C149.232 107.046 147.214 109.295 145.268 108.94C143.322 108.585 142.185 105.759 142.728 102.629C143.272 99.4985 145.29 97.2485 147.236 97.6035C149.183 97.9585 150.32 100.784 149.776 103.915Z" stroke="#572A2F" stroke-miterlimit="10"/>
<path d="M143.243 100.969L139.292 100.229" stroke="#572A2F" stroke-miterlimit="10"/>
<path d="M128.599 98.1917L116.694 99.1006" stroke="#572A2F" stroke-miterlimit="10"/>
<path d="M120.097 101.246C120.038 98.3595 116.143 96.0965 113.581 97.0165C107.421 99.2285 109.496 110.261 115.22 111.319C116.839 111.618 119.164 110.981 119.737 109.147" fill="#FFCAA3"/>
<path d="M113.134 101.937L118.428 106.733" stroke="black" stroke-miterlimit="10"/>
<path d="M117.378 97.6875C118.667 98.4635 119.713 99.6555 120.335 101.062" stroke="black" stroke-miterlimit="10"/>
<path d="M110.057 106.115C110.851 108.474 112.472 110.971 115.038 111.396C116.819 111.691 118.859 110.911 119.588 109.063" stroke="black" stroke-miterlimit="10"/>
<path d="M96.4629 89.8755C96.5829 85.9935 97.0089 82.0825 98.2719 78.4095C99.5349 74.7365 101.687 71.2935 104.792 68.9605C106.511 67.6695 108.476 66.7455 110.464 65.9285C112.138 65.2405 113.848 64.6205 115.619 64.2435C122.254 62.8315 129.126 64.9305 135.341 67.6485" fill="#FFC36C"/>
<path d="M138.313 68.1805C136.675 66.6015 134.556 65.5815 132.352 65.0165C131.038 64.6795 129.679 64.4965 128.325 64.5635C127.621 64.5985 126.921 64.7015 126.229 64.8375C121.42 65.7835 117.085 68.3065 112.917 70.8855C107.351 74.3295 101.795 78.0365 97.7131 83.1525C96.2391 84.9995 94.9351 87.1305 94.8031 89.4895C94.7301 90.7965 95.0251 92.0995 95.4531 93.3375C96.1751 95.4245 97.8721 98.4015 99.2931 100.093C111.534 88.6415 125.283 79.5825 141.157 74.2005C141.074 71.9275 139.951 69.7595 138.313 68.1805Z" fill="#FFC36C"/>
<path d="M97.2559 83.7455C97.2559 83.7455 107.59 69.3385 126.771 64.5505" stroke="black" stroke-miterlimit="10"/>
<path d="M102.626 85.3735C104.139 87.9895 105.69 90.6525 107.943 92.6675" stroke="black" stroke-miterlimit="10"/>
<path d="M114.701 74.5415C116.268 77.8435 118.213 80.9785 120.489 83.8675" stroke="black" stroke-miterlimit="10"/>
<path d="M127.51 67.6584C130.152 70.3814 132.411 73.4754 134.199 76.8224" stroke="black" stroke-miterlimit="10"/>
<path d="M131.929 66.1003C134.199 68.8963 136.189 72.2163 137.671 75.4543" stroke="black" stroke-miterlimit="10"/>
<path d="M96.6182 86.9866C97.3602 91.1376 99.7892 94.6556 102.889 97.1546" stroke="black" stroke-miterlimit="10"/>
<path d="M89.5503 117.196C95.4013 119.382 101.311 121.596 106.517 125.047C111.724 128.497 116.996 133.345 118.856 139.308" stroke="black" stroke-miterlimit="10"/>
<path d="M122.909 137.491C125.573 136.213 127.737 133.923 128.862 131.191" stroke="black" stroke-miterlimit="10"/>
<path d="M71.8423 119.636C74.5483 135.176 95.0483 132.203 104.597 137.021" stroke="black" stroke-miterlimit="10"/>
<path d="M139.033 130.927C138.659 133.061 137.921 135.189 136.505 136.829C134.377 139.292 131.069 140.312 127.943 141.218" stroke="black" stroke-miterlimit="10"/>
<path d="M130.772 137.491C132.194 147.264 133.633 158.216 133.178 168.081" stroke="black" stroke-miterlimit="10"/>
<path d="M109.049 135.246C110.532 139.307 109.835 150.318 109.674 160.251" stroke="black" stroke-miterlimit="10"/>
</svg>
