<svg width="899" height="582" viewBox="0 0 899 582" fill="none" xmlns="http://www.w3.org/2000/svg">
<path d="M483.742 89.1526C425.123 75.3767 382.444 88.7647 333.693 105.577C309.662 113.864 285.336 122.627 260.013 125.961C241.112 128.45 222.017 129.111 203.045 130.995C183.32 132.954 163.603 135.426 144.244 139.775C111.631 147.102 54.8291 160.603 58.3139 204.486C59.7093 222.059 71.7121 238.032 70.5004 255.619C68.9465 278.158 47.9068 295.617 34.1233 311.542C15.0966 333.526 -2.01451 357.921 1.12392 388.482C3.65441 413.132 19.6735 434.792 39.4236 449.772C59.1737 464.752 82.5463 474.05 105.575 483.229C140.652 497.211 170.314 513.585 197.907 539.583C213.891 554.643 230.911 569.565 251.628 576.864C279.466 586.673 314.955 578.138 326.292 548.674C332.471 532.611 334.209 513.912 343.794 499.32C353.667 484.289 374.484 471.64 392.848 474.073C422.758 478.036 434.423 500.214 448.679 523.54C455.642 534.932 463.907 545.424 475.601 552.263C495.66 563.993 515.702 559.419 536.849 554.66C559.697 549.518 582.779 545.362 606.037 542.583C645.497 537.87 685.199 539.98 724.52 544.937C761.857 549.645 816.068 574.179 846.861 540.883C860.353 526.295 863.039 506.323 858.126 487.688C851.085 460.986 835.934 431.342 836.752 403.608C837.96 362.664 856.424 335.411 878.993 303.418C889.801 288.099 898.127 271.077 897.737 251.91C896.843 207.813 869.182 173.956 840.344 143.553C811.568 113.216 782.82 78.6497 753.705 51.75" stroke="#AFB9E8" stroke-width="1.5" stroke-miterlimit="10"/>
<path d="M753.75 51.8706C739.041 38.0766 724.017 24.3534 706.627 14.1287C674.432 -4.80121 629.496 -1.87173 607.286 11.9014C590.238 22.4731 581.253 35.6398 570.303 51.9441C556.597 72.3533 542.224 94.3085 519.639 104.079C508.631 108.842 496.525 110.273 484.751 112.574C472.976 114.875 460.936 118.322 451.916 126.219C442.896 134.115 437.756 147.522 442.629 158.467C446.456 167.064 455.883 172.472 465.305 172.738C474.725 173.006 483.911 168.64 490.693 162.108C508.001 145.44 516.056 101.591 484.088 88.9685" stroke="#AFB9E8" stroke-width="1.5" stroke-miterlimit="10"/>
<path d="M856.75 133.75C856.75 139.273 852.273 143.75 846.75 143.75C841.227 143.75 836.75 139.273 836.75 133.75C836.75 128.227 841.228 123.75 846.75 123.75C852.273 123.75 856.75 128.227 856.75 133.75Z" stroke="#5C1847" stroke-width="1.5" stroke-miterlimit="10"/>
<path d="M124.75 319.75C126.526 328.249 131.017 337.296 137.088 344.275C144.99 353.361 161.107 359.241 168.037 346.03C171.26 339.886 172.868 329.944 165.186 325.547C164.641 325.235 164.029 324.954 163.369 324.947C161.884 324.931 160.899 326.233 160.461 327.422C158.408 332.995 161.713 339.018 166.173 343.495C168.243 345.572 170.654 347.509 173.64 348.542C176.624 349.576 180.28 349.565 182.884 347.963C186.934 345.47 188 339.981 187.704 336.05" stroke="#8F96DB" stroke-width="1.5" stroke-miterlimit="10"/>
<path d="M108.75 101.246C115.773 92.3258 125.229 84.268 135.856 80.1387C141.605 77.9047 149.117 77.1031 155.163 78.3121C158.181 78.9153 161.687 79.8743 163.531 82.6084C165.477 85.4926 163.206 90.838 167.053 92.4724C168.041 92.8918 169.164 92.7909 170.225 92.6298C173.559 92.1251 176.804 91.1132 180.139 90.6193C183.476 90.1266 187.027 90.1927 190.031 91.7369C193.035 93.2812 195.318 96.5897 194.869 99.957C194.694 101.275 194.125 102.58 194.367 103.888C194.773 106.075 197.232 107.219 199.432 107.428C203.987 107.86 208.317 107.711 212.189 110.648C215.031 112.803 216.663 116.657 215.209 119.75" stroke="#456776" stroke-width="1.5" stroke-miterlimit="10"/>
<path d="M198.623 496.729C199.857 489.366 194.889 482.396 187.525 481.162C180.162 479.927 173.192 484.896 171.958 492.259C170.724 499.623 175.692 506.592 183.056 507.827C190.419 509.061 197.389 504.092 198.623 496.729Z" stroke="#909DF4" stroke-width="1.5" stroke-miterlimit="10"/>
<path d="M415.75 44.75C421.825 44.75 426.75 39.8251 426.75 33.75C426.75 27.6749 421.825 22.75 415.75 22.75C409.675 22.75 404.75 27.6749 404.75 33.75C404.75 39.8251 409.675 44.75 415.75 44.75Z" stroke="#8F96DB" stroke-width="1.5" stroke-miterlimit="10"/>
<path d="M834.75 411.75L842.052 458.75L870.75 438.092L834.75 411.75Z" fill="#193DD6"/>
<path d="M86.4329 401.75L105.75 379.75L72.7501 380.939L86.4329 401.75Z" stroke="#C9409F" stroke-width="1.5" stroke-miterlimit="10"/>
<path d="M133.732 121.75L114.75 162.75L172.75 154.423L133.732 121.75Z" fill="#768DEF"/>
<path d="M96.7501 223.75C96.7501 226.512 94.7357 228.75 92.2501 228.75C89.7645 228.75 87.7501 226.512 87.7501 223.75C87.7501 220.988 89.7645 218.75 92.2501 218.75C94.7357 218.75 96.7501 220.988 96.7501 223.75Z" fill="#909DF4"/>
<path d="M791.75 125.75C793.493 121.413 798.084 118.392 802.754 118.512C805.13 118.572 807.54 119.362 809.841 118.765C817 116.91 816.404 104.432 823.478 102.271C828.38 100.774 833.71 105.527 838.509 103.724C842.637 102.173 843.649 96.9704 844.956 92.7563C848.49 81.3632 858.951 72.4388 870.75 70.75" stroke="#8F96DB" stroke-width="1.5" stroke-miterlimit="10"/>
</svg>
