<svg width="19" height="19" viewBox="0 0 19 19" fill="none" xmlns="http://www.w3.org/2000/svg">
<path d="M11.4167 4.125C11.4167 3.15417 11.4167 2.66875 11.2583 2.28646C11.1536 2.03352 11.0001 1.8037 10.8065 1.61013C10.613 1.41656 10.3831 1.26303 10.1302 1.15833C9.74792 1 9.2625 1 8.29167 1H5.16667C3.20208 1 2.22083 1 1.61042 1.61042C1 2.22083 1 3.20208 1 5.16667V8.29167C1 9.2625 1 9.74792 1.15833 10.1302C1.26303 10.3831 1.41656 10.613 1.61013 10.8065C1.8037 11.0001 2.03352 11.1536 2.28646 11.2583C2.66875 11.4167 3.15417 11.4167 4.125 11.4167" stroke="black" stroke-opacity="0.5" stroke-width="2"/>
<path d="M15.5833 7.25H9.33333C8.18274 7.25 7.25 8.18274 7.25 9.33333V15.5833C7.25 16.7339 8.18274 17.6667 9.33333 17.6667H15.5833C16.7339 17.6667 17.6667 16.7339 17.6667 15.5833V9.33333C17.6667 8.18274 16.7339 7.25 15.5833 7.25Z" stroke="black" stroke-opacity="0.5" stroke-width="2"/>
</svg>
