<svg width="403" height="366" viewBox="0 0 403 366" fill="none" xmlns="http://www.w3.org/2000/svg">
<path d="M290 42.9573C281.024 34.5366 271.856 26.1591 261.245 19.9172C241.598 8.36118 214.177 10.1495 200.624 18.5575C190.221 25.0112 184.738 33.049 178.056 43.0022C169.693 55.4613 160.922 68.8642 147.14 74.829C140.422 77.7364 133.035 78.6099 125.85 80.0144C118.665 81.419 111.318 83.5234 105.814 88.3445C100.309 93.1648 97.1728 101.349 100.146 108.031C102.482 113.279 108.234 116.58 113.984 116.743C119.732 116.906 125.338 114.241 129.476 110.254C140.038 100.078 144.953 73.3101 125.446 65.6043" stroke="#AFB9E8" stroke-width="1.5" stroke-miterlimit="10"/>
<path d="M124.61 65.5875C88.7332 57.1761 62.612 65.3506 32.7742 75.6161C18.0665 80.6758 3.17827 86.0267 -12.3204 88.0625C-23.8889 89.5821 -35.5757 89.9854 -47.1876 91.1357C-59.2602 92.3318 -71.3276 93.8413 -83.1762 96.4968C-103.136 100.971 -137.901 109.214 -135.769 136.008C-134.915 146.738 -127.568 156.491 -128.31 167.229C-129.261 180.992 -142.138 191.652 -150.574 201.376C-162.219 214.798 -172.692 229.694 -170.771 248.354C-169.222 263.405 -159.418 276.63 -147.33 285.777C-135.242 294.923 -120.937 300.6 -106.843 306.205C-85.3746 314.742 -67.2203 324.74 -50.332 340.614C-40.549 349.81 -30.1325 358.92 -17.4529 363.377C-0.414798 369.367 21.3062 364.155 28.2446 346.165C32.0267 336.357 33.0901 324.94 38.9565 316.03C44.9992 306.852 57.7401 299.129 68.9799 300.615C87.2858 303.034 94.4251 316.576 103.151 330.819C107.412 337.774 112.47 344.18 119.628 348.356C131.905 355.519 144.171 352.726 157.114 349.82C171.098 346.68 185.225 344.143 199.46 342.446C223.611 339.568 247.91 340.857 271.976 343.883C294.828 346.758 328.008 361.738 346.854 341.408C355.111 332.5 356.755 320.306 353.748 308.928C349.439 292.624 340.166 274.523 340.667 257.589C341.406 232.59 352.707 215.949 366.52 196.415C373.135 187.061 378.23 176.668 377.992 164.965C377.445 138.04 360.515 117.367 342.865 98.8034C325.253 80.2802 307.658 59.1746 289.838 42.75" stroke="#AFB9E8" stroke-width="1.5" stroke-miterlimit="10"/>
<path d="M26.6828 206.75L46 184.75L13 185.939L26.6828 206.75Z" stroke="#C9409F" stroke-width="1.5" stroke-miterlimit="10"/>
<path d="M150 22.75C156.075 22.75 161 17.8251 161 11.75C161 5.67487 156.075 0.75 150 0.75C143.925 0.75 139 5.67487 139 11.75C139 17.8251 143.925 22.75 150 22.75Z" stroke="#8F96DB" stroke-width="1.5" stroke-miterlimit="10"/>
<path d="M363.981 163.75L345 204.75L403 196.423L363.981 163.75Z" fill="#768DEF" fill-opacity="0.7"/>
<path d="M239.898 114.552C241.133 107.189 236.164 100.22 228.801 98.9858C221.438 97.7517 214.469 102.72 213.235 110.083C212 117.446 216.969 124.416 224.332 125.65C231.695 126.884 238.664 121.915 239.898 114.552Z" stroke="#193DD6" stroke-width="1.5" stroke-miterlimit="10"/>
<path d="M206 143.75C206 146.512 203.986 148.75 201.5 148.75C199.014 148.75 197 146.512 197 143.75C197 140.988 199.014 138.75 201.5 138.75C203.986 138.75 206 140.988 206 143.75Z" fill="#909DF4"/>
</svg>
