<svg width="703" height="484" viewBox="0 0 703 484" fill="none" xmlns="http://www.w3.org/2000/svg">
<path d="M93.3718 393.715L84.6861 424.895C84.6861 424.895 134.114 439.048 134.493 439.157C134.872 439.265 144.184 404.363 144.184 404.363" fill="#E27769"/>
<path d="M138.047 433.527L85.3523 418.438L77.0144 448.404L163.547 473.181C163.547 473.181 164.221 463.512 158.697 456.468C151.967 447.888 140.606 441.606 138.047 433.527Z" fill="#F8E3D0"/>
<path d="M78.5738 442.798L163.111 467.003" stroke="black" stroke-width="1.5" stroke-miterlimit="10"/>
<path d="M144.233 441.946L131.309 441.942" stroke="black" stroke-width="1.5" stroke-miterlimit="10"/>
<path d="M150.677 447.487L134.943 447.905" stroke="black" stroke-width="1.5" stroke-miterlimit="10"/>
<path d="M82.052 430.298C82.052 430.298 90.7363 432.784 93.3727 433.539C96.0087 434.294 106.209 440.185 104.657 450.266" stroke="black" stroke-width="1.5" stroke-miterlimit="10"/>
<path d="M146.674 187.434C146.674 187.434 148.569 197.352 149.232 203.299C149.894 209.246 160.349 283.671 161.152 307.225C161.956 330.779 142.748 431.458 142.748 431.458L93.9677 422.976L103.204 310.128L92.6123 221.251C92.6123 221.251 88.1463 208.567 93.9673 183.009" fill="#15232A"/>
<path d="M58.4291 424.288L58.4199 456.689C58.4199 456.689 109.779 456.689 110.173 456.689C110.567 456.689 110.182 420.533 110.182 420.533" fill="#E27769"/>
<path d="M112.085 450.291H57.3314V481.428H147.245C147.245 481.428 145.305 471.935 138.102 466.679C129.327 460.276 116.711 457.362 112.085 450.291Z" fill="#F8E3D0"/>
<path d="M57.3314 475.604H145.171" stroke="black" stroke-width="1.5" stroke-miterlimit="10"/>
<path d="M120.293 456.688L107.855 460.246" stroke="black" stroke-width="1.5" stroke-miterlimit="10"/>
<path d="M127.979 460.248L112.948 464.984" stroke="black" stroke-width="1.5" stroke-miterlimit="10"/>
<path d="M57.3314 462.615C57.3314 462.615 66.3553 462.615 69.0942 462.615C71.833 462.615 83.2278 465.474 84.4329 475.604" stroke="black" stroke-width="1.5" stroke-miterlimit="10"/>
<path d="M56.5273 171.604C56.5273 171.604 49.3137 201.254 52.0452 236.816C53.9088 261.076 57.8621 307.223 57.8621 307.223L56.4079 442.843H117.506C117.756 441.462 119.414 371.057 117.816 308.626C116.471 256.074 111.845 209.692 111.845 209.692C111.845 209.692 114.991 177.492 114.968 175.399" fill="#15232A"/>
<path d="M65.4249 171.604C65.4249 171.604 58.2113 201.254 60.9428 236.816C62.8059 261.076 66.7596 307.223 66.7596 307.223L65.3054 442.843" stroke="#7F4F4A" stroke-width="1.5" stroke-miterlimit="10"/>
<path d="M117.505 442.845C117.756 441.464 119.413 371.059 117.816 308.628C116.471 256.076 111.844 209.694 111.844 209.694C111.844 209.694 114.991 177.495 114.967 175.401" stroke="black" stroke-width="1.5" stroke-miterlimit="10"/>
<path d="M60.5587 209.973C71.193 206.805 80.7296 200.366 84.319 193.651C88.1151 186.548 92.1988 171.605 92.1988 171.605" stroke="#7F4F4A" stroke-width="1.5" stroke-miterlimit="10"/>
<path d="M112.19 206.116C114.221 206.237 116.314 205.723 117.662 204.229C119.01 202.734 120.541 196.689 121.851 193.157C123.387 189.014 124.923 184.872 126.459 180.729" stroke="black" stroke-width="1.5" stroke-miterlimit="10"/>
<path d="M131.166 73.626C138.273 74.4663 142.421 74.1275 151.125 76.4062C167.126 80.5953 180.896 108.957 180.896 108.957L157.793 140.658L140.764 110.892" fill="#B8BEF5"/>
<path d="M147.101 92.4054L148.136 197.045L49.3137 189.124C49.3137 189.124 53.4154 128.451 65.8517 103.157C78.288 77.8617 95.5069 70.3438 95.5069 70.3438L136.729 77.2893L147.101 92.4054Z" fill="#B8BEF5"/>
<path d="M127.546 54.1555L127.274 72.9746L131.167 75.923C131.167 75.923 131.385 86.3787 117.164 86.3787C102.942 86.3787 92.9256 72.9498 92.9256 72.9498L96.9404 70.3114L99.7041 54.4291L97.0567 43.3633" fill="#D08883"/>
<path d="M123.783 117.512H116.348L114.967 87.2715H122.403L123.783 117.512Z" stroke="#754443" stroke-width="1.5" stroke-miterlimit="10"/>
<path d="M120.624 94.245C120.624 95.1184 119.926 95.8268 119.065 95.8268C118.203 95.8268 117.505 95.1189 117.505 94.245C117.505 93.3715 118.203 92.6631 119.065 92.6631C119.926 92.6631 120.624 93.3715 120.624 94.245Z" stroke="#754443" stroke-width="1.5" stroke-miterlimit="10"/>
<path d="M120.935 102.392C120.935 103.266 120.237 103.974 119.375 103.974C118.514 103.974 117.816 103.266 117.816 102.392C117.816 101.519 118.514 100.811 119.375 100.811C120.237 100.811 120.935 101.519 120.935 102.392Z" stroke="#754443" stroke-width="1.5" stroke-miterlimit="10"/>
<path d="M121.245 110.54C121.245 111.413 120.547 112.122 119.686 112.122C118.824 112.122 118.126 111.414 118.126 110.54C118.126 109.666 118.824 108.958 119.686 108.958C120.547 108.958 121.245 109.666 121.245 110.54Z" stroke="#754443" stroke-width="1.5" stroke-miterlimit="10"/>
<path d="M80.1792 117.308L61.8103 129.627L41.6857 88.7442C41.6857 88.7442 60.5863 79.2398 65.9225 76.4065C78.6616 69.6427 90.678 70.5646 98.5059 70.8484" fill="#B8BEF5"/>
<path d="M52.882 55.5941L50.9329 107.608L60.1204 126.052C60.1204 126.052 46.9149 136.592 38.1428 139.826C33.7407 141.45 8.59878 143.664 14.5438 114.608C20.4888 85.5521 28.415 52.2793 28.415 52.2793L52.882 55.5941Z" fill="#D08883"/>
<path d="M52.4206 60.866C53.5344 57.8458 54.5429 54.7808 55.443 51.6799C56.3114 48.6881 56.9023 45.5887 57.835 42.6276C58.0652 41.8973 58.3564 41.1916 58.6482 40.4869C59.7091 37.9197 60.7829 35.3292 62.3423 33.0734C62.55 32.7728 62.7696 32.4721 62.8817 32.1179C62.9938 31.7637 62.9787 31.3382 62.7485 31.0571C62.5096 30.7653 62.1107 30.7015 61.7482 30.7061C60.2435 30.7257 58.8568 31.5861 57.687 32.6012C56.934 33.2547 56.2406 33.9808 55.5027 34.6529C54.8916 35.2094 54.2686 35.8899 53.4921 36.1337C53.2642 28.9839 55.414 22.0202 56.3527 14.9376C56.5448 13.4871 55.7398 10.8957 54.6375 10.9339C53.1797 10.9843 51.0758 21.679 48.9926 27.1285C49.1277 23.7265 49.2531 20.1265 49.9179 16.7884C50.3788 14.4748 50.5952 12.0903 50.3255 9.73327C50.1739 8.41052 49.5485 5.51008 47.8122 7.01693C47.2999 7.46157 47.0444 8.15464 46.8239 8.82067C45.1156 13.9863 44.6741 19.4236 43.2277 24.6797C42.9754 19.687 44.1034 14.437 42.3074 9.82277C42.1323 9.37299 41.9053 8.90598 41.5019 8.68179C40.8881 8.34062 40.2747 8.42684 39.8832 9.03741C39.4918 9.64845 39.3985 10.4161 39.3162 11.152C38.713 16.5493 37.9337 22.2467 37.33 27.644C36.9344 25.095 37.0741 22.4905 36.9803 19.9088C36.8866 17.3267 36.5296 14.6668 35.2615 12.4697C34.8535 11.7626 34.0048 11.0523 33.391 11.5599C33.0937 11.8055 32.983 12.2362 32.9467 12.6361C31.8435 24.6694 30.2221 35.2113 28.8418 46.9631C28.2064 52.3748 26.6732 58.4922 25.5939 63.8354" fill="#D08883"/>
<path d="M51.7981 61.3936C52.1826 59.9394 52.7735 58.5476 53.544 57.2822" stroke="black" stroke-width="1.5" stroke-miterlimit="10"/>
<path d="M36.9128 29.2549C37.8193 32.394 39.0829 35.4221 39.9627 38.5687C40.8426 41.7157 40.6749 46.3858 39.9995 49.6302" stroke="black" stroke-width="1.5" stroke-miterlimit="10"/>
<path d="M52.2511 37.1074C48.7697 40.6916 46.302 45.3921 45.2502 50.4421" stroke="black" stroke-width="1.5" stroke-miterlimit="10"/>
<path d="M43.3747 24.6689L42.7034 29.5791" stroke="black" stroke-width="1.5" stroke-miterlimit="10"/>
<path d="M49.0367 25.709C48.5703 27.2606 48.2193 28.8518 47.9882 30.4635" stroke="black" stroke-width="1.5" stroke-miterlimit="10"/>
<path d="M97.2364 65.1055L117.577 85.3265L127.546 70.3121L133.826 73.6269L132.819 94.8854L118.255 89.0338L105.584 98.746L88.9292 70.6728L97.2364 65.1055Z" fill="#B8BEF5"/>
<path d="M133.826 73.6269L132.819 94.8854L118.255 89.0338L105.584 98.746L88.9292 70.6729" stroke="black" stroke-width="1.5" stroke-miterlimit="10"/>
<path d="M50.9329 107.608L50.2033 123.129" stroke="black" stroke-width="1.5" stroke-miterlimit="10"/>
<path d="M53.5441 82.7559L73.5409 121.76" stroke="#754443" stroke-width="1.5" stroke-miterlimit="10"/>
<path d="M148.74 98.0039C147.137 109.819 149.232 130.431 149.232 130.431" stroke="black" stroke-width="1.5" stroke-miterlimit="10"/>
<path d="M61.8103 129.628L86.3319 113.893" stroke="black" stroke-width="1.5" stroke-miterlimit="10"/>
<path d="M50.5681 178.809L147.847 188.262" stroke="#754443" stroke-width="1.5" stroke-miterlimit="10"/>
<path d="M126.62 16.9013C130.621 19.3632 132.921 23.8814 134.029 28.4425C134.95 32.2346 134.834 48.3219 134.537 51.997C134.154 56.7236 131.172 62.2998 126.232 64.2359C120.57 66.4558 114.003 64.1049 108.794 59.8309C101.474 53.8259 97.274 44.4129 97.7054 34.695C97.7725 33.1882 97.9908 31.6874 98.3652 30.223C100.221 22.9665 106.248 16.7363 113.511 14.7811C117.481 13.7124 123.212 14.8049 126.62 16.9013Z" fill="#D08883"/>
<path d="M144.68 15.4432C142.409 16.2728 140.137 17.1024 137.866 17.9321C139.032 15.3211 139.826 12.4644 139.592 9.60781C137.082 11.4493 134.169 12.7236 131.126 13.3122C132.35 11.9023 132.752 9.80963 132.14 8.03711C128.003 9.26198 123.626 9.28761 119.316 9.26664C115.007 9.24613 110.64 9.19484 106.464 10.2762C102.289 11.3575 98.2518 13.7308 96.0996 17.5182C95.1568 19.1784 94.599 21.0576 93.5087 22.6218C92.1974 24.5025 90.1606 25.863 89.2375 27.9673C88.6958 29.2029 88.5924 30.5849 88.5281 31.936C88.4583 33.4075 88.4266 34.8859 88.5777 36.3512C89.1484 41.8832 91.7577 49.6994 99.1937 57.359L102.237 45.4655C103.592 45.1695 102.188 41.0433 102.648 39.7168C103.808 36.3736 102.925 32.6235 103.775 29.1861C103.957 28.4502 104.289 27.6546 104.984 27.3707C105.827 27.0268 107.032 27.8909 107.838 28.1836C109.002 28.6063 110.188 28.9703 111.389 29.2738C117.465 30.81 126.765 31.8782 130.853 25.6747C133.9 27.67 134.567 33.5044 134.567 33.5044C134.567 33.5044 136.072 32.3858 136.409 32.0474C137.162 31.2914 137.915 30.535 138.668 29.779C139.91 28.5327 141.061 27.2388 141.989 25.7296C143.867 22.6745 144.875 19.0488 144.68 15.4432Z" fill="#FCDDD2"/>
<path d="M106.351 41.671C105.578 38.8228 101.208 37.5564 98.9308 39.1127C93.454 42.8553 98.2173 53.2788 104.077 52.8896C105.735 52.7796 107.85 51.5627 107.957 49.5995" fill="#D08883"/>
<path d="M99.7119 44.1055L106.078 47.5331" stroke="black" stroke-width="1.5" stroke-miterlimit="10"/>
<path d="M102.81 38.8242C104.263 39.2698 105.581 40.1903 106.538 41.4278" stroke="black" stroke-width="1.5" stroke-miterlimit="10"/>
<path d="M97.738 49.0244C99.0985 51.1656 101.303 53.2355 103.918 53.0118C105.732 52.8566 107.534 51.5697 107.79 49.5534" stroke="black" stroke-width="1.5" stroke-miterlimit="10"/>
<path d="M109.935 61.3496C110.669 61.8371 111.404 62.3251 112.173 62.7549C117.546 65.7592 123.015 65.4926 127.274 64.1391" stroke="black" stroke-width="1.5" stroke-miterlimit="10"/>
<path d="M125.453 39.7354C125.453 39.7354 127.727 45.6541 128.115 48.8109C128.344 50.6711 125.439 50.1197 124.166 50.233" stroke="black" stroke-width="1.5" stroke-miterlimit="10"/>
<path d="M128.177 37.2119C129.204 36.4708 130.498 36.1198 131.753 36.2429C133.007 36.3659 134.212 36.9621 135.08 37.8891" stroke="black" stroke-width="1.5" stroke-miterlimit="10"/>
<path d="M110.506 38.7563C111.744 37.626 113.364 36.9339 115.027 36.8258C116.689 36.7172 118.383 37.193 119.754 38.1532" stroke="black" stroke-width="1.5" stroke-miterlimit="10"/>
<path d="M130.967 44.4422C131.593 44.4422 132.101 43.6653 132.101 42.7069C132.101 41.7486 131.593 40.9717 130.967 40.9717C130.34 40.9717 129.833 41.7486 129.833 42.7069C129.833 43.6653 130.34 44.4422 130.967 44.4422Z" fill="black"/>
<path d="M116.209 44.4734C116.835 44.4734 117.342 43.6965 117.342 42.7381C117.342 41.7798 116.835 41.0029 116.209 41.0029C115.582 41.0029 115.075 41.7798 115.075 42.7381C115.075 43.6965 115.582 44.4734 116.209 44.4734Z" fill="black"/>
<path d="M127.546 53.361L120.464 52.1436C120.464 52.1436 119.882 56.3947 122.672 57.187C126.7 58.3313 127.546 53.361 127.546 53.361Z" fill="white"/>
<path d="M131.09 25.8405C132.56 24.2311 134.201 22.4931 135.079 20.2979" stroke="#E0B1A2" stroke-miterlimit="10"/>
<path d="M133.267 28.2243C135.687 27.0307 137.872 25.35 139.658 23.3076" stroke="#E0B1A2" stroke-miterlimit="10"/>
<path d="M124.753 16.4672C127.219 15.7345 129.539 14.4957 131.529 12.8467" stroke="#E0B1A2" stroke-miterlimit="10"/>
<path d="M9.18872 90.6465C5.85439 99.9831 4.30737 109.973 4.65978 119.897" stroke="black" stroke-width="1.5" stroke-miterlimit="10"/>
<path d="M6.80639 80.0146C3.7776 85.5116 1.71368 91.5544 0.740993 97.7738" stroke="black" stroke-width="1.5" stroke-miterlimit="10"/>
<path d="M585.036 395.735L596.532 415.93C596.532 415.93 564.515 434.673 564.27 434.816C564.025 434.96 551.442 412.281 551.442 412.281" fill="#E27769"/>
<path d="M560.809 431.525L594.942 411.544L605.984 430.954L549.933 463.766C549.933 463.766 547.776 457.141 550.402 451.236C553.602 444.042 560.433 437.621 560.809 431.525Z" fill="#2C221D"/>
<path d="M603.918 427.324L549.16 459.38" stroke="black" stroke-width="1.5" stroke-miterlimit="10"/>
<path d="M557.961 438.509L566.977 436.188" stroke="black" stroke-width="1.5" stroke-miterlimit="10"/>
<path d="M554.431 443.532L565.482 440.999" stroke="black" stroke-width="1.5" stroke-miterlimit="10"/>
<path d="M599.313 419.229C599.313 419.229 593.687 422.521 591.979 423.521C590.272 424.521 584.182 430.461 587.024 437.216" stroke="black" stroke-width="1.5" stroke-miterlimit="10"/>
<path d="M629.382 429.251L629.389 452.572C629.389 452.572 592.423 452.572 592.14 452.572C591.856 452.572 592.133 426.549 592.133 426.549" fill="#E27769"/>
<path d="M590.763 447.966H630.171V470.376H565.457C565.457 470.376 566.854 463.544 572.038 459.761C578.354 455.153 587.434 453.055 590.763 447.966Z" fill="#2C221D"/>
<path d="M630.171 466.185H566.95" stroke="black" stroke-width="1.5" stroke-miterlimit="10"/>
<path d="M584.855 452.572L593.808 455.133" stroke="black" stroke-width="1.5" stroke-miterlimit="10"/>
<path d="M579.324 455.132L590.142 458.541" stroke="black" stroke-width="1.5" stroke-miterlimit="10"/>
<path d="M630.172 456.836C630.172 456.836 623.677 456.836 621.705 456.836C619.734 456.836 611.533 458.893 610.665 466.184" stroke="black" stroke-width="1.5" stroke-miterlimit="10"/>
<path d="M544.311 198.606C544.311 198.606 516.627 267.13 516.815 316.708C516.925 345.775 556.243 427.552 556.243 427.552L591.861 401.855L562.623 308.845L594.655 192.491" fill="#2C444E"/>
<path d="M585.776 201.008C585.776 201.008 570.301 297.74 573.956 333.915C575.544 349.623 581.054 443.381 581.054 443.381L631.309 438.306L623.576 316.717C623.576 316.717 628.58 263.902 631.309 248.215C634.038 232.528 635.517 212.95 631.879 194.273" fill="#2C444E"/>
<path d="M620.178 439.43L612.678 316.717C612.678 316.717 618.649 263.902 621.905 248.215C625.162 232.528 626.928 212.95 622.586 194.273" stroke="black" stroke-width="1.5" stroke-miterlimit="10"/>
<path d="M584.921 200.257L582.08 224.03C582.08 224.03 576.748 220.193 576.748 219.027C576.748 217.86 576.748 201.008 576.748 201.008" stroke="black" stroke-width="1.5" stroke-miterlimit="10"/>
<path d="M603.736 206.5C603.736 206.5 603.736 219.924 624.879 226.717" stroke="black" stroke-width="1.5" stroke-miterlimit="10"/>
<path d="M538.259 216.608C538.259 216.608 552.505 215.993 560.547 202.292" stroke="black" stroke-width="1.5" stroke-miterlimit="10"/>
<path d="M582.081 224.029L579.263 248.402" stroke="black" stroke-width="1.5" stroke-miterlimit="10"/>
<path d="M575.111 348.571L579.115 411.051" stroke="black" stroke-width="1.5" stroke-miterlimit="10"/>
<path d="M571.543 57.2142L570.962 73.5113L554.632 78.7086C554.632 78.7086 558.585 93.998 583.933 91.2025C609.282 88.4069 615.237 77.7103 615.237 77.7103L600.531 74.6094L596.342 56.4643L595.918 50.8857" fill="#A04C38"/>
<path d="M569.678 27.6029C566.324 30.2078 564.695 34.4893 564.14 38.691C563.679 42.1843 565.33 56.6073 565.95 59.875C566.747 64.0781 569.96 68.7861 574.578 70.0347C579.872 71.4661 585.537 68.7068 589.801 64.3569C595.791 58.2446 598.654 49.3835 597.332 40.7068C597.127 39.3612 596.787 38.0362 596.31 36.7596C593.948 30.4325 587.941 25.4393 581.236 24.4037C577.571 23.8374 572.534 25.3843 569.678 27.6029Z" fill="#A04C38"/>
<path d="M559.798 30.6216C559.798 30.6216 558.207 26.5536 560.522 21.3736C561.949 18.179 565.021 16.5771 568.368 15.9479C570.508 15.5456 573.004 16.3832 574.859 17.2986C576.918 13.5014 581.588 11.9605 585.859 11.8943C588.179 11.8584 590.546 12.1698 592.636 13.1905C593.927 13.8211 595.711 14.8064 596.629 15.9465C597.88 17.4995 598.686 19.4845 598.979 21.4588C598.95 21.264 601.219 21.5344 601.494 21.6085C606.312 22.9023 609.636 28.3765 608.438 33.3193C608.328 33.7742 607.713 36.5828 606.286 38.2486C608.215 39.1425 609.54 41.239 609.536 43.3904C609.532 45.5419 608.199 47.6332 606.266 48.5197C606.115 48.5891 605.952 48.6586 605.857 48.7965C605.703 49.0207 605.785 49.3256 605.868 49.5861C606.254 50.7975 606.522 52.1873 605.896 53.2905C605.599 53.813 605.13 54.211 604.645 54.5615C602.28 56.2749 599.307 57.105 596.411 56.8612C595.613 56.7941 595.225 53.1875 595.181 52.5621C595.024 50.3505 594.865 48.1394 594.707 45.9278C593.05 45.6635 591.53 44.6232 590.667 43.1644C589.804 41.7055 589.616 39.8552 590.166 38.2477C590.17 38.2365 590.174 38.2248 590.178 38.2136C590.635 36.9011 589.535 35.6162 588.192 35.9061C586.272 36.3209 584.269 36.3474 582.342 35.9657C581.496 35.7984 580.639 35.5411 579.975 34.9851C579.622 34.69 579.35 34.2235 579.138 33.688C578.637 32.4174 576.947 32.2268 576.121 33.3086C576.112 33.3202 576.103 33.3314 576.095 33.3426C575.073 34.6681 573.424 35.4078 571.77 35.5276C570.987 35.5845 570.204 35.5127 569.436 35.3454C568.31 35.0993 567.293 36.023 567.331 37.1906C567.352 37.8436 567.29 38.4872 567.072 39.1015C566.178 41.6137 564.06 41.7927 564.06 41.7927L564.366 46.296C564.366 46.296 559.449 45.5475 558.986 45.4002C555.76 44.3715 553.906 41.954 553.894 38.395C553.877 33.3571 559.798 30.6216 559.798 30.6216Z" fill="#2C221D"/>
<path d="M591.976 48.9839C592.537 46.379 596.415 45.0241 598.541 46.3156C603.655 49.4206 599.857 59.0476 594.558 58.9837C593.058 58.9656 591.094 57.9728 590.905 56.2082" fill="#A04C38"/>
<path d="M598.075 50.8535L592.5 54.2536" stroke="black" stroke-width="1.5" stroke-miterlimit="10"/>
<path d="M595.032 46.2441C593.743 46.7167 592.599 47.6107 591.796 48.7731" stroke="black" stroke-width="1.5" stroke-miterlimit="10"/>
<path d="M600.088 55.1904C598.963 57.1867 597.075 59.1601 594.708 59.0864C593.065 59.0352 591.38 57.9641 591.054 56.159" stroke="black" stroke-width="1.5" stroke-miterlimit="10"/>
<path d="M571.128 68.8435C573.397 70.1713 575.869 70.8975 578.258 70.8765C583.361 70.8308 587.92 67.7943 590.906 63.1572" stroke="black" stroke-width="1.5" stroke-miterlimit="10"/>
<path d="M575.366 46.6924C575.183 49.4833 575 52.2747 574.817 55.0656C574.795 55.4086 574.776 55.7694 574.913 56.0789C575.155 56.6233 575.777 56.8083 576.328 56.9038C577.212 57.0572 578.107 57.1355 579.002 57.1378" stroke="black" stroke-width="1.5" stroke-miterlimit="10"/>
<path d="M580.855 43.0655C581.969 42.3342 584.008 41.3303 585.636 41.8005C587.15 42.2377 588.262 43.4211 589.318 44.5411" stroke="black" stroke-width="1.5" stroke-miterlimit="10"/>
<path d="M573.568 43.1589C570.985 41.07 568.204 41.7117 565.634 43.3528" stroke="black" stroke-width="1.5" stroke-miterlimit="10"/>
<path d="M584.557 49.2516C585.219 49.2516 585.756 48.4835 585.756 47.536C585.756 46.5885 585.219 45.8203 584.557 45.8203C583.894 45.8203 583.358 46.5885 583.358 47.536C583.358 48.4835 583.894 49.2516 584.557 49.2516Z" fill="black"/>
<path d="M569.6 49.6755C570.263 49.6755 570.799 48.9073 570.799 47.9598C570.799 47.0123 570.263 46.2441 569.6 46.2441C568.938 46.2441 568.401 47.0123 568.401 47.9598C568.401 48.9073 568.938 49.6755 569.6 49.6755Z" fill="black"/>
<path d="M583.358 58.4717L574.514 59.5036C574.514 59.5036 575.369 63.7095 578.92 63.146C583.358 62.4418 583.358 58.4717 583.358 58.4717Z" fill="white"/>
<path d="M547.269 77.2959L501.767 87.3209L462.358 74.8555L453.564 92.713C453.564 92.713 480.591 123.682 503.68 120.812C511.23 119.873 553.893 111.66 553.893 111.66" fill="#A04C38"/>
<path d="M569.688 119.046C556.577 118.818 546.122 123.858 533.807 123.908L525.639 81.1235C538.572 77.297 544.026 75.043 552.508 73.7999C557.112 73.125 564.011 73.2103 569.6 73.7999" fill="#B6BBFC"/>
<path d="M625.965 80.9677C625.965 80.9677 630.824 87.7749 633.832 112.951C636.841 138.128 636.841 208.424 636.841 208.424L538.259 202.694C541.223 171.277 547.972 114.396 550.294 99.2629C552.615 84.1301 569.601 73.7998 569.601 73.7998C569.601 73.7998 569.601 80.1381 581.017 80.7449C594.744 81.4743 600.53 74.6103 600.53 74.6103L625.965 80.9677Z" fill="#B6BBFC"/>
<path d="M600.53 74.6094C604.748 74.6723 610.465 75.1766 615.889 75.4614C619.873 75.6706 626.771 77.129 630.256 79.4716C633.634 81.7419 636.832 84.0187 638.884 87.6588C643.766 96.3182 655.209 120.254 655.209 120.254L621.619 141.187L610.88 113.482" fill="#B6BBFC"/>
<path d="M621.619 141.188L610.881 113.483" stroke="#5165F6" stroke-width="1.5" stroke-miterlimit="10"/>
<path d="M616.977 129.211L650.172 109.847" stroke="#5165F6" stroke-width="1.5" stroke-miterlimit="10"/>
<path d="M648.429 88.6434C648.429 89.205 634.964 132.871 634.964 132.871L625.166 138.977C625.166 138.977 629.685 149.671 633.305 153.978C636.924 158.284 644.507 162.215 650.711 161.279C656.916 160.343 664.499 153.229 667.257 136.192C669.735 120.884 670.931 97.9399 673.374 90.8815C675.817 83.8231 648.429 88.0817 648.429 88.6434Z" fill="#A04C38"/>
<path d="M634.964 132.871L632.504 143.174" stroke="black" stroke-width="1.5" stroke-miterlimit="10"/>
<path d="M646.838 92.3764C647.067 89.16 647.411 85.9481 647.867 82.7485C648.307 79.6621 649.044 76.5948 649.414 73.5093C649.505 72.7482 649.53 71.9833 649.555 71.2199C649.646 68.4378 649.735 65.6292 649.245 62.9189C649.179 62.5582 649.104 62.1919 649.147 61.8227C649.191 61.4536 649.38 61.0728 649.705 60.9148C650.042 60.7507 650.431 60.8612 650.758 61.0187C652.117 61.6731 653.024 63.042 653.67 64.4593C654.086 65.3715 654.056 66.6667 654.45 67.5896C654.777 68.3539 654.093 71.549 655.593 70.8531C657.092 70.1572 660.085 55.8037 662.144 48.969C662.565 47.5694 664.362 45.555 665.348 46.0555C666.653 46.7178 664.169 57.3283 663.822 63.1627C665.098 60.0134 666.464 56.6883 667.232 53.3731C667.764 51.0753 668.547 48.8166 669.762 46.7882C670.443 45.6501 672.204 43.2786 673.163 45.3825C673.446 46.0033 673.393 46.7412 673.319 47.4398C672.749 52.8576 670.915 57.9864 670.069 63.3752C672.35 58.9442 673.483 53.6951 677.012 50.261C677.357 49.9264 677.755 49.5978 678.213 49.5647C678.911 49.5144 679.434 49.8523 679.539 50.5728C679.643 51.2939 679.412 52.0312 679.184 52.7345C677.514 57.8955 673.928 69.3616 673.928 69.3616C673.928 69.3616 676.619 64.6486 677.765 62.3415C678.911 60.0343 680.272 57.1073 682.328 55.6466C682.99 55.1768 684.053 54.8897 684.402 55.6107C684.571 55.9598 684.494 56.398 684.363 56.7769C680.42 68.181 677.56 78.4484 673.984 89.7137C672.337 94.9012 671.215 101.11 670 106.423" fill="#A04C38"/>
<path d="M647.187 93.1199C647.435 91.6354 647.47 90.1206 647.29 88.6445" stroke="black" stroke-width="1.5" stroke-miterlimit="10"/>
<path d="M675.088 67.0791C674.336 69.059 672.828 72.2694 671.38 73.7995C669.969 75.2901 667.891 76.8216 666.564 78.3933C664.49 80.8509 663.448 84.2123 662.747 87.4176" stroke="black" stroke-width="1.5" stroke-miterlimit="10"/>
<path d="M656.759 70.8535C658.45 75.5838 658.761 80.9 657.641 85.9346" stroke="black" stroke-width="1.5" stroke-miterlimit="10"/>
<path d="M669.94 63.3037L668.532 68.0503" stroke="black" stroke-width="1.5" stroke-miterlimit="10"/>
<path d="M664.367 61.8535C664.153 63.461 663.818 65.056 663.366 66.6183" stroke="black" stroke-width="1.5" stroke-miterlimit="10"/>
<path d="M547.236 122.294C547.236 122.294 549.963 100.07 550.442 94.3418" stroke="#5165F6" stroke-width="1.5" stroke-miterlimit="10"/>
<path d="M540.954 123.461L532.962 79.2783" stroke="#5165F6" stroke-width="1.5" stroke-miterlimit="10"/>
<path d="M564.011 73.21C564.26 78.6673 566.923 84.0301 572.369 85.7192" stroke="#5165F6" stroke-width="1.5" stroke-miterlimit="10"/>
<path d="M575.428 86.6619C581.366 87.8546 587.607 87.417 593.341 85.4585C598.921 83.5527 603.555 79.8934 607.439 75.4619" stroke="#5165F6" stroke-width="1.5" stroke-miterlimit="10"/>
<path d="M558.981 175.452C575.534 170.378 590.736 160.842 602.604 148.085" stroke="#5165F6" stroke-width="1.5" stroke-miterlimit="10"/>
<path d="M560.547 159.69C569.7 159.841 578.879 158.168 587.408 154.794" stroke="#5165F6" stroke-width="1.5" stroke-miterlimit="10"/>
<path d="M484.528 422.958L484.534 444.064C484.534 444.064 451.078 444.064 450.822 444.064C450.565 444.064 450.816 420.513 450.816 420.513" fill="#E27769"/>
<path d="M449.577 439.896H485.243V460.179H426.673C426.673 460.179 427.937 453.995 432.629 450.572C438.345 446.401 446.563 444.502 449.577 439.896Z" fill="#F8E3D0"/>
<path d="M485.243 456.385H428.024" stroke="black" stroke-width="1.5" stroke-miterlimit="10"/>
<path d="M444.229 444.064L452.332 446.382" stroke="black" stroke-width="1.5" stroke-miterlimit="10"/>
<path d="M439.223 446.381L449.014 449.466" stroke="black" stroke-width="1.5" stroke-miterlimit="10"/>
<path d="M485.243 447.925C485.243 447.925 479.365 447.925 477.58 447.925C475.795 447.925 468.373 449.787 467.589 456.385" stroke="black" stroke-width="1.5" stroke-miterlimit="10"/>
<path d="M537.18 422.958L537.186 444.064C537.186 444.064 503.731 444.064 503.474 444.064C503.218 444.064 503.468 420.513 503.468 420.513" fill="#E27769"/>
<path d="M502.229 439.896H537.895V460.179H479.326C479.326 460.179 480.59 453.995 485.282 450.572C490.997 446.401 499.215 444.502 502.229 439.896Z" fill="#F8E3D0"/>
<path d="M537.895 456.385H480.676" stroke="black" stroke-width="1.5" stroke-miterlimit="10"/>
<path d="M496.882 444.064L504.984 446.382" stroke="black" stroke-width="1.5" stroke-miterlimit="10"/>
<path d="M491.875 446.381L501.667 449.466" stroke="black" stroke-width="1.5" stroke-miterlimit="10"/>
<path d="M537.895 447.925C537.895 447.925 532.017 447.925 530.232 447.925C528.448 447.925 521.026 449.787 520.241 456.385" stroke="black" stroke-width="1.5" stroke-miterlimit="10"/>
<path d="M446.899 162.759L445.526 172.747C445.526 172.747 435.87 193.886 435.65 220.288C435.429 246.69 446.485 431.76 446.485 431.76H486.381L485.53 210.256C485.53 210.256 486.903 173.621 483.434 162.095" fill="#15232A"/>
<path d="M475.14 162.095C475.14 219.137 501.768 431.76 501.768 431.76H539.64C539.64 431.76 533.367 263.138 529.291 222.934C526.743 197.807 518.721 182.132 512.284 172.747L507.72 161.758" fill="#15232A"/>
<path d="M531.148 431.759C531.148 431.759 526.256 263.137 522.179 222.933C519.766 199.13 511.509 182.419 505.174 172.746L501.768 161.418" stroke="#754844" stroke-width="1.5" stroke-miterlimit="10"/>
<path d="M490.335 172.57C490.335 172.57 491.071 184.121 499.14 193.649C507.21 203.177 518.601 203.291 518.601 203.291" stroke="#754844" stroke-width="1.5" stroke-miterlimit="10"/>
<path d="M479.764 172.571L478.905 163.26" stroke="#754844" stroke-width="1.5" stroke-miterlimit="10"/>
<path d="M473.194 168.972C474.099 168.972 474.832 168.227 474.832 167.309C474.832 166.391 474.099 165.646 473.194 165.646C472.288 165.646 471.555 166.391 471.555 167.309C471.555 168.227 472.288 168.972 473.194 168.972Z" stroke="#754844" stroke-width="1.5" stroke-miterlimit="10"/>
<path d="M485.801 280.862C485.801 280.862 475.454 202.162 474.832 172.568" stroke="black" stroke-width="1.5" stroke-miterlimit="10"/>
<path d="M466.243 172.746C466.243 172.746 469.062 202.135 470.093 203.843C471.125 205.55 477.477 209.028 477.477 209.028" stroke="black" stroke-width="1.5" stroke-miterlimit="10"/>
<path d="M437.779 202.292C437.779 202.292 445.919 201.686 452.123 195.571C458.326 189.457 458.799 172.746 458.799 172.746" stroke="#754844" stroke-width="1.5" stroke-miterlimit="10"/>
<path d="M445.526 172.746H512.284" stroke="black" stroke-width="1.5" stroke-miterlimit="10"/>
<path d="M461.091 73.7987C448.692 71.6645 436.37 77.8112 429.092 86.1476C422.126 94.1255 406.678 115.169 406.678 115.169L432.972 134.818L452.123 106.206" fill="#EA72C1"/>
<path d="M444.288 95.51C439.769 107.629 437.447 114.834 440.365 127.449C441.028 130.313 442.073 133.073 442.793 135.923C445.31 145.892 446.899 162.758 446.899 162.758L508.724 163.259C508.724 163.259 505.698 148.688 506.943 141.868C507.69 137.771 512.22 113 511.002 104.764C509.784 96.5284 498.013 73.7988 498.013 73.7988H458.84L444.288 95.51Z" fill="#EA72C1"/>
<path d="M495.378 69.9463C497.206 70.802 499.034 71.6578 500.862 72.513C505.555 74.7097 510.312 76.9474 514.256 80.3367C521.807 86.8274 525.726 94.0969 526.62 104.096C527.514 114.095 524.032 136.888 524.032 136.888L490.681 128.908L496.298 95.992" fill="#EA72C1"/>
<path d="M495.946 98.0566L490.681 128.907" stroke="black" stroke-width="1.5" stroke-miterlimit="10"/>
<path d="M525.235 127.937L491.57 120.977" stroke="black" stroke-width="1.5" stroke-miterlimit="10"/>
<path d="M506.699 132.741C506.699 132.741 495.084 118.523 491.918 107.325C488.752 96.1278 472.519 114.687 472.519 114.687C472.519 114.687 483.776 142.525 489.263 152.736C493.876 161.323 499.914 167.345 509.59 165.217C520.765 162.76 522.61 136.267 522.61 136.267L506.699 132.741Z" fill="#E89274"/>
<path d="M439.721 124.222C438.152 114.341 439.523 103.998 443.611 94.8887" stroke="black" stroke-width="1.5" stroke-miterlimit="10"/>
<path d="M437.577 127.938L411.962 108.052" stroke="black" stroke-width="1.5" stroke-miterlimit="10"/>
<path d="M506.699 132.74L514.252 145.469" stroke="black" stroke-width="1.5" stroke-miterlimit="10"/>
<path d="M457.97 156.556C461.705 157.205 465.415 157.986 469.125 158.767C474.967 159.996 480.809 161.226 486.65 162.456" stroke="black" stroke-width="1.5" stroke-miterlimit="10"/>
<path d="M463.975 126.364C466.104 129.367 468.803 131.951 471.882 133.932" stroke="black" stroke-width="1.5" stroke-miterlimit="10"/>
<path d="M430.786 89.5516C430.595 86.6218 431.023 83.6514 432.034 80.9001C432.347 80.0481 432.924 79.0749 433.82 79.1159C434.199 79.1332 434.563 79.3434 434.939 79.2903C434.998 78.4373 435.179 77.5429 435.75 76.9137C436.32 76.2845 437.379 76.0505 438.012 76.6149C438.066 76.663 438.12 76.7179 438.19 76.7347C438.358 76.7748 438.484 76.5846 438.559 76.4266C438.969 75.5667 439.551 74.7678 440.344 74.2528C441.137 73.7378 442.161 73.5393 443.043 73.8734C443.229 73.9438 443.428 74.0384 443.618 73.9797C443.782 73.9293 443.892 73.7783 443.994 73.6385C444.398 73.0848 444.864 72.5623 445.45 72.2137C446.036 71.8651 447.225 71.7602 447.875 71.9597C448.196 72.058 448.857 72.3046 449.143 72.4812C449.828 72.9054 450.135 73.3043 450.82 73.7285L449.034 74.161C449.034 74.161 448.06 82.7398 446.265 86.6274C445.785 87.6658 445.237 88.6893 444.461 89.5231C443.684 90.3569 442.652 90.9918 441.526 91.0924C441.405 91.1031 441.273 91.105 441.175 91.0323C441.07 90.9536 441.035 90.8119 441.008 90.6814C440.922 90.2721 440.835 89.8634 440.749 89.4542C440.472 90.2418 440.181 91.0472 439.647 91.6853C439.113 92.3234 437.981 92.8519 437.469 92.6021C436.957 92.3523 437.162 91.3623 437.08 90.6772C436.583 92.0162 435.4 92.8645 433.991 92.9349C433.829 92.9428 433.659 92.9386 433.513 92.8654C432.891 92.5545 432.908 90.9335 432.908 90.9335C432.908 90.9335 431.89 91.7445 431.41 91.3222C430.931 90.899 430.828 90.1938 430.786 89.5516Z" fill="#A04C38"/>
<path d="M443.646 74.793C442.478 79.4487 441.701 84.2051 441.326 88.9936" stroke="black" stroke-width="1.5" stroke-miterlimit="10"/>
<path d="M438.412 77.2969C437.883 79.6921 437.522 82.1078 437.332 84.5268C437.168 86.6274 437.132 88.729 437.097 90.8292" stroke="black" stroke-width="1.5" stroke-miterlimit="10"/>
<path d="M434.796 79.2109C433.539 82.8534 433.36 87.4648 432.909 90.9329" stroke="black" stroke-width="1.5" stroke-miterlimit="10"/>
<path d="M463.458 67.523L463.522 72.2053L454.82 73.2591C454.82 73.2591 450.144 82.3971 469.515 82.3971C488.886 82.3971 494.854 74.4047 494.854 74.4047L489.879 74.0295L489.452 63.1077L489.721 54.4404" fill="#E89274"/>
<path d="M452.945 38.3008C452.915 42.764 451.67 47.2128 449.385 51.0267C448.294 52.8468 446.967 54.5354 446.129 56.4878C444.841 59.4862 444.821 63.0205 446.074 66.0337C446.607 67.315 447.367 68.5347 447.532 69.9148C447.708 71.3811 447.19 72.8278 446.813 74.2545C446.297 76.2051 446.037 78.2143 445.808 80.2199C445.473 83.1572 445.217 86.2221 446.23 88.9949C447.41 92.2239 450.362 94.7184 453.706 95.3108C457.051 95.9032 460.662 94.573 462.851 91.941C465.346 88.9413 465.867 84.6034 464.913 80.7993C464.643 79.7193 464.264 78.6665 464.064 77.5712C463.819 76.2358 463.842 74.8669 463.866 73.5092C463.915 70.7742 463.964 68.0393 464.013 65.3043" fill="#632334"/>
<path d="M461.827 25.9672C458.196 28.1569 456.085 32.216 455.05 36.3232C454.189 39.7377 454.168 54.2576 454.407 57.5766C454.715 61.8455 457.363 66.9016 461.806 68.689C466.898 70.7379 471.455 68.6643 476.19 64.8489C482.844 59.4885 488.095 51.0328 487.783 42.2592C487.734 40.8987 487.549 39.5424 487.222 38.2178C485.604 31.6539 480.214 25.9831 473.675 24.1598C470.099 23.1633 464.919 24.1029 461.827 25.9672Z" fill="#E89274"/>
<path d="M463.411 46.6523C463.442 48.7092 462.894 50.7716 461.847 52.5329C461.582 52.9785 461.282 53.4115 461.116 53.9037C460.949 54.3964 460.933 54.9738 461.217 55.4077C461.376 55.6496 461.614 55.8268 461.862 55.9712C462.469 56.3241 463.169 56.5096 463.869 56.5021" stroke="black" stroke-width="1.5" stroke-miterlimit="10"/>
<path d="M468.003 57.1328L463.011 58.3875C463.157 60.7962 464.328 62.8027 466.653 62.2271C468.964 61.6557 468.41 59.0265 468.003 57.1328Z" fill="white"/>
<path d="M483.981 58.3039C483.952 60.2754 483.909 62.3472 483.386 64.2381C482.766 66.4814 482.031 68.692 481.49 70.9576C480.798 73.859 480.427 76.9058 481.039 79.8258C481.535 82.1898 482.655 84.3771 483.216 86.7257C483.49 87.87 483.629 89.0478 483.629 90.2251C483.63 91.7399 483.41 93.312 483.94 94.7284C484.264 95.5935 484.847 96.3341 485.492 96.988C487.97 99.4974 491.537 100.771 495.015 100.62C496.754 100.544 498.331 99.8889 500.015 99.6339C501.865 99.3538 503.6 98.375 504.762 96.8579C505.72 95.6079 506.225 94.0717 506.713 92.5681C507.646 89.6947 508.148 87.1946 507.781 84.1418C507.478 81.6319 506.875 79.1575 506.747 76.6322C506.608 73.9056 507.027 71.1813 507.048 68.451C507.085 63.5296 504.873 60.9443 502.49 56.9765C499.819 52.5291 498.871 47.3281 497.83 42.3047C496.763 37.1637 495.39 32.3323 492.546 27.8374C490.431 24.4946 487.586 21.5546 484.082 19.7816C482.157 18.8075 471.987 15.4135 467.392 21.2707C459.755 20.3889 452.825 28.0807 452.098 31.5059C450.569 38.7186 454.503 41.4741 454.503 41.4741C454.903 38.1514 455.233 34.213 457.967 31.91C460.493 29.781 463.478 28.3781 466.822 28.4354C466.973 28.5701 467.281 37.0826 480.482 47.57C483.317 49.7457 484.042 54.2653 483.981 58.3039Z" fill="#632334"/>
<path d="M466.647 43.8443C467.559 42.7201 469.609 42.3351 471.415 42.6516C473.22 42.9676 474.804 43.8592 476.147 44.8543" stroke="black" stroke-width="1.5" stroke-miterlimit="10"/>
<path d="M454.82 44.6125C456.153 41.7642 459.197 42.7975 460.714 44.0369" stroke="black" stroke-width="1.5" stroke-miterlimit="10"/>
<path d="M474.198 48.7738C474.106 49.8332 473.479 50.6423 472.798 50.5813C472.118 50.5197 471.641 49.6114 471.733 48.5519C471.826 47.4925 472.453 46.6834 473.133 46.7445C473.814 46.806 474.291 47.7144 474.198 48.7738Z" fill="black"/>
<path d="M459.559 47.5101C459.466 48.5695 458.839 49.3786 458.159 49.3176C457.478 49.2561 457.001 48.3477 457.094 47.2882C457.187 46.2288 457.813 45.4197 458.494 45.4808C459.175 45.5423 459.651 46.4507 459.559 47.5101Z" fill="black"/>
<path d="M479.945 49.7168C480.56 47.1249 484.465 45.8535 486.564 47.1902C491.612 50.4048 487.614 59.9479 482.317 59.7698C480.818 59.7195 478.876 58.6843 478.723 56.9165" fill="#E89274"/>
<path d="M486.003 51.7188L480.359 54.9981" stroke="black" stroke-width="1.5" stroke-miterlimit="10"/>
<path d="M483.056 47.0439C481.758 47.4886 480.596 48.3578 479.769 49.5025" stroke="black" stroke-width="1.5" stroke-miterlimit="10"/>
<path d="M487.924 56.0967C486.758 58.0682 484.83 60.0006 482.465 59.8762C480.823 59.7895 479.162 58.6825 478.873 56.8709" stroke="black" stroke-width="1.5" stroke-miterlimit="10"/>
<path d="M463.645 69.5284C469.252 70.7971 474.731 67.0596 478.135 63.3486" stroke="black" stroke-width="1.5" stroke-miterlimit="10"/>
<path d="M494.026 117.262C491.176 105.156 495.336 92.4222 493.954 80.0542C493.005 79.7089 492.287 80.9402 492.005 81.9227C491.363 84.1674 490.721 86.4116 490.079 88.6563C489.244 85.3606 489.987 81.8878 489.905 78.4859C489.89 77.8636 489.548 77.0144 488.964 77.2046C488.722 77.2833 488.576 77.5271 488.452 77.7522C488.12 78.3563 487.787 78.9608 487.454 79.5648C487.633 78.5045 487.666 77.419 487.554 76.3493C487.52 76.0216 487.439 75.6469 487.15 75.4973C486.657 75.2424 485.362 76.4313 485.135 76.9422C484.325 78.7618 483.984 80.304 483.174 82.1236C483.193 80.9687 483.559 79.514 483.578 78.3591C483.585 77.9163 483.561 77.4041 483.212 77.1379C482.653 76.7119 481.895 77.3024 481.49 77.8799C478.333 82.3818 477.901 89.8919 477.395 92.3038C476.889 94.7158 475.635 96.472 475.635 96.472C475.635 96.472 474.766 95.1782 474.699 94.3742C474.583 92.9825 473.856 91.2612 473.206 90.0298C472.555 88.7984 471.33 87.8555 470.507 88.0606C469.685 88.2657 470.301 91.7674 470.534 93.6187C471 97.3259 471.217 101.065 471.184 104.802C471.16 107.538 471.003 110.298 471.486 112.99C472.222 117.093 474.488 120.893 477.728 123.461" fill="#E89274"/>
<path d="M490.335 87.7637C490.335 87.7637 489.709 92.5448 488.886 94.9899C488.674 95.6186 487.313 97.4018 486.979 97.9728C486.618 98.5889 486.134 99.1198 485.683 99.6712C483.528 102.301 482.058 105.502 481.457 108.867" stroke="black" stroke-width="1.5" stroke-miterlimit="10"/>
<path d="M487.331 79.502C486.629 80.9119 486.445 82.5198 486.273 84.0891C485.897 87.506 485.527 90.9238 485.161 94.3421" stroke="black" stroke-width="1.5" stroke-miterlimit="10"/>
<path d="M483.242 81.9824C482.454 86.3184 481.664 90.6544 480.875 94.9904" stroke="black" stroke-width="1.5" stroke-miterlimit="10"/>
<path d="M475.665 96.4561C475.081 97.5364 474.525 98.6327 473.999 99.7438" stroke="black" stroke-width="1.5" stroke-miterlimit="10"/>
<path d="M473.512 118.619C475.107 120.523 476.037 122.894 476.94 125.218" stroke="black" stroke-width="1.5" stroke-miterlimit="10"/>
<path d="M424.133 78.9985C428.314 75.2219 432.908 71.9173 437.805 69.166" stroke="black" stroke-width="1.5" stroke-miterlimit="10"/>
<path d="M429.269 66.5586C432.479 64.4366 435.997 62.7973 439.675 61.71" stroke="black" stroke-width="1.5" stroke-miterlimit="10"/>
<path d="M207.179 455.669C207.179 455.669 212.554 354.324 215.489 324.242C218.129 297.177 212.554 255.012 212.554 255.012L167.738 265.314L174.594 322.82L170.979 462.379" fill="#E27769"/>
<path d="M208.719 449.812C211.597 465.949 237.141 468.104 238.421 476.989C238.421 476.989 210.424 476.989 203.444 476.989C196.465 476.989 190.625 468.01 183.362 468.01L181.067 476.989H167.241L170.309 449.812H208.719Z" fill="#19181E"/>
<path d="M252.626 455.669C252.626 455.669 258 354.324 260.935 324.242C263.576 297.177 258 255.012 258 255.012L213.185 265.314L220.041 322.82L216.426 462.379" fill="#E27769"/>
<path d="M254.166 449.812C257.044 465.949 282.588 468.104 283.867 476.989C283.867 476.989 255.87 476.989 248.891 476.989C241.912 476.989 236.071 468.01 228.809 468.01L226.514 476.989H212.688L215.756 449.812H254.166Z" fill="#19181E"/>
<path d="M179.466 175.498C179.466 175.498 165.91 193.226 163.777 225.126C161.645 257.026 165.753 308.119 165.753 308.119H264.27C264.27 308.119 264.27 238.92 258.112 207.704C253.654 185.103 245.374 175.497 245.374 175.497" fill="#5C1847"/>
<path d="M179.711 185.257C179.711 185.257 171.816 212.564 173.36 241.808C174.905 271.051 176.436 308.118 176.436 308.118" stroke="#776152" stroke-width="1.5" stroke-miterlimit="10"/>
<path d="M188.732 185.257C188.732 185.257 184.371 212.564 185.914 241.808C187.459 271.051 188.99 308.118 188.99 308.118" stroke="#776152" stroke-width="1.5" stroke-miterlimit="10"/>
<path d="M197.249 207.946C196.744 216.765 196.589 226.731 197.235 236.917C199.227 268.317 201.203 308.118 201.203 308.118" stroke="#776152" stroke-width="1.5" stroke-miterlimit="10"/>
<path d="M210.61 260.256C212.033 285.095 213.176 308.118 213.176 308.118" stroke="#776152" stroke-width="1.5" stroke-miterlimit="10"/>
<path d="M173.832 185.257H251.029" stroke="black" stroke-width="1.5" stroke-miterlimit="10"/>
<path d="M191.202 185.257L222.995 308.119" stroke="black" stroke-width="1.5" stroke-miterlimit="10"/>
<path d="M197.031 185.283C207.285 195.128 219.019 203.383 231.702 209.674" stroke="black" stroke-width="1.5" stroke-miterlimit="10"/>
<path d="M205.478 184.983C217.222 188.897 229.444 191.331 241.775 192.213" stroke="black" stroke-width="1.5" stroke-miterlimit="10"/>
<path d="M222.087 54.5985C222.523 51.9991 226.293 50.4792 228.453 51.6556C233.645 54.4847 230.33 64.1728 225.092 64.3569C223.609 64.4091 221.624 63.5193 221.357 61.7855" fill="#BF524F"/>
<path d="M228.197 56.1621L222.844 59.7813" stroke="black" stroke-width="1.5" stroke-miterlimit="10"/>
<path d="M224.982 51.75C223.73 52.2771 222.64 53.2135 221.9 54.3992" stroke="black" stroke-width="1.5" stroke-miterlimit="10"/>
<path d="M226.246 62.5088L229.465 71.9372L223.761 71.7284L226.246 62.5088Z" stroke="#FFC36C" stroke-width="1.5" stroke-miterlimit="10" stroke-linejoin="round"/>
<path d="M219.861 73.685L219.756 81.3717L237.606 83.7342C237.606 83.7342 239.303 98.2397 213.805 98.2397C188.307 98.2397 177.999 84.1155 177.999 84.1155L191.728 80.6259L194.041 67.542L193.599 60.6016" fill="#D08883"/>
<path d="M216.812 31.8673C220.714 33.6501 223.297 37.4916 224.803 41.5064C226.055 44.844 227.715 59.4595 227.848 62.8288C228.02 67.162 225.925 72.5602 221.654 74.8757C216.758 77.5301 211.936 75.971 206.739 72.68C199.436 68.056 193.194 60.1526 192.519 51.2839C192.414 49.9085 192.448 48.5214 192.627 47.1502C193.515 40.3542 198.302 34.0188 204.68 31.4241C208.167 30.0044 213.488 30.3493 216.812 31.8673Z" fill="#D08883"/>
<path d="M218.567 52.8223C218.339 54.8935 218.695 57.0277 219.584 58.907C219.809 59.3829 220.069 59.8485 220.19 60.3616C220.312 60.8748 220.273 61.4588 219.945 61.8685C219.762 62.0969 219.504 62.2525 219.24 62.3737C218.595 62.6701 217.871 62.7881 217.166 62.7121" stroke="black" stroke-width="1.5" stroke-miterlimit="10"/>
<path d="M213.974 63.7158L219.07 65.0129C218.364 67.3513 216.731 70.1893 214.574 69.0637C212.431 67.9451 213.131 65.4837 213.974 63.7158Z" fill="white"/>
<path d="M194.04 67.5431C193.924 67.5729 193.805 67.5142 193.7 67.4564C190.211 65.5501 187.552 63.2654 185.827 59.6528C182.823 53.3639 181.736 46.1937 184.791 39.696C187.371 34.2083 192.498 29.2515 198.292 27.4412C206.23 24.9607 212.514 25.1677 219.465 30.2652C224.467 33.9333 226.543 41.3007 225.854 45.9807C225.323 43.867 224.253 42.568 223.492 41.6223C221.909 39.6559 220.307 37.7575 217.905 36.865C215.608 36.0116 213.037 35.9566 210.685 36.6087C206.994 37.6322 204.392 39.909 202.499 43.2951C200.253 47.3104 200.819 52.4294 198.578 56.5118C198.16 57.2744 196.97 57.8523 196.689 58.6773C196.299 59.8262 196.716 60.7779 196.666 61.9175C196.58 63.9128 195.412 65.7636 194.293 67.3241C194.226 67.4163 194.15 67.5151 194.04 67.5431Z" fill="#2C221D"/>
<path d="M214.185 49.7147C213.14 48.6888 211.033 48.5392 209.251 49.0673C207.469 49.5954 205.976 50.6767 204.735 51.8345" stroke="black" stroke-width="1.5" stroke-miterlimit="10"/>
<path d="M225.97 49.8255C224.307 47.1124 221.359 48.5065 219.972 49.9303" stroke="black" stroke-width="1.5" stroke-miterlimit="10"/>
<path d="M209.602 54.5067C209.814 55.5624 210.537 56.3044 211.215 56.1637C211.893 56.0229 212.271 55.053 212.058 53.9973C211.845 52.9416 211.122 52.1996 210.444 52.3404C209.767 52.4807 209.389 53.4506 209.602 54.5067Z" fill="black"/>
<path d="M222.167 54.1962C222.38 55.2519 223.103 55.9939 223.781 55.8531C224.459 55.7124 224.837 54.7424 224.624 53.6868C224.411 52.6311 223.688 51.8891 223.01 52.0298C222.332 52.1701 221.954 53.14 222.167 54.1962Z" fill="black"/>
<path d="M202.808 56.8843C201.896 54.346 197.821 53.5197 195.858 55.1095C191.139 58.9318 196.241 68.075 201.554 67.2808C203.057 67.0562 204.896 65.7884 204.85 63.9907" fill="#D08883"/>
<path d="M196.934 59.6045L202.987 62.2505" stroke="black" stroke-width="1.5" stroke-miterlimit="10"/>
<path d="M199.373 54.5566C200.73 54.8535 201.998 55.5937 202.961 56.6503" stroke="black" stroke-width="1.5" stroke-miterlimit="10"/>
<path d="M195.494 64.2356C196.89 66.085 199.05 67.8063 201.417 67.4064C203.06 67.1286 204.608 65.8207 204.694 63.9639" stroke="black" stroke-width="1.5" stroke-miterlimit="10"/>
<path d="M200.996 65.6104L198.693 73.5039L204.029 74.8574L200.996 65.6104Z" stroke="#FFC36C" stroke-width="1.5" stroke-miterlimit="10" stroke-linejoin="round"/>
<path d="M219.897 75.9342C214.395 77.8624 208.458 74.7359 204.612 71.3955" stroke="black" stroke-width="1.5" stroke-miterlimit="10"/>
<path d="M182.372 43.8527C189.154 41.0073 192.378 33.1237 189.573 26.2441C186.768 19.3646 178.996 16.0943 172.214 18.9397C165.432 21.7851 162.208 29.6688 165.013 36.5483C167.818 43.4278 175.59 46.6982 182.372 43.8527Z" fill="#2C221D"/>
<path d="M190.762 31.1963C186.765 34.6267 183.967 39.2773 182.888 44.2849" stroke="#FFC36C" stroke-width="2" stroke-miterlimit="10" stroke-linecap="round" stroke-linejoin="round"/>
<path d="M249.782 123.955C249.871 113.278 242.657 103.293 242.657 103.293L229.549 82.4062C227.157 86.6858 223.964 89.9978 216.732 91.6851C208.37 93.6361 201.173 93.0241 193.305 90.2202C189.108 88.724 185.495 86.1182 182.423 82.8546C182.423 82.8546 173.501 84.223 168.762 88.2724C164.022 92.3222 177.999 111.273 177.999 111.273C178.292 131.469 182.57 155.545 179.466 175.497H245.374L241.813 144.153C241.813 144.153 249.729 130.303 249.782 123.955Z" fill="#FCDDD2"/>
<path d="M238.362 115.169L265.14 141.867L288.805 120.629C279.631 111.753 270.298 103.055 261.055 94.2567C257.717 91.0798 253.975 88.8403 249.843 86.8464C243.469 83.7707 234.16 82.9406 229.381 82.4219" fill="#FCDDD2"/>
<path d="M244.502 103.252C244.17 107.058 245.609 111.05 246.849 114.579C248.194 118.409 249.44 122.346 249.626 126.437" stroke="black" stroke-width="1.5" stroke-miterlimit="10"/>
<path d="M177.999 86.6855C182.388 91.675 188.603 95.0592 195.191 96.9138C201.778 98.7683 211.427 98.8503 218.303 97.2493" stroke="black" stroke-width="1.5" stroke-miterlimit="10"/>
<path d="M222.924 95.9926C228.545 93.9283 232.843 89.246 235.808 83.1748" stroke="black" stroke-width="1.5" stroke-miterlimit="10"/>
<path d="M212.072 140.278C214.036 138.316 215.872 136.223 217.564 134.016" stroke="black" stroke-width="1.5" stroke-miterlimit="10"/>
<path d="M213.199 159.472C219.131 158.299 224.92 156.384 230.394 153.785" stroke="black" stroke-width="1.5" stroke-miterlimit="10"/>
<path d="M222.995 160.296C227.604 160.073 232.199 159.518 236.731 158.637" stroke="black" stroke-width="1.5" stroke-miterlimit="10"/>
<path d="M144.296 125.933C140.208 134.116 136.255 139.772 139.15 149.34C140.745 154.61 143.24 159.127 146.469 165.662C153.769 180.437 167.789 201.452 167.789 201.452L178.957 183.391L166.497 145.341L178.957 119.685" fill="#E27769"/>
<path d="M176.35 178.834C179.413 183.263 183.212 187.429 184.469 192.687C185.32 196.242 184.913 199.98 184.237 203.574C183.884 205.453 183.458 207.317 183.102 209.196C182.924 210.133 182.762 211.074 182.637 212.02C182.579 212.45 182.661 214.285 182.22 214.444C181.265 214.788 180.321 213.458 180.03 212.735C179.355 211.065 179.35 209.188 179.616 207.404C179.683 206.951 179.721 206.386 179.338 206.143C178.882 205.854 178.326 206.315 178.012 206.758C176.017 209.556 175.374 212.26 174.305 215.539C173.659 217.52 172.816 221.365 171.806 223.183C170.947 224.727 169.348 226.231 168.135 225.053C167.89 224.891 166.785 225.826 166.685 224.958C166.371 222.228 167.221 219.469 166.854 216.758C166.765 216.102 166.555 212.76 166.517 212.099C166.305 208.366 166.189 206.923 165.825 202.984C165.591 200.451 164.891 198.094 164.218 195.666C163.53 193.185 162.733 190.728 161.67 188.385" fill="#E27769"/>
<path d="M178.42 206.654C179.311 205.607 180.185 204.552 181.042 203.491" stroke="black" stroke-width="1.5" stroke-miterlimit="10"/>
<path d="M171.54 207.651C169.385 215.455 169.092 219.285 168.283 225.192" stroke="black" stroke-width="1.5" stroke-miterlimit="10"/>
<path d="M168.019 206.466C168.4 208.259 168.106 210.119 167.912 211.942C167.66 214.311 167.044 218.697 167.044 218.697" stroke="black" stroke-width="1.5" stroke-miterlimit="10"/>
<path d="M166.332 145.025C164.538 143.031 162.419 141.34 160.087 140.041" stroke="black" stroke-width="1.5" stroke-miterlimit="10"/>
<path d="M180.414 110.414C180.414 110.414 190.091 123.488 193.307 131.286C197.471 141.387 201.385 151.995 198.338 160.296C193.689 172.962 166.95 189.55 159.639 203.842L149.182 180.445L168.415 151.53L166.527 144.925" fill="#D08883"/>
<path d="M159.639 166.603C156.686 170.098 153.822 173.679 151.047 177.322C149.333 179.572 147.653 181.852 146.064 184.194C142.672 189.195 139.951 195.04 140.127 201.241C140.196 203.67 140.639 206.067 141.115 208.442C141.569 210.706 142.166 213.003 141.985 215.334C141.927 216.068 141.685 217.68 142.519 218.094C142.861 218.264 143.272 218.101 143.592 217.89C144.763 217.118 145.425 215.746 145.759 214.37C146.067 213.105 146.326 211.657 146.359 210.354C146.382 209.402 146.378 208.261 147.405 207.787C149.075 212.534 150.759 217.354 151.1 222.383C151.317 225.577 150.985 228.794 151.271 231.982C151.348 232.843 151.481 233.731 151.944 234.456C152.246 234.929 152.896 235.541 153.502 235.525C154.648 235.495 154.735 232.799 154.928 231.966C155.406 229.906 155.884 227.846 156.363 225.786C157.667 220.168 157.911 214.427 158.573 208.672C159.214 203.097 163.322 197.963 165.71 193.452" fill="#D08883"/>
<path d="M147.166 207.947C146.372 206.722 145.578 205.496 144.73 204.309C143.95 203.217 142.958 202.208 142.369 200.99" stroke="black" stroke-width="1.5" stroke-miterlimit="10"/>
<path d="M168.126 151.88C172.67 147.089 180.901 142.428 187.453 142.244" stroke="black" stroke-width="1.5" stroke-miterlimit="10"/>
<path d="M154.838 230.97C155.182 227.187 155.525 223.399 155.586 219.601C155.62 217.413 155.566 215.184 156.181 213.086" stroke="black" stroke-width="1.5" stroke-miterlimit="10"/>
<path d="M173.807 85.3145C164.669 88.372 159.033 95.4625 154.839 102.273C149.823 110.416 143.484 125.395 140.591 130.445L169.912 142.532L184.95 115.404" fill="#FCDDD2"/>
<path d="M169.912 142.533L184.949 115.405" stroke="black" stroke-width="1.5" stroke-miterlimit="10"/>
<path d="M245.552 75.1709C252.785 76.9979 259.54 80.7378 264.967 85.9197" stroke="black" stroke-width="1.5" stroke-miterlimit="10"/>
<path d="M243.816 67.9814C248.669 69.3033 253.67 70.6992 257.611 73.8602" stroke="black" stroke-width="1.5" stroke-miterlimit="10"/>
<path d="M323.275 51.0488L321.755 70.1559L316.1 74.1722C316.1 74.1722 331.57 89.9836 337.687 89.6005C343.804 89.2174 361.475 72.4071 361.475 72.4071C361.475 72.4071 356.011 69.7327 355.852 69.2233C355.694 68.7139 354.179 52.7925 354.179 52.7925" fill="#D08883"/>
<path d="M323.198 38.3858C322.497 35.7827 319.14 34.8333 317.481 36.3956C313.492 40.1518 317.522 49.5774 321.938 48.9137C323.187 48.7259 324.737 47.4875 324.737 45.6604" fill="#D08883"/>
<path d="M318.276 40.9873L323.231 43.8388" stroke="black" stroke-width="1.5" stroke-miterlimit="10"/>
<path d="M320.403 35.9277C321.521 36.2661 322.555 37.0519 323.329 38.1509" stroke="black" stroke-width="1.5" stroke-miterlimit="10"/>
<path d="M354.851 38.128C355.552 35.5249 358.908 34.5755 360.567 36.1378C364.556 39.894 360.527 49.3196 356.111 48.6559C354.862 48.4681 353.312 47.2297 353.312 45.4026" fill="#D08883"/>
<path d="M359.772 40.7305L354.817 43.5815" stroke="black" stroke-width="1.5" stroke-miterlimit="10"/>
<path d="M356.281 32.7536C356.186 28.2806 354.237 23.8048 351.21 20.5772C347.73 16.8671 343.201 15.6157 338.254 16.1848C333.863 16.6896 329.441 18.4285 326.263 21.6184C324.131 23.7591 322.886 26.6172 322.409 29.5978C321.699 34.0298 322.039 38.5936 323.013 42.9567C324.585 50.0043 328.037 58.4115 336.362 58.6059C341.872 58.7345 348.508 57.3358 352.19 52.8176C354.261 50.2756 355.229 46.9799 355.667 43.7122C356.147 40.1299 356.357 36.3551 356.281 32.7536Z" fill="#D08883"/>
<path d="M338.612 32.7695C338.312 35.8629 338.011 38.9559 337.711 42.0493C337.594 43.2615 337.879 44.3018 339.28 44.7138C340.054 44.9418 340.897 44.8961 341.697 44.8402" stroke="black" stroke-width="1.5" stroke-miterlimit="10"/>
<path d="M362.026 12.4017C361.775 11.9137 361.492 11.4303 361.086 11.0649C359.78 9.88898 357.765 10.301 356.083 10.782C357.953 9.51985 358.683 6.88649 357.994 4.71873C357.304 2.55097 355.375 0.912205 353.211 0.304897C351.047 -0.302411 348.693 0.0406451 346.636 0.952306C345.132 1.61834 343.772 2.57056 342.422 3.51671C340.941 4.55468 339.461 5.59263 337.98 6.6306C338.591 5.4295 337.688 3.86906 336.435 3.41276C335.181 2.95693 333.775 3.34051 332.585 3.94828C331.288 4.61106 330.126 5.54184 329.182 6.66044C328.455 7.52177 328.068 8.57279 327.435 9.49936C326.768 10.4758 325.955 11.3502 325.032 12.0801C323.586 13.2224 321.901 13.998 320.306 14.9134C318.379 16.0203 316.686 17.4368 315.586 19.4148C313.576 23.0307 313.952 27.5755 315.335 31.4827C316.546 34.9014 318.719 35.9734 320.373 39.1992C321.092 46.5018 322.51 58.936 326.041 62.2498C327.147 63.2887 328.29 63.7618 329.248 63.9604C330.591 64.2391 331.855 64.8431 332.824 65.827C333.877 66.8953 335.7 68.0293 338.699 68.0293C341.127 68.0293 342.85 67.099 344.025 66.0358C345.524 64.6805 347.425 63.8196 349.432 63.8765C350.772 63.9147 352.309 63.5036 353.588 61.9515C355.858 59.1965 357.207 48.3279 357.713 39.037C357.925 35.1386 359.081 31.3251 361.211 28.0733C362.102 26.7128 362.785 25.2129 363.211 23.6371C364.216 19.9186 363.784 15.8209 362.026 12.4017ZM353.781 49.7066C352.055 52.6597 348.956 54.7799 345.551 55.0903C344.787 55.1597 343.986 55.1309 343.295 54.82C342.423 54.428 342.45 53.2092 341.516 52.9729C340.864 52.8079 340.18 52.7832 339.51 52.8149C338.829 52.8471 337.853 52.7072 337.415 53.3611C337.065 53.8836 336.724 54.483 336.18 54.8242C335.555 55.2166 334.708 55.1546 334.005 55.0903C330.703 54.7892 327.795 52.7408 325.969 50.1689C324.143 47.5971 323.589 43.6773 323.034 40.6408C322.848 39.6219 322.487 36.8291 322.249 34.3663C323.623 33.0566 324.595 31.2725 325.254 29.4548C326.182 26.8969 327.559 24.0775 327.544 21.6194C332.875 23.7853 339.333 22.7804 343.779 19.0927C345.21 20.8187 346.855 22.12 348.497 23.6007C350.014 24.9687 353.039 26.394 355.064 26.786C356.932 38.1537 355.95 45.9942 353.781 49.7066Z" fill="#2C221D"/>
<path d="M338.234 48.3903C338.722 49.8221 341.087 49.9876 342.171 49.3294C343.267 48.6643 343.477 47.3887 343.39 46.1787" stroke="black" stroke-width="1.5" stroke-miterlimit="10"/>
<path d="M330.09 44.2809C333.854 44.2809 336.906 41.1854 336.906 37.367C336.906 33.5486 333.854 30.4531 330.09 30.4531C326.326 30.4531 323.275 33.5486 323.275 37.367C323.275 41.1854 326.326 44.2809 330.09 44.2809Z" stroke="#FCDDD2" stroke-width="2" stroke-miterlimit="10"/>
<path d="M348.513 44.2809C352.277 44.2809 355.329 41.1854 355.329 37.367C355.329 33.5486 352.277 30.4531 348.513 30.4531C344.749 30.4531 341.697 33.5486 341.697 37.367C341.697 41.1854 344.749 44.2809 348.513 44.2809Z" stroke="#FCDDD2" stroke-width="2" stroke-miterlimit="10"/>
<path d="M336.582 35.2598H341.697" stroke="#FCDDD2" stroke-width="2" stroke-miterlimit="10"/>
<path d="M344.036 29.3986C345.458 26.8953 351.132 27.2998 352.99 30.4548" stroke="black" stroke-width="1.5" stroke-miterlimit="10"/>
<path d="M348.21 35.9263C348.21 36.9116 347.648 37.7109 346.955 37.7109C346.262 37.7109 345.7 36.912 345.7 35.9263C345.7 34.9405 346.262 34.1416 346.955 34.1416C347.648 34.1416 348.21 34.941 348.21 35.9263Z" fill="black"/>
<path d="M334.779 29.3986C333.357 26.8953 327.683 27.2998 325.825 30.4548" stroke="black" stroke-width="1.5" stroke-miterlimit="10"/>
<path d="M330.605 35.9263C330.605 36.9116 331.167 37.7109 331.86 37.7109C332.553 37.7109 333.115 36.912 333.115 35.9263C333.115 34.9405 332.553 34.1416 331.86 34.1416C331.167 34.1421 330.605 34.941 330.605 35.9263Z" fill="black"/>
<path d="M330.131 441.907L328.616 467.032C328.616 467.032 294.86 467.032 294.601 467.032C294.343 467.032 296.116 438.996 296.116 438.996" fill="#E27769"/>
<path d="M293.275 460.884C293.332 460.836 293.393 460.793 293.459 460.758C293.714 460.618 294.005 460.598 294.288 460.581C297.207 460.401 300.129 460.222 303.051 460.312C304.074 460.344 305.312 460.574 305.691 461.659C305.9 462.257 305.019 465.877 306.652 465.877C308.286 465.877 329.338 465.347 329.338 465.347L330.131 484H315.906L315.831 479.504C315.831 479.504 307.283 484 303.834 484C300.385 484 270.237 484 270.237 484C270.237 484 271.512 476.985 276.246 473.1C279.214 470.665 282.609 469.038 285.87 467.2C287.394 466.342 288.913 465.444 290.31 464.335C290.939 463.836 291.532 463.291 292.089 462.69C292.557 462.184 292.758 461.315 293.275 460.884Z" fill="#1E1611"/>
<path d="M288.196 466.198L295.085 468.414" stroke="#56453C" stroke-miterlimit="10"/>
<path d="M283.939 468.413L292.264 471.362" stroke="#56453C" stroke-miterlimit="10"/>
<path d="M353.223 441.907L354.737 467.032C354.737 467.032 388.493 467.032 388.752 467.032C389.011 467.032 387.238 438.996 387.238 438.996" fill="#E27769"/>
<path d="M390.079 460.884C390.021 460.836 389.961 460.793 389.895 460.758C389.639 460.618 389.348 460.598 389.065 460.581C386.147 460.401 383.225 460.222 380.303 460.312C379.279 460.344 378.041 460.574 377.662 461.659C377.453 462.257 378.335 465.877 376.701 465.877C375.068 465.877 354.016 465.347 354.016 465.347L353.222 484H367.447L367.522 479.504C367.522 479.504 376.07 484 379.519 484C382.969 484 413.117 484 413.117 484C413.117 484 411.842 476.985 407.108 473.1C404.14 470.665 400.745 469.038 397.484 467.2C395.96 466.342 394.441 465.444 393.044 464.335C392.415 463.836 391.822 463.291 391.265 462.69C390.796 462.184 390.595 461.315 390.079 460.884Z" fill="#1E1611"/>
<path d="M395.158 466.198L388.269 468.414" stroke="#56453C" stroke-miterlimit="10"/>
<path d="M399.414 468.413L391.09 471.362" stroke="#56453C" stroke-miterlimit="10"/>
<path d="M303.099 186.189L301.393 203.708C301.393 203.708 294.128 226.02 295.261 272.863C296.393 319.706 293.869 457.429 293.869 457.429H330.127L341.587 257.896L353.047 457.429H389.306C389.306 457.429 386.782 319.706 387.914 272.863C389.047 226.02 381.782 203.708 381.782 203.708L380.076 186.189" fill="#030C38"/>
<path d="M381.783 203.708H301.393" stroke="black" stroke-width="1.5" stroke-miterlimit="10"/>
<path d="M345.377 203.292V192.373" stroke="black" stroke-width="1.5" stroke-miterlimit="10"/>
<path d="M363.34 203.292V192.373" stroke="black" stroke-width="1.5" stroke-miterlimit="10"/>
<path d="M366.45 203.292V192.373" stroke="black" stroke-width="1.5" stroke-miterlimit="10"/>
<path d="M317.586 203.292V192.373" stroke="black" stroke-width="1.5" stroke-miterlimit="10"/>
<path d="M320.695 203.292V192.373" stroke="black" stroke-width="1.5" stroke-miterlimit="10"/>
<path d="M342.117 199.813C342.117 200.688 341.418 201.397 340.557 201.397C339.695 201.397 338.996 200.688 338.996 199.813C338.996 198.939 339.695 198.23 340.557 198.23C341.418 198.23 342.117 198.939 342.117 199.813Z" stroke="black" stroke-width="1.5" stroke-miterlimit="10"/>
<path d="M341.587 257.896V203.844" stroke="black" stroke-width="1.5" stroke-miterlimit="10"/>
<path d="M334.235 203.844C334.235 204.266 334.58 225.858 335.041 226.558C335.501 227.258 341.588 228.192 341.588 228.192" stroke="black" stroke-width="1.5" stroke-miterlimit="10"/>
<path d="M359.575 203.844C359.575 203.844 361.534 211.427 363.34 212.407C365.146 213.387 384.511 218.844 384.511 218.844" stroke="black" stroke-width="1.5" stroke-miterlimit="10"/>
<path d="M322.717 203.844C322.717 203.844 320.791 211.367 319.016 212.339C317.24 213.311 298.204 218.724 298.204 218.724" stroke="black" stroke-width="1.5" stroke-miterlimit="10"/>
<path d="M295.373 85.2437C294.589 97.4099 295.432 109.616 296.275 121.778C297.981 146.376 299.687 170.974 301.392 195.571H381.429C381.429 195.571 384.799 118.158 391.923 98.0559C398.304 80.0492 359.772 69.1592 359.772 69.1592L339.362 84.1293L316.099 71.2733L295.373 85.2437Z" fill="#8790F9"/>
<path d="M303.577 172.206C307.032 177.821 310.559 183.627 311.631 190.156C312.126 193.168 312.107 195.433 312.059 198.486C312 202.175 311.634 204.794 311.307 208.472C311.225 209.399 311.396 214.026 309.97 213.9C309.548 213.862 309.231 213.503 308.981 213.155C307.991 211.782 307.307 210.184 306.993 208.512C306.55 213.695 306.108 218.877 305.665 224.06C305.532 225.611 305.381 227.224 304.592 228.559C304.081 229.425 302.927 229.428 302.02 229.664C301.811 229.718 301.597 229.775 301.421 229.899C301.194 230.059 301.053 230.311 300.916 230.552C300.497 231.285 299.639 232.652 298.663 231.862C298.234 231.514 298.059 230.943 297.906 230.408C297.549 229.153 297.191 227.898 296.834 226.644C296.766 226.407 296.698 226.167 296.575 225.955C296.164 225.246 295.366 224.861 294.969 224.136C294.625 223.507 294.316 222.76 294.072 222.086C293.436 220.332 293.378 218.432 293.032 216.611C292.963 216.245 292.878 215.874 292.689 215.555C292.532 215.291 292.309 215.074 292.129 214.826C291.718 214.26 291.543 213.557 291.387 212.872C290.613 209.452 290.185 205.815 289.443 202.331C288.667 198.691 287.289 195.353 285.833 191.951" fill="#D08883"/>
<path d="M307.112 209.715C307.628 206.578 308.411 203.486 309.449 200.485" stroke="black" stroke-width="1.5" stroke-miterlimit="10"/>
<path d="M301.612 205.43C300.693 213.458 300.735 221.6 301.734 229.619" stroke="black" stroke-width="1.5" stroke-miterlimit="10"/>
<path d="M295.271 207.163C295.156 214.851 296.002 222.554 297.782 230.028" stroke="black" stroke-width="1.5" stroke-miterlimit="10"/>
<path d="M292.384 206.753C292.099 210.219 292.857 214.159 293.869 217.522" stroke="black" stroke-width="1.5" stroke-miterlimit="10"/>
<path d="M338.996 84.1289L338.421 195.571" stroke="black" stroke-width="1.5" stroke-miterlimit="10"/>
<path d="M343.019 94.2777C343.809 94.2777 344.45 93.6277 344.45 92.8259C344.45 92.024 343.809 91.374 343.019 91.374C342.228 91.374 341.587 92.024 341.587 92.8259C341.587 93.6277 342.228 94.2777 343.019 94.2777Z" stroke="black" stroke-width="1.5" stroke-miterlimit="10"/>
<path d="M344.45 116.623C344.45 117.425 343.809 118.075 343.019 118.075C342.229 118.075 341.588 117.424 341.588 116.623C341.588 115.821 342.229 115.171 343.019 115.171C343.809 115.171 344.45 115.821 344.45 116.623Z" stroke="black" stroke-width="1.5" stroke-miterlimit="10"/>
<path d="M343.019 141.868C343.809 141.868 344.45 141.218 344.45 140.416C344.45 139.614 343.809 138.964 343.019 138.964C342.228 138.964 341.587 139.614 341.587 140.416C341.587 141.218 342.228 141.868 343.019 141.868Z" stroke="black" stroke-width="1.5" stroke-miterlimit="10"/>
<path d="M343.019 165.662C343.809 165.662 344.45 165.012 344.45 164.211C344.45 163.409 343.809 162.759 343.019 162.759C342.228 162.759 341.587 163.409 341.587 164.211C341.587 165.012 342.228 165.662 343.019 165.662Z" stroke="black" stroke-width="1.5" stroke-miterlimit="10"/>
<path d="M343.019 189.456C343.809 189.456 344.45 188.806 344.45 188.005C344.45 187.203 343.809 186.553 343.019 186.553C342.228 186.553 341.587 187.203 341.587 188.005C341.587 188.806 342.228 189.456 343.019 189.456Z" stroke="black" stroke-width="1.5" stroke-miterlimit="10"/>
<path d="M384.511 124.252L386.147 101.676" stroke="black" stroke-width="1.5" stroke-miterlimit="10"/>
<path d="M316.213 69.8389C307.379 70.4713 298.187 71.2124 290.551 75.7618C285.543 78.7452 281.552 83.1758 277.728 87.6102C270.171 96.3744 262.712 105.248 255.924 114.646C249.771 123.164 243.902 131.926 245.704 143.04C247.065 151.432 252.144 157.971 257.114 164.516C266.034 176.261 287.246 200.425 288.122 201.451L307.112 176.093L280.793 139.85L303.099 112.687" fill="#8790F9"/>
<path d="M296.521 120.697L293.096 103.894" stroke="black" stroke-width="1.5" stroke-miterlimit="10"/>
<path d="M270.889 136.529C274.669 136.69 278.573 137.525 281.549 139.895" stroke="black" stroke-width="1.5" stroke-miterlimit="10"/>
<path d="M271.021 131.287C273.563 131.814 275.964 133.023 277.915 134.758" stroke="black" stroke-width="1.5" stroke-miterlimit="10"/>
<path d="M299.296 165.329L307.112 176.093L288.122 201.45" stroke="black" stroke-width="1.5" stroke-miterlimit="10"/>
<path d="M281.549 193.882L301.343 168.149" stroke="black" stroke-width="1.5" stroke-miterlimit="10"/>
<path d="M304.124 180.279L293.096 165.662" stroke="black" stroke-width="1.5" stroke-miterlimit="10"/>
<path d="M300.389 178.825C300.389 179.627 299.748 180.277 298.957 180.277C298.167 180.277 297.526 179.627 297.526 178.825C297.526 178.023 298.167 177.373 298.957 177.373C299.748 177.373 300.389 178.023 300.389 178.825Z" stroke="black" stroke-width="1.5" stroke-miterlimit="10"/>
<path d="M379.413 181.92C375.958 187.138 372.431 192.532 371.359 198.599C370.864 201.398 370.883 203.502 370.932 206.339C370.99 209.767 371.356 212.2 371.683 215.618C371.765 216.48 371.594 220.779 373.02 220.661C373.443 220.626 373.76 220.292 374.009 219.97C374.999 218.694 375.683 217.208 375.997 215.655C376.44 220.471 376.883 225.286 377.325 230.102C377.458 231.543 377.609 233.041 378.398 234.283C378.909 235.087 380.063 235.09 380.97 235.309C381.179 235.359 381.393 235.412 381.569 235.528C381.796 235.676 381.937 235.911 382.074 236.135C382.493 236.816 383.351 238.085 384.327 237.352C384.756 237.029 384.931 236.498 385.084 236.001C385.441 234.835 385.799 233.669 386.156 232.503C386.224 232.283 386.292 232.06 386.415 231.863C386.826 231.205 387.624 230.847 388.021 230.173C388.365 229.589 388.674 228.894 388.918 228.269C389.555 226.638 389.612 224.873 389.958 223.181C390.028 222.841 390.112 222.496 390.302 222.2C390.459 221.955 390.681 221.753 390.862 221.522C391.273 220.996 391.448 220.343 391.603 219.707C392.377 216.529 392.805 213.15 393.548 209.912C394.324 206.53 395.701 203.428 397.158 200.267" fill="#D08883"/>
<path d="M375.878 216.773C375.362 213.858 374.579 210.985 373.541 208.196" stroke="black" stroke-width="1.5" stroke-miterlimit="10"/>
<path d="M381.378 212.79C382.297 220.25 382.255 227.815 381.256 235.266" stroke="black" stroke-width="1.5" stroke-miterlimit="10"/>
<path d="M387.719 214.401C387.834 221.545 386.988 228.702 385.208 235.647" stroke="black" stroke-width="1.5" stroke-miterlimit="10"/>
<path d="M390.606 214.021C390.891 217.241 390.133 220.903 389.121 224.027" stroke="black" stroke-width="1.5" stroke-miterlimit="10"/>
<path d="M357.295 68.6572C357.295 68.6572 368.379 70.9541 372.913 71.7539C385.659 74.0018 396.793 82.5726 406.791 90.4243C414.936 96.8204 422.581 103.872 429.629 111.492C436.363 118.772 443.528 126.804 446.631 136.474C449.296 144.779 446.469 152.954 441.642 159.798C437.22 166.068 431.505 171.597 426.066 176.95C416.92 185.953 398.113 205.1 398.113 205.1L377.778 183.39L410.048 137.856L365.265 114" fill="#8790F9"/>
<path d="M417.81 141.246C422.399 140.452 427.077 140.191 431.724 140.471" stroke="black" stroke-width="1.5" stroke-miterlimit="10"/>
<path d="M418.807 137.446C420.747 136.069 423.048 135.283 425.379 134.859C427.711 134.435 430.088 134.355 432.456 134.28" stroke="black" stroke-width="1.5" stroke-miterlimit="10"/>
<path d="M383.405 175.451L405.115 197.833" stroke="black" stroke-width="1.5" stroke-miterlimit="10"/>
<path d="M382.546 188.481L396.796 171.096" stroke="black" stroke-width="1.5" stroke-miterlimit="10"/>
<path d="M389.121 188.004C389.912 188.004 390.553 187.354 390.553 186.552C390.553 185.751 389.912 185.101 389.121 185.101C388.331 185.101 387.69 185.751 387.69 186.552C387.69 187.354 388.331 188.004 389.121 188.004Z" stroke="black" stroke-width="1.5" stroke-miterlimit="10"/>
<path d="M321.866 63.7334L313.145 70.3285L322.249 95.5781L338.996 84.1288L321.866 63.7334Z" fill="#8790F9"/>
<path d="M355.754 64.9658L364.834 70.2969L355.328 95.5796L339.362 84.1303L355.754 64.9658Z" fill="#8790F9"/>
<path d="M364.834 70.2959L355.328 95.5786L339.362 84.1293L322.249 95.5786L313.145 70.329" stroke="black" stroke-width="1.5" stroke-miterlimit="10"/>
<path d="M375.22 111.66H354.449V113.944H375.22V111.66Z" stroke="black" stroke-width="1.5" stroke-miterlimit="10"/>
<path d="M386.812 125.479C386.812 125.479 388.883 108.593 389.671 105.26" stroke="black" stroke-width="1.5" stroke-miterlimit="10"/>
<path d="M293.096 124.868L280.793 139.85C280.026 139.602 249.783 178.054 249.783 178.054L265.044 188.481C265.044 188.481 297.297 158.187 301.734 151.992C306.171 145.797 301.403 132.978 293.096 124.868Z" fill="#E27769"/>
<path d="M281.982 138.183C285.331 135.489 289.234 133.507 293.367 132.402" stroke="black" stroke-width="1.5" stroke-miterlimit="10"/>
<path d="M255.33 171.467C251.673 175.405 247.324 178.976 245.337 183.997C243.993 187.391 243.868 191.15 244.029 194.805C244.114 196.716 244.271 198.623 244.359 200.534C244.402 201.487 244.429 202.442 244.421 203.396C244.417 203.831 244.076 205.635 244.491 205.856C245.387 206.335 246.509 205.155 246.9 204.482C247.803 202.927 248.074 201.071 248.062 199.266C248.06 198.809 248.102 198.244 248.515 198.059C249.007 197.839 249.492 198.377 249.741 198.86C251.32 201.92 251.575 204.689 252.17 208.089C252.53 210.144 252.82 214.072 253.564 216.017C254.195 217.67 255.565 219.391 256.932 218.402C257.198 218.278 258.159 219.363 258.381 218.519C259.078 215.863 258.626 213.009 259.372 210.379C259.553 209.743 260.233 206.466 260.364 205.818C261.101 202.153 261.42 200.743 262.337 196.896C262.926 194.424 263.952 192.194 264.961 189.888C265.992 187.533 267.128 185.217 268.511 183.052" fill="#E27769"/>
<path d="M249.351 198.7C248.617 197.535 247.901 196.364 247.203 195.189" stroke="black" stroke-width="1.5" stroke-miterlimit="10"/>
<path d="M256.019 200.686C257.05 208.722 256.8 212.555 256.765 218.518" stroke="black" stroke-width="1.5" stroke-miterlimit="10"/>
<path d="M259.671 200.024C259.041 201.744 259.069 203.627 259.004 205.46C258.919 207.842 258.909 212.272 258.909 212.272" stroke="black" stroke-width="1.5" stroke-miterlimit="10"/>
<path d="M439.17 162.996C443.01 167.334 447.604 171.295 449.617 176.755C450.979 180.448 451.018 184.501 450.752 188.434C450.612 190.49 450.394 192.54 450.251 194.597C450.18 195.622 450.127 196.65 450.112 197.679C450.106 198.147 450.427 200.1 449.974 200.327C448.996 200.82 447.818 199.52 447.414 198.784C446.48 197.086 446.235 195.079 446.293 193.135C446.308 192.642 446.276 192.032 445.836 191.822C445.312 191.573 444.776 192.139 444.495 192.653C442.717 195.909 442.372 198.885 441.645 202.533C441.205 204.737 440.792 208.96 439.942 211.037C439.22 212.801 437.7 214.62 436.252 213.519C435.97 213.377 434.906 214.522 434.689 213.607C434.006 210.727 434.564 207.664 433.828 204.811C433.649 204.121 433 200.574 432.875 199.871C432.174 195.904 431.867 194.377 430.976 190.209C430.404 187.53 429.356 185.1 428.327 182.59C427.276 180.026 426.111 177.502 424.676 175.133" fill="#E89274"/>
<path d="M427.38 146.147C421.9 142.647 399.574 132.275 399.574 132.275C398.029 140.962 401.68 150.435 406.611 157.507C415.143 169.743 425.861 179.966 435.528 191.236L446.631 172.568C446.631 172.568 432.861 149.647 427.38 146.147Z" fill="#E89274"/>
<path d="M444.92 192.491C445.74 191.254 446.541 190.012 447.323 188.765" stroke="black" stroke-width="1.5" stroke-miterlimit="10"/>
<path d="M437.686 194.456C436.372 203.087 436.544 207.223 436.43 213.648" stroke="black" stroke-width="1.5" stroke-miterlimit="10"/>
<path d="M433.768 193.648C434.403 195.517 434.325 197.545 434.349 199.522C434.38 202.09 434.278 206.863 434.278 206.863" stroke="black" stroke-width="1.5" stroke-miterlimit="10"/>
<path d="M371.896 20.0781C372.329 22.3079 371.88 24.6401 371.02 26.7389C370.16 28.8377 368.905 30.7412 367.658 32.6298" stroke="black" stroke-width="1.5" stroke-miterlimit="10"/>
<path d="M376.465 30.4424C374.387 33.5707 371.936 36.4432 369.181 38.9778" stroke="black" stroke-width="1.5" stroke-miterlimit="10"/>
<path d="M693.109 49.8096C691.744 57.8752 689.458 65.78 686.31 73.3147" stroke="black" stroke-width="1.5" stroke-miterlimit="10"/>
<path d="M701.741 43.9033C700.879 49.9056 699.31 56.0965 696.879 61.5614" stroke="black" stroke-width="1.5" stroke-miterlimit="10"/>
</svg>
