<svg width="928" height="579" viewBox="0 0 928 579" fill="none" xmlns="http://www.w3.org/2000/svg">
<path d="M489.187 93.9441C430.72 79.3831 388.15 93.534 339.525 111.305C315.556 120.064 291.293 129.327 266.035 132.851C247.182 135.481 228.136 136.179 209.213 138.171C189.538 140.241 169.872 142.854 150.563 147.451C118.034 155.196 61.3786 169.466 64.8545 215.85C66.2462 234.425 78.2181 251.308 77.0095 269.897C75.4596 293.721 54.4741 312.175 40.7261 329.008C21.7483 352.244 4.68127 378.03 7.81162 410.332C10.3356 436.387 26.3134 459.283 46.0127 475.116C65.712 490.95 89.0245 500.777 111.994 510.48C146.98 525.258 176.566 542.566 204.088 570.045C220.032 585.964 237.007 601.736 257.671 609.451C285.437 619.819 320.835 610.797 332.143 579.655C338.306 562.676 340.039 542.911 349.6 527.488C359.447 511.599 380.211 498.23 398.528 500.802C428.361 504.991 439.995 528.433 454.215 553.088C461.16 565.129 469.404 576.219 481.067 583.448C501.075 595.847 521.065 591.012 542.158 585.981C564.947 580.547 587.97 576.154 611.168 573.216C650.527 568.234 690.126 570.465 729.346 575.704C766.587 580.68 820.659 606.613 851.373 571.419C864.829 556 867.509 534.89 862.608 515.193C855.585 486.969 840.473 455.635 841.289 426.32C842.494 383.043 860.911 354.237 883.421 320.421C894.201 304.229 902.506 286.236 902.117 265.978C901.225 219.367 873.636 183.581 844.872 151.444C816.17 119.379 787.496 82.8426 758.456 54.4099" stroke="#768DEF" stroke-width="1.5" stroke-miterlimit="10"/>
<path d="M907.264 141.536C907.264 148.308 902.081 153.797 895.687 153.797C889.293 153.797 884.111 148.308 884.111 141.536C884.111 134.764 889.295 129.275 895.687 129.275C902.081 129.275 907.264 134.764 907.264 141.536Z" stroke="#193DD6" stroke-width="1.5" stroke-miterlimit="10"/>
<path d="M519.693 556.673C519.693 563.445 514.51 568.934 508.117 568.934C501.723 568.934 496.54 563.445 496.54 556.673C496.54 549.901 501.724 544.412 508.117 544.412C514.51 544.412 519.693 549.901 519.693 556.673Z" stroke="#ED725A" stroke-width="1.5" stroke-miterlimit="10"/>
<path d="M145.363 21.0954H479.259C484.902 21.0954 489.544 25.9671 489.543 32.0153V214.223C489.543 220.272 484.902 225.144 479.259 225.144H145.363C139.72 225.144 135.08 220.272 135.08 214.223V32.0153C135.08 25.9669 139.72 21.0954 145.363 21.0954ZM145.363 22.2995C140.255 22.2995 136.161 26.6776 136.161 32.0153V214.223C136.161 219.561 140.253 223.939 145.363 223.939H479.259C484.367 223.939 488.46 219.563 488.46 214.223V32.0153C488.46 26.6776 484.369 22.2995 479.259 22.2995H145.363Z" fill="white" stroke="black"/>
<path d="M487.462 47.8762V214.224C487.462 219.066 483.763 222.94 479.26 222.94H145.362C140.859 222.94 137.161 219.064 137.161 214.224V47.8762H487.462Z" fill="#AFB9E8" stroke="black"/>
<path d="M157.096 35.8074C157.096 38.7201 154.866 41.0818 152.116 41.0818C149.366 41.0818 147.136 38.7201 147.136 35.8074C147.136 32.8946 149.366 30.5329 152.116 30.5329C154.866 30.5329 157.096 32.8946 157.096 35.8074Z" stroke="black" stroke-width="1.5" stroke-miterlimit="10"/>
<path d="M176.399 35.8074C176.399 38.7201 174.17 41.0818 171.419 41.0818C168.669 41.0818 166.44 38.7201 166.44 35.8074C166.44 32.8946 168.669 30.5329 171.419 30.5329C174.17 30.5329 176.399 32.8946 176.399 35.8074Z" stroke="black" stroke-width="1.5" stroke-miterlimit="10"/>
<path d="M136.661 47.3762H487.962" stroke="black" stroke-width="1.5" stroke-miterlimit="10"/>
<path d="M459.718 197.884C456.186 192.924 450.157 188.36 445.45 191.775C441.501 194.641 441.354 201.112 441.661 206.49C430.463 189.702 417.139 174.81 402.247 162.436C394.177 155.731 384.902 149.534 374.989 150.342C365.077 151.15 359.934 165.883 362.54 176.969C335.474 139.01 305.289 112.085 273.854 88.7872C263.125 80.8366 251.22 73.1696 238.492 68.6372C224.953 63.8154 206.252 58.1647 194.019 69.3603C188.778 74.1571 186.047 81.4758 185.304 88.7696C184.384 97.7974 185.825 107.331 188.148 116.03C193.704 136.838 202.615 156.457 212.951 174.939C223.291 193.427 246.034 223.788 246.034 223.788H470.483C468.764 214.322 465.037 205.351 459.718 197.884Z" fill="#909DF4"/>
<path d="M341.688 186.598C341.688 186.598 298.597 147.016 280.115 140.305C261.632 133.593 223.654 144.374 223.179 144.374C222.701 144.374 189.182 223.445 189.182 223.445H326.656L341.688 186.598Z" fill="#EF9748"/>
<path d="M423.549 294.06C426.691 297.533 429.958 300.88 433.338 304.094C436.599 307.194 440.17 309.96 443.351 313.133C444.135 313.917 444.851 314.773 445.564 315.629C448.164 318.744 450.787 321.894 452.681 325.537C452.933 326.022 453.179 326.524 453.558 326.905C453.938 327.286 454.489 327.527 454.989 327.368C455.51 327.203 455.84 326.667 456.061 326.141C456.976 323.957 456.749 321.423 456.188 319.109C455.829 317.618 455.338 316.169 454.945 314.69C454.619 313.464 454.143 312.144 454.318 310.873C463.549 314.957 471.059 322.359 479.476 328.085C481.199 329.258 484.997 329.694 485.637 328.081C486.483 325.945 474.202 316.308 468.577 309.937C472.817 312.232 477.315 314.635 481.144 317.655C483.797 319.748 486.693 321.534 489.858 322.599C491.634 323.197 495.712 324.083 494.881 320.647C494.635 319.633 493.913 318.837 493.206 318.108C487.707 312.454 481.07 308.46 475.292 303.128C481.797 305.845 487.767 310.714 494.754 310.97C495.436 310.995 496.171 310.955 496.708 310.511C497.525 309.837 497.799 308.898 497.267 307.956C496.734 307.014 495.817 306.405 494.933 305.832C488.449 301.63 481.693 296.988 475.209 292.786C478.696 293.789 481.921 295.598 485.261 297.056C488.602 298.513 492.205 299.641 495.791 299.167C496.945 299.015 498.379 298.228 498.116 297.029C497.99 296.449 497.491 296.059 497.026 295.724C489.144 290.018 481.263 284.311 473.383 278.606C471.173 277.006 468.961 275.404 466.694 273.893C463.964 272.074 460.813 270.723 458.278 268.676C456.298 267.078 453.907 265.892 451.784 264.511C446.539 261.098 441.459 257.418 436.533 253.508" fill="#FFCAA3"/>
<path d="M454.491 310.842C452.01 309.686 449.491 308.621 446.939 307.652" stroke="black" stroke-miterlimit="10"/>
<path d="M468.947 309.919C465.581 307.48 462.094 305.227 458.504 303.175" stroke="black" stroke-miterlimit="10"/>
<path d="M475.31 302.987C472.545 301.131 469.781 299.275 467.015 297.419" stroke="black" stroke-miterlimit="10"/>
<path d="M478.356 294.604C476.297 293.404 474.315 292.055 472.428 290.57" stroke="black" stroke-miterlimit="10"/>
<path d="M290.037 141.536C307.058 147.203 315.6 147.72 330.827 157.727C347.009 168.36 387.039 213.033 387.039 213.033C387.039 213.033 441.056 253.368 461.3 268.62L424.933 305.333C384.709 279.864 343.421 249.459 312.929 211.766" fill="#EF9748"/>
<path d="M228.276 215.777C228.276 215.777 245.158 206.188 252.587 204.208C262.877 201.467 275.082 200.693 278.354 201.748C279.886 202.242 285.651 204.75 288.667 208.488C291.871 209.972 293.173 210.716 295.075 211.564C296.978 212.411 297.871 214.783 299.864 216.591C301.855 218.399 304.042 223.434 304.042 223.434C304.042 223.434 288.851 223.488 284.584 223.638C280.316 223.788 275.708 232.417 266.16 235.474" fill="#FFCAA3"/>
<path d="M263.056 134.423C251.345 134.323 239.94 131.092 228.253 131.084C207.024 131.071 194.84 142.866 184.514 159.216C176.695 171.596 169.333 186.831 163.792 200.424C157.326 216.29 150.083 233.957 148.196 251.284C147.333 259.21 148.408 267.396 151.867 274.44C158.268 287.471 172.491 289.747 180.787 290.723C189.083 291.7 203.621 288.732 210.74 284.055C248.214 259.445 272.992 234.78 272.992 234.78L232.678 212.893L213.338 220.909L237.762 173.087" fill="#EF9748"/>
<path d="M235.779 176.97L213.339 220.912" stroke="black" stroke-miterlimit="10"/>
<path d="M232.679 212.896C221.119 217.648 209.558 222.398 197.998 227.149C190.106 230.392 182.369 236.81 176.082 242.777" stroke="black" stroke-miterlimit="10"/>
<path d="M218.828 218.865L260.594 246.085" stroke="black" stroke-miterlimit="10"/>
<path d="M331.09 197.567C325.56 207.249 317.903 223.435 317.903 223.435" stroke="black" stroke-miterlimit="10"/>
<path d="M446.554 257.546L406.036 293.29" stroke="black" stroke-miterlimit="10"/>
<path d="M287.106 213.071C290.044 213.897 293.033 214.522 296.047 214.941C296.978 215.07 297.947 215.193 298.736 215.733" stroke="black" stroke-miterlimit="10"/>
<path d="M289.7 209.325C289.178 209.047 288.629 208.834 288.079 208.621C285.171 207.49 282.176 206.342 279.079 206.427" stroke="black" stroke-miterlimit="10"/>
<path d="M280.262 225.431C281.834 224.232 283.776 223.688 285.702 223.476C289.701 223.037 293.982 223.949 297.82 222.356" stroke="black" stroke-miterlimit="10"/>
<path d="M130.078 254.356C130.726 271.104 140.817 287.058 155.193 294.066" stroke="black" stroke-miterlimit="10"/>
<path d="M118.886 253.628C119.214 264.556 123.474 275.146 130.078 281.45" stroke="black" stroke-miterlimit="10"/>
<path d="M346.278 147.619C358.608 158.672 370.061 170.824 380.474 183.904" stroke="black" stroke-miterlimit="10"/>
<path d="M346.551 134.514C355.15 141.277 363.031 149.064 369.997 157.68" stroke="black" stroke-miterlimit="10"/>
<path d="M246.995 156.713C240.479 154.234 234.441 150.545 228.483 146.811C225.956 145.226 223.403 143.604 221.364 141.366C219.324 139.127 217.824 136.166 217.882 133.056C217.936 130.191 219.291 127.517 220.974 125.272C226.224 118.268 234.711 114.632 243.119 113.824C251.528 113.015 259.964 114.735 268.183 116.789C280.536 119.877 293.148 123.982 302.679 132.859C305.361 135.359 307.789 138.256 309.288 141.692C311.357 146.437 311.51 151.918 310.626 157.06C309.742 162.202 307.88 167.088 306.03 171.934" fill="#EF9748"/>
<path d="M280.414 105.021L263.802 110.147L264.174 118.992L255.766 134.187C255.766 134.187 275.642 142.34 283.116 158.966C291.257 160.247 294.516 153.258 294.516 153.258L302.52 132.946" fill="#FFCAA3"/>
<path d="M319.503 122.677C320.935 113.954 322.66 104.518 322.525 97.5725C322.412 91.6925 321.562 82.8131 317.977 78.2073C313.362 72.2759 304.957 72.1804 297.903 71.3471C286.32 69.9804 278.315 81.0936 274.886 91.475C272.253 99.4507 272.469 107.235 274.908 115.456C278.097 126.201 289.403 140.632 304.114 138.861C311.92 137.922 317.987 131.913 319.503 122.677Z" fill="#FFCAA3"/>
<path d="M305.288 103.617C305.146 104.915 304.272 105.874 303.334 105.76C302.396 105.645 301.751 104.5 301.892 103.201C302.034 101.903 302.909 100.944 303.846 101.058C304.784 101.173 305.429 102.318 305.288 103.617Z" fill="black"/>
<path d="M321.318 105.228C321.177 106.525 320.301 107.485 319.365 107.37C318.427 107.256 317.781 106.111 317.923 104.812C318.064 103.514 318.94 102.555 319.877 102.669C320.815 102.785 321.46 103.93 321.318 105.228Z" fill="black"/>
<path d="M314.211 102.353C313.855 105.359 314.147 108.412 314.153 111.428C314.157 113.294 314.22 116.582 311.93 117.005C310.429 117.283 307.158 116.335 307.158 116.335" stroke="black" stroke-miterlimit="10"/>
<path d="M308.439 121.665L302.433 116.31C302.433 116.31 298.024 122.415 300.301 124.627C303.981 128.202 308.439 121.665 308.439 121.665Z" fill="white"/>
<path d="M318.189 80.0649C320.838 84.4547 322.301 87.9862 322.413 101.155C323.681 100.82 324.966 100.478 326.105 99.8004C327.245 99.123 328.241 98.0575 328.575 96.7201C329.195 94.2423 327.453 91.791 327.357 89.2295C327.288 87.3792 328.087 85.6142 329.036 84.0579C329.766 82.8601 330.621 81.6668 330.795 80.253C331.042 78.2617 329.864 76.3688 328.46 75.0183C325.324 72.0041 321.121 70.8034 317.519 68.5916C315.774 67.5203 314.845 65.8464 313.225 64.5884C311.394 63.1673 309.438 61.9298 307.39 60.8952C302.665 58.5056 297.481 57.2153 292.256 56.9802C282.129 56.5216 272.125 60.5264 265.065 68.0185C255.732 77.9252 251.986 96.8186 257.841 107.76C261.142 113.926 264.173 118.994 264.173 118.994C264.547 119.624 272.623 111.945 273.118 110.902C273.619 109.844 273.808 108.658 274.115 107.519C275.159 103.638 278.803 102.987 281.927 101.774C286.482 100.008 288.76 95.712 289.643 90.8637C290.151 88.0773 290.226 85.2233 290.299 82.3869C290.284 83.0218 293.965 84.3915 294.516 84.5723C299.947 86.3461 306.084 86.6591 311.597 85.0881C313.225 84.6252 314.959 84.0314 316.245 82.8543C316.598 82.5324 318.775 80.6969 318.189 80.0649Z" fill="#1E1611"/>
<path d="M284.254 131.071C284.544 131.294 290.31 137.965 301.342 139.008" stroke="black" stroke-miterlimit="10"/>
<path d="M295.569 94.3834C296.55 92.348 298.514 90.8784 300.655 90.5815C302.794 90.2847 305.049 91.1679 306.493 92.8668" stroke="black" stroke-miterlimit="10"/>
<path d="M315.961 94.6612C316.689 92.9373 318.232 91.8365 319.58 92.0805C320.927 92.3245 321.944 93.9087 322.027 95.756" stroke="black" stroke-miterlimit="10"/>
<path d="M311.061 106.96C309.659 111.378 305.221 113.725 301.151 112.203C297.082 110.68 294.92 105.863 296.323 101.445C297.725 97.0273 302.163 94.6803 306.233 96.2028C310.302 97.7253 312.464 102.543 311.061 106.96Z" stroke="#572A2F" stroke-miterlimit="10"/>
<path d="M326.018 109.025C325.263 113.627 322.463 116.933 319.763 116.412C317.063 115.89 315.485 111.737 316.238 107.137C316.993 102.535 319.793 99.2287 322.494 99.7504C325.195 100.272 326.773 104.424 326.018 109.025Z" stroke="#572A2F" stroke-miterlimit="10"/>
<path d="M316.953 104.697L311.469 103.61" stroke="#572A2F" stroke-miterlimit="10"/>
<path d="M296.633 100.615L280.114 101.95" stroke="#572A2F" stroke-miterlimit="10"/>
<path d="M284.836 105.103C284.755 100.861 279.35 97.5357 275.795 98.8878C267.248 102.139 270.127 118.351 278.069 119.906C280.316 120.346 283.542 119.41 284.337 116.714" fill="#FFCAA3"/>
<path d="M275.175 106.118L282.521 113.167" stroke="black" stroke-miterlimit="10"/>
<path d="M281.064 99.8738C282.852 101.014 284.304 102.766 285.167 104.832" stroke="black" stroke-miterlimit="10"/>
<path d="M270.905 112.26C272.007 115.727 274.256 119.396 277.817 120.021C280.288 120.454 283.119 119.308 284.13 116.592" stroke="black" stroke-miterlimit="10"/>
<path d="M252.043 88.3933C252.209 82.6882 252.8 76.9405 254.553 71.5426C256.305 66.1447 259.291 61.0848 263.6 57.6562C265.985 55.7589 268.711 54.401 271.47 53.2003C273.793 52.1892 276.165 51.278 278.623 50.724C287.829 48.6489 297.365 51.7336 305.988 55.728" fill="#FFC36C"/>
<path d="M310.112 56.5099C307.839 54.1894 304.899 52.6904 301.841 51.86C300.018 51.3648 298.132 51.0958 296.253 51.1943C295.276 51.2457 294.305 51.3971 293.345 51.597C286.672 52.9872 280.657 56.6951 274.874 60.4852C267.15 65.5466 259.441 70.9945 253.777 78.513C251.732 81.2274 249.922 84.3592 249.739 87.826C249.638 89.7468 250.047 91.6617 250.641 93.4811C251.643 96.5482 253.998 100.923 255.969 103.408C272.955 86.5798 292.032 73.2665 314.059 65.357C313.943 62.0166 312.385 58.8304 310.112 56.5099Z" fill="#FFC36C"/>
<path d="M253.143 79.3845C253.143 79.3845 267.482 58.2117 294.097 51.1752" stroke="black" stroke-miterlimit="10"/>
<path d="M260.594 81.777C262.694 85.6216 264.846 89.5352 267.972 92.4964" stroke="black" stroke-miterlimit="10"/>
<path d="M277.349 65.8581C279.523 70.7108 282.222 75.318 285.38 79.5638" stroke="black" stroke-miterlimit="10"/>
<path d="M295.122 55.7427C298.788 59.7445 301.923 64.2915 304.404 69.2103" stroke="black" stroke-miterlimit="10"/>
<path d="M301.254 53.4531C304.404 57.5621 307.165 62.4412 309.221 67.1999" stroke="black" stroke-miterlimit="10"/>
<path d="M252.258 84.1475C253.287 90.2479 256.658 95.418 260.959 99.0906" stroke="black" stroke-miterlimit="10"/>
<path d="M242.45 128.543C250.569 131.756 258.77 135.01 265.993 140.081C273.218 145.151 280.534 152.276 283.114 161.039" stroke="black" stroke-miterlimit="10"/>
<path d="M288.738 158.371C292.435 156.492 295.437 153.127 296.998 149.112" stroke="black" stroke-miterlimit="10"/>
<path d="M217.879 132.131C221.634 154.968 250.079 150.599 263.329 157.68" stroke="black" stroke-miterlimit="10"/>
<path d="M311.111 148.723C310.592 151.859 309.568 154.986 307.604 157.396C304.651 161.016 300.061 162.515 295.723 163.846" stroke="black" stroke-miterlimit="10"/>
<path d="M299.649 158.371C301.622 172.733 303.618 188.828 302.987 203.326" stroke="black" stroke-miterlimit="10"/>
<path d="M269.507 155.071C271.564 161.039 270.597 177.221 270.374 191.819" stroke="black" stroke-miterlimit="10"/>
<path d="M415.378 343.024V564.066C415.378 568.908 411.679 572.782 407.177 572.782H98.2543C93.7508 572.782 90.0531 568.907 90.0531 564.066V343.024H415.378Z" fill="#B8BEF5" stroke="black"/>
<path d="M98.255 310.954H407.177C412.82 310.954 417.459 315.826 417.458 321.874V564.067C417.458 570.115 412.818 574.987 407.175 574.987H98.255C92.6121 574.987 87.9719 570.115 87.9718 564.067V321.874C87.972 315.826 92.6122 310.954 98.255 310.954ZM98.255 312.158C93.1472 312.158 89.0531 316.535 89.0528 321.874V564.067C89.0529 569.404 93.1456 573.782 98.255 573.782H407.177C412.285 573.782 416.378 569.406 416.378 564.067V321.874C416.378 316.537 412.286 312.158 407.177 312.158H98.255Z" fill="white" stroke="black"/>
<path d="M114.386 328.466C114.386 332.006 111.676 334.876 108.335 334.876C104.993 334.876 102.284 332.006 102.284 328.466C102.284 324.926 104.994 322.057 108.335 322.057C111.676 322.057 114.386 324.927 114.386 328.466Z" stroke="black" stroke-width="1.5" stroke-miterlimit="10"/>
<path d="M131.792 334.875C135.134 334.875 137.843 332.005 137.843 328.466C137.843 324.926 135.134 322.057 131.792 322.057C128.45 322.057 125.741 324.926 125.741 328.466C125.741 332.005 128.45 334.875 131.792 334.875Z" stroke="black" stroke-width="1.5" stroke-miterlimit="10"/>
<path d="M89.5531 342.524H415.878" stroke="black" stroke-width="1.5" stroke-miterlimit="10"/>
<path d="M384.522 573.282C380.14 561.838 374.171 551.12 366.879 541.608C362.403 535.767 357.201 530.215 350.633 527.646C344.066 525.076 335.87 526.202 331.404 532.052C327.988 536.527 327.339 542.708 326.83 548.506C316.012 536.208 305.056 523.786 291.862 514.664C278.667 505.542 262.655 499.053 247.376 502.601C230.434 506.535 230.434 529.214 230.434 529.214C230.434 529.214 220.048 513.795 219.11 512.345C212.164 501.584 204.306 491.729 195.943 482.264C187.73 472.971 179.92 463.196 170.667 455.082C161.447 446.998 146.484 436.674 134.091 441.566C127.645 444.112 125.868 450.036 127.299 456.866C128.637 463.259 129.342 469.665 131.218 475.958C120.796 463.655 108.935 452.325 95.1852 444.667C85.2641 439.141 64.5644 429.778 54.2673 438.828C51.2979 441.438 49.9492 445.762 49.8618 449.921C49.322 475.378 66.6402 502.735 80.5936 521.543C94.9091 540.84 112.18 557.934 130.064 573.282H384.522Z" fill="#3665E4"/>
<path d="M321.819 458.27C319.968 469.091 320.518 480.277 320.568 491.333C320.618 502.391 321.458 509.624 317.681 519.66C314.272 528.724 307.151 531.802 303.434 540.679C301.541 545.199 294.363 573.262 294.363 573.262H197.965C197.965 573.262 195.262 529.15 210.127 491.505C224.992 453.86 243.574 447.108 243.574 447.108L298.418 432.125L321.819 458.27Z" fill="#5C1847"/>
<path d="M448.111 392.46C450.971 388.807 454.971 386.514 458.396 383.543C461.553 380.805 463.911 376.965 466.53 373.648C469.732 369.59 472.222 364.974 474.999 360.596C477.98 355.898 481.8 352.097 485.582 348.143C486.107 347.593 486.644 347.027 486.942 346.313C487.482 345.023 486.853 343.327 485.455 342.927C482.721 342.146 479.806 342.887 477.154 343.938C475.58 344.563 470.239 346.566 469.914 343.381C469.548 339.782 472.392 334.527 473.483 331.19C474.9 326.851 476.351 322.501 477.501 318.07C478.596 313.849 478.348 305.738 476.229 305.606C474.109 305.474 475.709 306.818 475.156 307.136C476.042 305.901 474.492 303.052 473.221 302.201C471.95 301.35 470.296 304.105 469.915 305.591C470.348 304.141 469.145 301.744 468.127 301.644C466.645 301.498 465.493 302.986 464.609 304.198C463.726 305.41 462.94 306.765 461.69 307.577C461.7 306.536 461.553 305.493 461.254 304.493C460.289 303.914 459.178 304.873 458.481 305.746C444.273 323.512 434.66 345.541 418.9 362.645" fill="#E27769"/>
<path d="M470.248 340.94C470.298 345.314 470.193 349.689 469.933 354.055" stroke="black" stroke-miterlimit="10"/>
<path d="M474.704 306.094C473.463 310.222 471.069 313.711 469.269 317.551C466.404 323.663 463.843 329.925 461.185 336.139" stroke="black" stroke-miterlimit="10"/>
<path d="M469.813 305.283C468.946 307.214 467.956 309.083 466.853 310.873C465.671 312.792 464.361 314.619 463.096 316.477C459.477 321.788 456.215 327.371 453.34 333.17" stroke="black" stroke-miterlimit="10"/>
<path d="M461.199 308.237C460.241 310.4 458.679 312.182 457.204 313.99C452.583 319.651 448.605 325.898 445.382 332.557" stroke="black" stroke-miterlimit="10"/>
<path d="M270.751 437.979C287.999 430.334 299.296 422.307 316.372 414.161C331.768 406.817 353.374 400.793 368.555 392.954C389.549 382.114 409.234 370.141 426.492 353.74L457.842 388.698C457.842 388.698 413.539 436.567 398.072 445.897C360.797 468.384 347.22 472.594 308.474 494.057" fill="#5C1847"/>
<path d="M320.129 488.046C320.348 479.79 322.126 471.583 325.328 464.051" stroke="black" stroke-miterlimit="10"/>
<path d="M416.028 362.931L447.121 399.892" stroke="black" stroke-miterlimit="10"/>
<path d="M265.734 539.319C278.882 539.578 291.975 541.777 303.374 549.113C308.848 552.636 311.898 557.349 313.406 563.89C314.68 569.413 315.092 575.319 314.623 580.985C314.579 581.522 314.186 582.018 313.749 582.129C313.132 582.288 311.89 581.636 311.89 581.636C311.89 581.636 313.011 587.253 311.823 588.421C310.996 589.235 309.435 588.128 308.848 587.451C308.164 586.662 307.23 584.645 307.23 584.645C307.23 584.645 308.014 587.868 307.352 588.424C306.37 589.247 303.53 587.16 302.858 585.048C302.445 586.247 301.77 587.36 300.725 587.066C297.44 586.141 294.869 581.218 292.164 578.777C288.57 575.532 283.75 575.312 279.267 575.384C277.203 575.416 275.135 575.471 273.077 575.255C270.969 575.033 269.071 574.157 267.015 573.716C263.188 572.896 259.196 572.521 255.313 572.282" fill="#E27769"/>
<path d="M290.015 568.327C293.624 569.915 297.448 571.685 299.479 574.961C300.087 575.941 300.505 577.017 300.878 578.098C301.663 580.379 302.263 582.714 302.861 585.047" stroke="black" stroke-miterlimit="10"/>
<path d="M295.193 561.419C297.245 562.801 299.257 564.275 300.997 566.074C302.737 567.873 304.204 570.015 304.996 572.449C305.449 573.841 305.675 575.301 305.902 576.753C306.37 579.744 306.854 582.732 307.352 585.717" stroke="black" stroke-miterlimit="10"/>
<path d="M302.241 556.673C305.658 559.371 308.335 563.111 309.863 567.326C311.214 571.053 311.665 575.066 312.106 579.033C312.246 580.289 312.385 581.546 312.525 582.802" stroke="black" stroke-miterlimit="10"/>
<path d="M251.253 440.652C251.253 440.652 224.042 444.915 213.599 451.269C197.273 461.202 190.096 476.362 179.692 502.072C169.288 527.781 165.069 539.064 164.967 547.582C164.817 560.122 170.147 573.265 191.925 573.265C230.72 573.265 261.377 573.265 261.377 573.265L275.39 538.596L221.347 529.64L236.26 492.66" fill="#5C1847"/>
<path d="M275.388 538.596L221.346 529.64L236.259 492.66" stroke="black" stroke-miterlimit="10"/>
<path d="M202.153 534.931C202.569 534.931 210.794 529.502 221.347 529.64" stroke="black" stroke-miterlimit="10"/>
<path d="M260.48 536.126L245.656 573.265" stroke="black" stroke-miterlimit="10"/>
<path d="M293.446 449.482C294.161 445.571 294.136 441.397 293.543 437.203" stroke="black" stroke-miterlimit="10"/>
<path d="M235.854 448.494C238.852 456.424 245.485 462.999 252.731 466.363C261.854 470.597 274.228 471.38 282.948 465.725C287.009 463.09 289.804 459.626 291.566 455.67" stroke="black" stroke-miterlimit="10"/>
<path d="M389.338 463.361C405.585 454.594 420.44 442.945 433.096 429.042" stroke="black" stroke-miterlimit="10"/>
<path d="M419.644 455.043C427.52 448.582 434.904 441.45 441.703 433.739" stroke="black" stroke-miterlimit="10"/>
<path d="M159.072 525.952C155.635 537.823 154.394 550.403 155.443 562.77" stroke="black" stroke-miterlimit="10"/>
<path d="M148.222 527.723C146.053 534.384 144.813 541.386 144.556 548.428" stroke="black" stroke-miterlimit="10"/>
<path d="M260.36 405.209L245.478 415.773L248.69 427.039L244.215 444.022C243.93 445.105 244.103 446.257 244.694 447.19C247.125 451.025 254.669 460.552 269.622 460.538C285.426 460.521 285.204 449.418 285.204 449.418L288.082 425.769" fill="#E27769"/>
<path d="M290.295 403.801C286.203 395.726 283.865 390.729 279.566 385.161C275.927 380.446 269.881 373.784 264.181 372.457C256.842 370.745 249.936 376.353 243.685 380.448C233.422 387.17 233.601 401.641 237.067 412.421C239.729 420.702 245.235 423.862 252.181 428.911C261.259 435.51 280.99 438.495 289.461 431.264C295.798 425.857 294.628 412.355 290.295 403.801Z" fill="#E27769"/>
<path d="M268.359 403.09C268.845 404.342 268.506 405.675 267.601 406.069C266.698 406.463 265.571 405.768 265.086 404.516C264.6 403.265 264.939 401.931 265.843 401.537C266.747 401.143 267.873 401.838 268.359 403.09Z" fill="black"/>
<path d="M282.931 394.587C283.417 395.838 283.078 397.172 282.175 397.566C281.272 397.96 280.145 397.263 279.659 396.012C279.174 394.76 279.512 393.427 280.417 393.034C281.319 392.64 282.446 393.335 282.931 394.587Z" fill="black"/>
<path d="M275.128 400.026C276.759 401.566 278.726 402.602 280.694 403.565C281.914 404.161 285.981 405.309 285.074 407.405C284.491 408.751 282.113 410.878 282.113 410.878" stroke="black" stroke-miterlimit="10"/>
<path d="M245.352 439.709C245.352 439.709 247.21 434.674 247.662 432.873C248.424 429.833 246.008 429.677 245.176 426.999C244.741 425.605 245.098 423.895 245.391 422.514C246.018 419.55 247.46 416.221 246.168 413.229C245.35 411.335 243.594 410.134 242.188 408.678C240.781 407.221 239.636 405.001 240.479 403.118C241.475 400.89 244.418 400.724 246.223 399.168C248.027 397.613 248.449 394.87 248.325 392.41C248.202 389.95 247.666 387.472 248.073 385.048C248.146 384.611 248.26 384.158 248.552 383.84C249.433 382.873 250.902 383.809 252.008 384.467C253.996 385.652 256.401 385.505 258.481 384.613C259.536 384.16 260.503 383.331 260.883 382.195C261.119 381.494 261.116 380.731 261.231 379.996C261.346 379.262 261.62 378.492 262.219 378.102C262.655 377.82 263.193 377.785 263.702 377.808C265.308 377.885 266.888 378.48 268.179 379.497C269.26 380.349 269.866 380.966 271.229 380.912C272.537 380.859 273.796 380.401 275.103 380.803C276.679 381.29 277.732 382.82 278.662 384.253C281.22 388.197 283.779 392.141 286.338 396.086C287.617 394.13 288.916 392.131 289.546 389.847C290.174 387.564 290.029 384.905 288.613 383.058C287.249 381.278 284.921 380.48 283.762 378.543C282.482 376.403 282.68 373.311 282.541 370.888C282.39 368.242 281.621 365.572 280.195 363.338C278.814 361.177 276.494 359.497 274.037 359.695C272.615 359.81 271.262 360.533 269.837 360.487C268.956 360.459 268.108 360.139 267.299 359.77C263.551 358.067 260.303 355.302 256.569 353.567C252.835 351.831 248.151 351.304 244.929 353.952C243.276 355.31 242.18 357.367 240.382 358.497C235.196 361.757 227.756 355.617 222.815 359.275C219.626 361.635 219.528 366.746 216.843 369.728C213.41 373.54 207.166 372.538 203.271 375.814C199.342 379.119 199.326 385.709 201.684 390.401C202.849 392.72 204.546 395.109 204.044 397.68C203.73 399.282 202.613 400.545 201.664 401.836C200.309 403.685 199.206 405.819 198.935 408.143C198.664 410.466 199.337 412.995 201.027 414.503C202.078 415.441 203.678 415.885 204.473 417.098C205.368 418.465 205.619 420.915 205.795 422.526C205.95 423.941 205.967 425.387 206.371 426.747C207.474 430.457 211.341 432.668 215.014 432.669C216.708 432.669 218.568 432.333 219.961 433.352C221.115 434.196 221.586 435.723 222.285 437.01C224.561 441.196 230.097 442.955 234.172 440.787C235.704 439.973 237.119 438.665 238.833 438.637C240.536 438.612 243.739 440.005 245.352 439.709Z" fill="#2C221D"/>
<path d="M269.283 435.072C273.87 436.283 282.562 436.537 289.15 432.128" stroke="black" stroke-miterlimit="10"/>
<path d="M256.878 402.712C256.864 397.839 259.903 393.166 264.865 394.087" stroke="black" stroke-miterlimit="10"/>
<path d="M273.981 390.572C273.826 389.183 274.811 387.559 276.295 386.761C277.778 385.963 279.622 386.084 280.658 386.979" stroke="black" stroke-miterlimit="10"/>
<path d="M253.396 416.796C250.772 413.395 244.362 414.34 242.28 417.846C237.275 426.278 249.399 437.542 256.809 433.436C258.906 432.275 260.969 429.329 259.992 426.595" fill="#E27769"/>
<path d="M246.134 424.159L256.372 424.933" stroke="black" stroke-miterlimit="10"/>
<path d="M247.168 415.087C249.313 414.804 251.553 415.253 253.501 416.352" stroke="black" stroke-miterlimit="10"/>
<path d="M246.359 432.052C249.348 434.133 253.394 435.601 256.672 433.701C258.946 432.383 260.561 429.533 259.748 426.636" stroke="black" stroke-miterlimit="10"/>
<path d="M276.723 411.679C276.063 414.289 276.879 417.719 279.707 418.258C281.827 418.664 284.122 417.281 284.807 415.107" stroke="black" stroke-miterlimit="10"/>
<path d="M850.924 92.3954V253.825C850.924 258.667 847.225 262.543 842.723 262.543H533.434C528.93 262.543 525.233 258.668 525.233 253.827V92.3954H850.924Z" fill="#B2D8EB" stroke="black"/>
<path d="M533.435 65.6146H842.723C848.365 65.6146 853.005 70.4878 853.004 76.5364V253.826C853.004 259.874 848.364 264.745 842.722 264.745H533.435C527.792 264.745 523.151 259.874 523.151 253.826V76.5355C523.151 70.4868 527.792 65.6146 533.435 65.6146ZM842.723 66.8187L533.435 66.8206C528.327 66.8206 524.232 71.1969 524.232 76.5364V253.826C524.232 259.163 528.325 263.541 533.435 263.541H842.723C847.83 263.541 851.924 259.165 851.924 253.826V76.5355C851.924 71.1976 847.832 66.8187 842.723 66.8187Z" fill="white" stroke="black"/>
<path d="M540.188 73.3492C543.778 73.3493 546.749 76.4529 546.749 80.3277C546.749 84.2027 543.778 87.3071 540.188 87.3072C536.597 87.3072 533.626 84.2028 533.626 80.3277C533.626 76.4528 536.597 73.3492 540.188 73.3492ZM540.188 74.5533C537.135 74.5533 534.707 77.1664 534.707 80.3277C534.707 83.4892 537.135 86.1021 540.188 86.1021C543.24 86.102 545.667 83.4891 545.667 80.3277C545.667 77.1665 543.24 74.5534 540.188 74.5533Z" fill="white" stroke="black"/>
<path d="M559.491 73.3492C563.082 73.3493 566.053 76.4529 566.053 80.3277C566.053 84.2027 563.082 87.3071 559.491 87.3072C555.901 87.3072 552.93 84.2028 552.93 80.3277C552.93 76.4528 555.901 73.3492 559.491 73.3492ZM559.491 74.5533C556.439 74.5533 554.011 77.1664 554.011 80.3277C554.011 83.4892 556.438 86.1021 559.491 86.1021C562.544 86.102 564.971 83.4891 564.971 80.3277C564.971 77.1665 562.544 74.5534 559.491 74.5533Z" fill="white" stroke="black"/>
<path d="M524.733 91.8954H851.424" stroke="black" stroke-width="1.5" stroke-miterlimit="10"/>
<path d="M806.817 232.444C800.7 221.622 794.213 210.392 784.167 203.791C774.121 197.189 759.412 196.939 751.912 206.702C745.264 215.355 746.499 227.972 748.092 239.066C740.695 229.064 732.031 220.148 722.414 212.642C714.992 206.85 706.808 201.816 697.794 200.001C688.436 198.115 677.76 200.193 670.083 206.323C659.604 214.688 659.765 227.859 660.793 240.563C648.075 215.03 633.94 189.7 614.36 169.291C609.292 164.01 603.337 159.436 596.488 157.412C592.56 156.253 588.126 156.027 584.605 158.205C579.252 161.513 577.835 168.98 577.682 175.543C577.498 183.461 578.359 191.406 580.235 199.075C576.818 195.186 572.31 192.307 567.384 191.309C556.05 189.011 544.865 198.09 544.218 210.413C543.547 223.232 550.912 235.47 556.537 246.238C558.681 250.341 560.884 254.429 563.311 258.355C563.784 259.12 565.59 262.927 566.686 262.927C566.691 262.927 823.025 262.927 823.025 262.927C817.623 253.362 812.22 242.004 806.817 232.444Z" fill="#456176"/>
<mask id="mask0_42_3760" style="mask-type:luminance" maskUnits="userSpaceOnUse" x="524" y="67" width="328" height="197">
<path d="M842.723 263.043H533.434C528.628 263.043 524.733 258.916 524.733 253.827V76.5364C524.733 71.4457 528.629 67.3204 533.434 67.3204H842.721C847.528 67.3204 851.423 71.4471 851.423 76.5364V253.827C851.424 258.916 847.528 263.043 842.723 263.043Z" fill="white"/>
</mask>
<g mask="url(#mask0_42_3760)">
<path d="M829.247 250.907L743.512 76.8744L719.147 75.3563L700.016 91.8954L650.796 129.798L706.126 301.542L829.247 250.907Z" fill="white"/>
<path d="M668.168 127.293C672.952 131.515 679.616 133.234 685.697 131.816" stroke="black" stroke-miterlimit="10"/>
<path d="M691.693 129.798C697.684 127.664 703 123.457 706.63 117.975C710.26 112.494 712.184 105.767 712.037 99.073" stroke="black" stroke-miterlimit="10"/>
<path d="M805.852 186.202C791.019 156.24 746.505 61.8138 734.76 66.4636C721.284 71.7984 706.126 85.554 706.126 85.554C706.126 85.554 713.388 110.169 713.941 112.502C715.96 121.013 718.037 129.506 720.174 137.984C725.494 159.089 730.234 180.506 736.804 201.225C743.477 222.268 750.87 243.066 758.841 263.595C762.037 271.825 764.604 281.47 770.684 287.912C774.132 291.631 778.957 294.225 783.861 293.768C787.246 293.452 790.357 291.749 793.368 290.079C806.615 282.731 843.538 265.209 843.538 265.209C843.538 265.209 824.561 223.994 805.852 186.202Z" fill="#4C4139"/>
<path d="M730.217 301.363C726.612 287.455 720.441 274.656 715.87 261.137C709.891 243.45 704.578 225.518 698.409 207.901C688.998 181.029 675.654 143.87 665.439 117.33C665.439 117.33 646.711 128.709 642.934 131.468C639.157 134.228 639.977 140.793 639.977 140.793C654.884 199.673 700.032 333.398 700.032 333.398C705.377 330.406 718.634 322.518 723.979 319.526C731.024 315.585 732.243 309.177 730.217 301.363Z" fill="#4C4139"/>
<path d="M646.651 128.993C663.965 157.164 677.445 180.103 695.491 207.756" stroke="black" stroke-miterlimit="10"/>
<path d="M729.63 73.5751C733.223 110.946 735.412 148.467 736.196 186.022" stroke="black" stroke-miterlimit="10"/>
</g>
<path d="M549.906 273.066C546.294 275.983 542.58 278.756 538.773 281.379C535.101 283.91 531.17 286.059 527.563 288.674C526.674 289.32 525.843 290.05 525.013 290.778C521.989 293.432 518.941 296.114 516.539 299.404C516.22 299.842 515.904 300.299 515.473 300.612C515.043 300.927 514.463 301.074 513.992 300.836C513.502 300.587 513.253 300.004 513.112 299.448C512.525 297.141 513.119 294.675 514.01 292.479C514.583 291.066 515.278 289.715 515.881 288.316C516.382 287.158 517.044 285.932 517.057 284.648C507.341 287.175 498.844 293.261 489.693 297.544C487.819 298.421 484.004 298.233 483.605 296.533C483.079 294.285 496.618 286.768 503.103 281.393C498.58 282.968 493.784 284.607 489.563 286.965C486.637 288.6 483.516 289.89 480.233 290.426C478.392 290.726 474.234 290.938 475.555 287.678C475.945 286.717 476.773 286.047 477.58 285.443C483.837 280.755 490.976 277.893 497.462 273.57C490.639 275.192 484.033 279.028 477.091 278.139C476.415 278.052 475.693 277.893 475.227 277.367C474.518 276.566 474.384 275.595 475.047 274.75C475.71 273.906 476.705 273.455 477.662 273.033C484.681 269.941 492.032 266.458 499.05 263.366C495.459 263.786 492.01 265.047 488.496 265.942C484.983 266.837 481.258 267.362 477.784 266.308C476.666 265.969 475.365 264.958 475.799 263.816C476.008 263.263 476.559 262.961 477.066 262.703C485.684 258.353 494.302 254.003 502.919 249.652C505.336 248.432 507.754 247.211 510.215 246.088C515.555 243.651 520.719 240.865 526.075 238.434C531.698 235.883 537.351 233.409 543.035 231.011" fill="#D16159"/>
<path d="M516.887 284.59C519.507 283.853 522.152 283.213 524.815 282.673" stroke="black" stroke-miterlimit="10"/>
<path d="M502.74 281.318C506.421 279.457 510.195 277.801 514.04 276.359" stroke="black" stroke-miterlimit="10"/>
<path d="M497.463 273.429C500.464 272.047 503.467 270.664 506.468 269.283" stroke="black" stroke-miterlimit="10"/>
<path d="M495.673 264.649C497.882 263.798 500.037 262.79 502.117 261.632" stroke="black" stroke-miterlimit="10"/>
<path d="M642.935 131.468C636.519 135.994 630.174 141.05 626.103 145.739C619.574 153.261 581.187 202.537 581.187 202.537C581.187 202.537 541.866 227.653 519.331 241.523L543.971 284.041C543.971 284.041 589.656 266.645 612.954 249.311C634.133 233.553 674.677 181.924 674.677 181.924" fill="#4C4139"/>
<path d="M659.001 202.546L646.651 161.87" stroke="black" stroke-miterlimit="10"/>
<path d="M540.068 228.598L567.407 273.581" stroke="black" stroke-miterlimit="10"/>
<path d="M536.712 271.515L559.391 260.393" stroke="black" stroke-miterlimit="10"/>
<path d="M551.898 259.835C552.012 260.937 551.262 261.927 550.222 262.049C549.182 262.17 548.246 261.375 548.131 260.273C548.017 259.17 548.768 258.18 549.809 258.058C550.848 257.937 551.783 258.732 551.898 259.835Z" stroke="black" stroke-miterlimit="10"/>
<path d="M540.82 265.15C541.867 265.15 542.716 264.252 542.716 263.143C542.716 262.034 541.867 261.135 540.82 261.135C539.773 261.135 538.925 262.034 538.925 263.143C538.925 264.252 539.773 265.15 540.82 265.15Z" stroke="black" stroke-miterlimit="10"/>
<path d="M580.922 203.15C580.89 202.88 580.858 202.609 580.826 202.34C586.062 200.678 591.06 198.177 595.598 194.95" stroke="black" stroke-miterlimit="10"/>
<path d="M599.418 155.214C606.849 145.747 615.946 137.75 626.101 131.76" stroke="black" stroke-miterlimit="10"/>
<path d="M605.404 133.586C612.437 128.042 620.125 123.433 628.234 119.903" stroke="black" stroke-miterlimit="10"/>
<path d="M680.609 56.2042L686.1 73.4267L705.689 93.4987C705.689 93.4987 706.2 105.441 695.117 117.961C684.12 130.385 672.203 122.046 672.203 122.046L657.981 99.8975" fill="#D16159"/>
<path d="M634.749 101.092C632.495 93.4458 629.654 76.9508 629.871 70.6697C630.056 65.3511 631.557 60.1472 634.865 56.0352C639.124 50.7402 649.136 52.6374 655.53 51.9938C666.029 50.9371 672.588 64.1122 675.547 73.5575C677.82 80.813 678.901 88.283 676.581 95.684C672.807 107.717 660.688 119.88 647.865 116.589C640.9 114.801 636.931 108.504 634.749 101.092Z" fill="#D16159"/>
<path d="M690.523 54.0483C688.839 52.1437 686.523 50.6491 685.774 48.1625C685.359 46.784 684.714 42.6588 684.293 41.2832C681.949 33.6089 675.873 31.04 668.969 32.3009C668.232 24.9616 660.882 24.2533 654.846 24.1798C652.332 24.1489 649.775 23.8888 647.523 22.6146C645.142 21.267 642.982 19.3594 640.202 19.0787C637.721 18.8289 635.166 19.6945 633.106 21.1303C625.949 26.1138 623.905 35.756 615.138 38.6673C612.369 39.5873 609.474 39.8592 607.083 41.7844C605.299 43.2202 603.971 45.3688 603.72 47.729C603.362 51.0959 605.463 53.1445 607.631 55.1932C610.161 57.5828 611.636 60.6278 611.432 64.2637C611.308 66.4651 610.752 68.6093 610.419 70.7858C609.473 76.9832 611.342 82.8411 616.243 86.593C617.276 87.3837 618.675 88.1244 622.459 88.9944C625.126 89.6072 632.044 88.5491 632.044 88.5491C632.044 88.5491 630.336 78.0075 630.368 73.9044C630.399 70.001 631.523 66.3637 633.679 63.2452C635.519 60.5837 639.541 59.6476 642.538 59.7901C647.027 60.0032 651.315 62.6236 655.777 62.0695C657.631 61.8388 659.393 61.0114 660.849 59.7784C666.851 63.8948 673.065 69.9467 674.44 77.3256C674.509 77.7004 675.392 82.0695 675.081 82.1386C680.227 80.9923 686.712 80.5514 689.025 74.5995C689.823 72.5464 689.42 70.3876 690.024 68.3066C690.523 66.5827 691.979 65.3247 692.657 63.6699C693.967 60.4676 692.774 56.5937 690.523 54.0483Z" fill="#2C221D"/>
<path d="M669.128 76.4233C669.395 71.6808 675.578 68.2096 679.5 69.8864C688.932 73.919 685.041 91.9277 676.09 93.3004C673.557 93.6883 669.987 92.4906 669.209 89.4382" fill="#D16159"/>
<path d="M679.897 78.006L671.386 85.554" stroke="black" stroke-miterlimit="10"/>
<path d="M673.564 70.7476C671.515 71.9409 669.819 73.8352 668.769 76.1058" stroke="black" stroke-miterlimit="10"/>
<path d="M684.422 85.0764C683.047 88.9047 680.379 92.908 676.369 93.4414C673.585 93.8118 670.466 92.398 669.446 89.3133" stroke="black" stroke-miterlimit="10"/>
<path d="M665.97 112.338C665.97 112.338 670.551 109.256 673.565 102.469" stroke="black" stroke-miterlimit="10"/>
<path d="M642.39 82.847C642.815 87.0765 643.254 91.3046 643.71 95.5313C643.772 96.1147 643.854 96.7408 644.235 97.1684C645.741 98.8541 649.193 98.0443 650.797 97.0347" stroke="black" stroke-miterlimit="10"/>
<path d="M654.559 98.7688L647.656 103.04C647.656 103.04 650.327 108.462 653.001 107.403C657.981 105.432 654.559 98.7688 654.559 98.7688Z" fill="white"/>
<path d="M645.906 73.7045C646.614 72.1658 648.068 71.1326 649.605 70.6065C652.204 69.7174 655.178 70.1539 657.451 71.7587" stroke="black" stroke-miterlimit="10"/>
<path d="M629.777 79.8416C630.025 78.2294 630.9 77.0097 631.921 76.2763C633.646 75.0374 635.867 75.0507 637.781 76.3087" stroke="black" stroke-miterlimit="10"/>
<path d="M655.039 80.0106C655.393 81.589 654.742 83.1041 653.586 83.3937C652.43 83.6832 651.207 82.6397 650.854 81.0614C650.5 79.483 651.151 77.9678 652.307 77.6783C653.463 77.3888 654.685 78.4322 655.039 80.0106Z" fill="black"/>
<path d="M639.122 85.0279C639.476 86.6062 638.825 88.1214 637.67 88.4109C636.514 88.7019 635.29 87.657 634.937 86.0786C634.584 84.5003 635.234 82.9851 636.39 82.6956C637.545 82.4061 638.768 83.4495 639.122 85.0279Z" fill="black"/>
<path d="M634.926 61.8344C631.957 63.5244 630.665 67.219 628.659 70.0877C625.414 74.7244 619.791 77.3653 614.367 76.7965" stroke="#635149" stroke-miterlimit="10"/>
<path d="M661.357 59.3551C664.046 56.726 665.976 53.2386 666.828 49.4705" stroke="#635149" stroke-miterlimit="10"/>
<path d="M921.581 264.645V439.128C921.58 443.97 917.882 447.844 913.379 447.844H680.832C676.329 447.844 672.631 443.969 672.631 439.128V264.645H921.581Z" fill="#E8F2F9" stroke="black"/>
<path d="M680.833 237.866H913.379C919.022 237.866 923.662 242.737 923.662 248.786V439.128C923.662 445.177 919.022 450.048 913.379 450.048H680.833C675.19 450.048 670.55 445.177 670.55 439.128V248.786C670.55 242.737 675.19 237.866 680.833 237.866ZM680.833 239.07C675.725 239.07 671.631 243.446 671.631 248.786V439.128C671.631 444.466 675.724 448.844 680.833 448.844H913.379C918.487 448.844 922.58 444.468 922.58 439.128V248.786C922.58 243.448 918.488 239.07 913.379 239.07H680.833Z" fill="white" stroke="black"/>
<path d="M692.566 252.578C692.566 255.49 690.336 257.852 687.586 257.852C684.836 257.852 682.606 255.49 682.606 252.578C682.606 249.665 684.836 247.303 687.586 247.303C690.336 247.303 692.566 249.665 692.566 252.578Z" stroke="black" stroke-width="1.5" stroke-miterlimit="10"/>
<path d="M711.868 252.578C711.868 255.49 709.638 257.852 706.888 257.852C704.138 257.852 701.908 255.49 701.908 252.578C701.908 249.665 704.138 247.303 706.888 247.303C709.638 247.303 711.868 249.665 711.868 252.578Z" stroke="black" stroke-width="1.5" stroke-miterlimit="10"/>
<path d="M672.131 264.145H922.08" stroke="black" stroke-width="1.5" stroke-miterlimit="10"/>
<path d="M857.654 377.422C851.931 376.361 850.313 392.66 853.057 398.085C845.52 386.669 835.979 369.183 828.44 357.767C819.986 344.962 809.883 329.014 794.637 324.846C780.902 321.091 773.738 333.759 773.523 346.694C773.318 359.077 774.493 371.568 776.659 383.728C779.02 396.985 782.085 412.086 788.899 423.66C781.656 411.36 770.064 407.201 757.111 408.343C751.078 408.875 744.806 411.025 740.997 416.008C734.905 423.979 737.19 438.465 739.786 448.347C745.45 448.347 751.116 448.347 756.78 448.347C786.908 448.347 906.257 448.4 906.257 448.4C906.257 448.4 876.228 380.867 857.654 377.422Z" fill="#030C42"/>
<path d="M684.554 354.461C659.721 354.851 635.105 349.289 611.349 341.619C587.592 333.951 544.31 317.113 544.31 317.113L531.952 356.634C531.952 356.634 595.934 399.563 681.079 406.895" fill="#E27769"/>
<path d="M737.742 365.193C721.193 350.321 685.335 351.383 675.055 351.808C664.774 352.233 646.453 349.017 646.453 349.017L639.708 408.557C639.708 408.557 677.778 415.325 698.96 416.963" fill="#2C221D"/>
<path d="M691.1 379.476C693.699 387.239 692.513 398.659 692.542 406.895C692.568 414.242 695.006 418.323 696.03 425.589C697.256 434.273 701.907 440.476 706.813 448.344H812.253L806.699 386.426L792.346 364.457L762.04 355.899L693.623 374.957" fill="#2C221D"/>
<path d="M724.206 364.458C723.155 368.39 722.389 372.8 723.027 376.874C723.775 381.647 726.633 384.652 730.711 386.428" stroke="#6D574E" stroke-miterlimit="10"/>
<path d="M735.895 387.741C754.582 391.288 774.245 377.141 776.122 359.132" stroke="#6D574E" stroke-miterlimit="10"/>
<path d="M876.475 441.206C874.957 436.54 872.106 432.508 869.174 428.673C861.112 418.13 852.087 408.413 842.267 399.7L806.983 433.717L828.818 456.135L803.317 505.089L837.142 515.313C837.142 515.313 863.028 485.035 872.934 468.156C877.796 459.872 879.5 450.505 876.475 441.206Z" fill="#E27769"/>
<path d="M810.065 494.121C810.065 494.121 795.272 516.67 793.778 520.739C792.434 524.395 791.702 528.97 791.174 532.866C789.72 543.605 795.155 554.645 799.253 559.86C799.715 560.448 800.399 560.827 801.086 560.963C802.605 561.262 803.214 560.426 803.181 558.527C804.011 559.722 804.839 560.916 805.669 562.11C806.012 562.604 806.371 563.114 806.862 563.371C807.804 563.865 808.982 563.262 809.705 562.287C810.428 561.311 810.797 560.041 811.148 558.811C812.027 560.157 813.391 561.57 814.706 560.745C816.022 559.921 817.158 556.94 816.864 555.228C817.295 556.733 819.18 556.774 820.209 555.679C821.237 554.584 821.615 552.869 821.922 551.27C822.697 547.222 823.427 543.046 825.299 539.509C826.546 537.15 828.243 535.194 829.722 533.037C834.54 526.012 836.924 517.058 838.479 508.237" fill="#E27769"/>
<path d="M819.769 528.878C819.103 530.44 818.436 532.002 817.77 533.563C817.229 534.831 816.686 536.102 816.251 537.419C814.309 543.287 814.631 549.998 817.122 555.575" stroke="black" stroke-miterlimit="10"/>
<path d="M808.637 528.294C807.28 535.393 806.728 543.928 807.693 549.266C808.319 552.724 809.744 556.011 811.49 558.976" stroke="black" stroke-miterlimit="10"/>
<path d="M798.885 525.626C798.885 525.626 798.018 530.862 797.813 533.822C797.161 543.23 798.337 552.317 803.177 559.292" stroke="black" stroke-miterlimit="10"/>
<path d="M541.286 357.301C538.625 357.028 535.962 356.755 533.301 356.481C530.918 356.237 528.515 355.987 526.237 355.213C524.716 354.696 523.274 353.954 521.84 353.213C515.929 350.165 512.902 349.252 507.248 345.724C504 343.697 500.676 341.787 497.213 340.201C493.82 338.647 490.3 337.811 487.167 335.711C486.895 335.529 486.613 335.323 486.489 335.01C486.393 334.769 486.401 334.496 486.436 334.236C487.163 328.822 497.581 330.06 501.632 331.26C502.854 331.621 504.122 332.055 505.365 331.787C505.448 330.065 504.732 328.416 503.94 326.91C501.606 322.477 498.193 318.946 495.111 315.092C492.261 311.527 489.373 307.965 486.747 304.208C484.286 300.692 481.754 293.032 483.686 292.097C485.617 291.163 484.585 293.029 485.208 293.114C483.962 292.302 484.436 289.052 485.331 287.772C486.226 286.494 488.709 288.431 489.569 289.671C488.671 288.483 488.975 285.788 489.892 285.306C491.226 284.604 492.806 285.55 494.044 286.344C495.282 287.137 496.475 288.101 497.918 288.379C497.554 287.414 497.337 286.383 497.273 285.337C497.976 284.429 499.337 284.898 500.287 285.444C519.59 296.583 536.062 313.452 556.587 323.38" fill="#E27769"/>
<path d="M501.299 322.767C503.467 326.059 504.928 330.019 506.062 334.876" stroke="black" stroke-miterlimit="10"/>
<path d="M485.27 291.972C487.833 295.348 491.256 297.686 494.244 300.58C498.999 305.184 503.521 310.046 508.117 314.825" stroke="black" stroke-miterlimit="10"/>
<path d="M489.555 289.346C491.022 290.816 492.581 292.18 494.22 293.429C495.977 294.766 497.821 295.97 499.634 297.219C504.818 300.789 509.764 304.748 514.422 309.058" stroke="black" stroke-miterlimit="10"/>
<path d="M498.595 288.808C500.225 290.459 502.29 291.524 504.281 292.647C510.518 296.161 516.359 300.467 521.634 305.444" stroke="black" stroke-miterlimit="10"/>
<path d="M542.063 358.587C542.063 358.587 531.154 357.021 526.7 355.776" stroke="black" stroke-miterlimit="10"/>
<path d="M783.476 362.004C790.989 362.773 798.502 363.516 805.652 366.375C814.687 369.987 822.539 376.777 829.933 383.718C837.658 390.969 845.539 400.839 853.057 408.406L814.523 444.119L787.238 415.958" fill="#2C221D"/>
<path d="M828.818 456.135C828.818 456.135 834.518 448.406 840.296 444.119" stroke="black" stroke-miterlimit="10"/>
<path d="M803.31 432.546L843.493 398.085" stroke="#6D574E" stroke-miterlimit="10"/>
<path d="M654.441 411.041L660.276 350.978" stroke="#6D574E" stroke-miterlimit="10"/>
<path d="M691.1 399.7C691.1 399.7 693.765 412.519 694.494 418.017" stroke="#6D574E" stroke-miterlimit="10"/>
<path d="M785.875 415.851C794.226 422.679 814.524 444.119 814.524 444.119" stroke="#6D574E" stroke-miterlimit="10"/>
<path d="M743.008 319.392L760.964 327.101L759.91 339.78L768.962 358.311C768.962 358.311 764.544 375.786 744.722 380.138C727.985 383.812 728.364 372.372 728.364 372.372L720.392 348.004" fill="#E27769"/>
<path d="M705.075 329.155C707.726 319.648 709.161 313.812 712.552 306.913C715.423 301.071 720.439 292.606 726.198 289.869C733.611 286.344 742.091 290.669 749.563 293.542C761.83 298.262 764.653 313.627 763.228 325.85C762.133 335.241 756.961 339.873 750.658 346.842C742.421 355.949 722.15 363.718 711.675 358.041C703.84 353.792 702.266 339.224 705.075 329.155Z" fill="#E27769"/>
<path d="M833.344 386.616C838.171 384.936 840.544 378.921 840.275 374.647C839.842 367.765 836.806 364.216 836.308 359.964C835.983 357.195 836.76 354.393 836.538 351.614C836.173 347.024 833.029 343.028 829.145 340.958C825.262 338.887 820.744 338.514 816.413 338.924C813.093 339.238 809.755 339.988 806.454 339.489C803.697 339.074 801.115 337.804 798.712 336.311C794.463 333.671 790.586 330.235 787.85 325.897C783.199 318.52 782.207 309.24 778.619 301.224C776.811 297.185 774.3 293.512 771.296 290.378C763.998 282.762 757.049 279.942 746.7 279.578C739.613 279.328 729.751 280.33 724.327 287.331C724.327 287.331 713.844 287.616 708.843 293.208C702.907 299.847 703.333 309.455 708.519 317.113C711.198 312.456 713.479 307.53 717.402 303.95C716.949 304.705 717.166 305.765 717.746 306.414C718.326 307.064 719.188 307.358 720.03 307.43C722.272 307.622 724.392 306.439 726.364 305.291C725.698 307.174 725.415 309.209 725.541 311.215C725.568 311.639 725.623 312.09 725.887 312.409C726.187 312.773 726.679 312.872 727.133 312.913C730.223 313.188 733.402 311.614 735.186 308.927C734.341 311.362 733.603 314.418 735.306 316.283C736.509 317.601 738.544 317.698 740.147 317.007C741.749 316.317 743.022 314.994 744.25 313.702C743.659 314.324 744.436 317.832 744.58 318.641C744.896 320.415 745.41 322.138 745.98 323.835C747.731 329.054 749.889 334.139 752.693 338.822C755.588 343.657 759.724 347.324 762.682 352.036C764.557 355.022 766.141 358.292 768.661 360.687C771.758 363.631 776.028 365.846 780.098 366.723C784.198 367.608 788.438 367.206 792.586 367.062C807.916 366.533 819.538 374.663 833.344 386.616Z" fill="#893D33"/>
<path d="M797.58 281.47C796.697 279.162 795.405 277.045 793.75 275.43C787.774 269.603 774.746 269.981 770.292 277.898C767.844 282.249 769.035 287.847 770.891 292.515L774.552 301.021C779.655 303.958 786.113 304.083 791.315 301.347C795.661 299.062 798.727 294.844 798.944 289.616C799.056 286.951 798.58 284.086 797.58 281.47Z" fill="#893D33"/>
<path d="M744.397 330.817C745.64 326.889 751.591 325.458 754.533 327.813C761.607 333.482 754.462 347.705 746.631 346.702C744.415 346.419 741.668 344.551 741.668 341.794" fill="#E27769"/>
<path d="M753.123 334.744L744.337 339.047" stroke="black" stroke-miterlimit="10"/>
<path d="M749.351 327.106C747.369 327.616 745.535 328.804 744.162 330.462" stroke="black" stroke-miterlimit="10"/>
<path d="M755.413 341.787C753.433 344.679 750.327 347.405 746.836 346.888C744.414 346.529 742.091 344.586 741.895 341.744" stroke="black" stroke-miterlimit="10"/>
<path d="M724.471 360.474C724.471 360.474 732.719 360.058 741.071 354.084" stroke="black" stroke-miterlimit="10"/>
<path d="M715.81 324.369C714.51 326.776 713.153 329.252 711.054 330.911C710.551 331.308 710.006 331.659 709.598 332.162C709.013 332.882 708.763 333.895 708.94 334.826C709.118 335.758 709.719 336.588 710.522 337.013" stroke="black" stroke-miterlimit="10"/>
<path d="M712.105 342.632C713.424 343.791 715.397 344.247 716.958 343.36C718.93 342.241 718.97 339.573 719.036 337.495" stroke="black" stroke-miterlimit="10"/>
<path d="M725.429 319.207C726.871 318.887 728.38 318.818 729.814 319.176C731.248 319.535 732.604 320.342 733.52 321.565C734.683 323.116 735.045 325.158 735.369 327.108" stroke="black" stroke-miterlimit="10"/>
<path d="M709.376 313.404C710.747 312.362 712.67 312.294 714.188 313.073C715.706 313.853 716.814 315.4 717.291 317.113" stroke="black" stroke-miterlimit="10"/>
<path d="M727.85 327.991C727.285 329.237 726.142 329.899 725.293 329.468C724.445 329.038 724.215 327.678 724.778 326.432C725.343 325.186 726.486 324.524 727.335 324.955C728.183 325.386 728.414 326.745 727.85 327.991Z" fill="black"/>
<path d="M712.264 322.559C711.7 323.806 710.556 324.467 709.706 324.036C708.859 323.606 708.628 322.246 709.192 321C709.755 319.754 710.9 319.093 711.749 319.523C712.598 319.954 712.828 321.313 712.264 322.559Z" fill="black"/>
<path d="M873.926 493C882.382 483.896 888.373 472.252 891.017 459.792" stroke="black" stroke-miterlimit="10"/>
<path d="M893.292 487.928C895.85 482.586 897.481 476.749 898.084 470.794" stroke="black" stroke-miterlimit="10"/>
<path d="M727.778 202.477C727.778 202.477 713.335 209.493 703.639 214.149C698.154 216.782 688.962 223.986 685.822 229.468C681.829 236.441 680.785 245.065 681.24 252.185C681.543 256.897 683.577 262.233 686.558 267.369C688.521 270.752 690.615 274.29 692.444 273.83C694.271 273.371 693.613 268.629 693.613 268.623C693.619 268.91 695.779 273.408 696.277 273.767C696.945 274.247 697.735 274.663 698.424 274.281C699.359 273.761 699.995 273.194 700.447 272.182C700.829 271.327 700.859 270.439 700.938 269.486C701.01 268.62 700.943 266.532 700.901 265.651C701.305 266.601 701.692 269.562 702.458 269.406C703.224 269.249 704.474 268.572 705.161 267.684C706.494 265.96 707.2 263.803 707.883 261.694C707.89 262.204 707.898 262.728 708.08 263.202C708.261 263.675 708.655 264.092 709.136 264.13C709.742 264.177 712.214 262.267 712.573 261.75C714.13 259.511 714.71 256.516 715.835 254.005C716.775 251.909 717.693 250.425 719.047 248.602C720.282 246.94 722.168 244.884 723.968 243.883C727.635 241.845 729.887 241.29 733.639 239.411C736.801 237.829 739.898 235.873 742.084 232.914" fill="#D16159"/>
<path d="M707.557 262.575C707.836 259.229 708.222 255.893 708.714 252.575C709.043 250.363 709.425 248.135 710.259 246.078C711.625 242.706 714.106 240.008 716.536 237.392" stroke="black" stroke-miterlimit="10"/>
<path d="M701.237 266.388C700.009 260.81 700.14 255.013 700.279 249.287C700.318 247.704 700.358 246.108 700.715 244.571C701.332 241.918 702.85 239.617 704.338 237.385" stroke="black" stroke-miterlimit="10"/>
<path d="M693.765 269.734C692.075 264.185 690.373 258.575 689.906 252.764C689.817 251.652 689.773 250.533 689.81 249.416C689.95 245.249 691.231 241.178 693.169 237.546" stroke="black" stroke-miterlimit="10"/>
<path d="M740.066 119.54L765.481 170.322L708.763 211.459L746.09 242.598C746.09 242.598 809.733 220.655 827.068 209.769C840.679 201.223 846.519 179.028 820.3 142.825C794.079 106.623 775.978 85.1528 770.601 79.1156C759.03 66.1227 745.263 60.7263 732.432 67.5674" fill="#4C4139"/>
<path d="M740.066 119.54L765.481 170.322L708.764 211.458" stroke="black" stroke-miterlimit="10"/>
<path d="M741.532 228.598C741.532 229.706 740.682 230.605 739.636 230.605C738.59 230.605 737.741 229.708 737.741 228.598C737.741 227.49 738.59 226.59 739.636 226.59C740.684 226.59 741.532 227.49 741.532 228.598Z" stroke="black" stroke-miterlimit="10"/>
<path d="M751.34 224.352C752.387 224.352 753.236 223.453 753.236 222.345C753.236 221.236 752.387 220.337 751.34 220.337C750.293 220.337 749.445 221.236 749.445 222.345C749.445 223.453 750.293 224.352 751.34 224.352Z" stroke="black" stroke-miterlimit="10"/>
<path d="M728.785 228.161C728.994 228.335 753.236 215.393 753.236 215.393" stroke="black" stroke-miterlimit="10"/>
<path d="M730.112 195.975C730.352 195.8 773.694 232.661 773.694 232.661" stroke="black" stroke-miterlimit="10"/>
<path d="M764.096 170.829C769.418 168.627 774.767 166.255 780.453 165.35C786.53 164.381 792.711 164.715 798.823 165.05" stroke="black" stroke-miterlimit="10"/>
<path d="M746.09 242.596L819.55 214.318" stroke="black" stroke-miterlimit="10"/>
<path d="M758.937 54.8875C744.257 40.2795 729.263 25.7464 711.907 14.9183C679.775 -5.12882 634.928 -2.02645 612.761 12.5595C595.747 23.7551 586.779 37.6988 575.851 54.9654C562.172 76.5791 547.827 99.8299 525.286 110.177C514.3 115.221 502.218 116.736 490.467 119.173C478.715 121.61 466.699 125.26 457.697 133.624C448.694 141.986 443.564 156.184 448.428 167.775C452.248 176.879 461.655 182.606 471.059 182.888C480.461 183.172 489.629 178.549 496.397 171.631C513.671 153.979 521.711 107.542 489.805 94.1748" stroke="#768DEF" stroke-width="1.5" stroke-miterlimit="10"/>
<path d="M61.8615 369.7C63.8915 379.898 69.0241 390.753 75.9619 399.127C84.9936 410.028 103.414 417.084 111.334 401.233C115.018 393.861 116.855 381.932 108.076 376.656C107.453 376.281 106.753 375.945 105.999 375.936C104.302 375.917 103.176 377.479 102.675 378.906C100.329 385.593 104.106 392.819 109.204 398.19C111.57 400.683 114.325 403.006 117.737 404.247C121.148 405.487 125.326 405.474 128.302 403.552C132.931 400.561 134.15 393.974 133.811 389.258" stroke="#8F96DB" stroke-width="1.5" stroke-miterlimit="10"/>
<path d="M42.4564 101.194C50.625 90.2847 61.6242 80.4309 73.9846 75.3813C80.6727 72.6493 89.4102 71.669 96.4424 73.1475C99.9529 73.8852 104.031 75.058 106.176 78.4014C108.439 81.9284 105.797 88.4653 110.272 90.464C111.421 90.9769 112.728 90.8534 113.962 90.6565C117.84 90.0393 121.614 88.8019 125.494 88.1978C129.375 87.5953 133.506 87.6761 137 89.5646C140.493 91.453 143.149 95.4989 142.628 99.6168C142.424 101.229 141.762 102.825 142.043 104.424C142.515 107.099 145.376 108.498 147.935 108.753C153.233 109.281 158.27 109.099 162.774 112.691C166.079 115.326 167.977 120.039 166.286 123.821" stroke="#07113B" stroke-width="1.5" stroke-miterlimit="10"/>
<path d="M388.551 90.8182C390.611 85.9655 392.918 81.0996 396.512 77.3829C400.106 73.6662 405.236 71.2414 410.166 72.2569C412.715 72.783 415.123 74.188 417.719 74.1306C421.291 74.0513 424.348 71.1414 425.955 67.7613C427.561 64.3812 428.029 60.547 428.681 56.8274C429.722 50.8872 431.409 44.8162 435.246 40.3456C439.082 35.875 445.565 33.4781 450.692 36.1292" stroke="#193DD6" stroke-width="1.5" stroke-miterlimit="10"/>
<path d="M146.779 585.737C148.205 576.724 142.464 568.194 133.955 566.683C125.446 565.173 117.391 571.254 115.965 580.266C114.539 589.278 120.281 597.809 128.79 599.319C137.299 600.83 145.353 594.749 146.779 585.737Z" stroke="#909DF4" stroke-width="1.5" stroke-miterlimit="10"/>
<path d="M397.268 32.4552C404.265 32.4552 409.938 26.4473 409.938 19.0361C409.938 11.625 404.265 5.61703 397.268 5.61703C390.271 5.61703 384.598 11.625 384.598 19.0361C384.598 26.4473 390.271 32.4552 397.268 32.4552Z" stroke="#8F96DB" stroke-width="1.5" stroke-miterlimit="10"/>
<path d="M848.106 533.83L856.505 592.421L889.513 566.669L848.106 533.83Z" fill="#193DD6"/>
<path d="M17.1375 469.542L39.4675 442.727L1.32059 444.176L17.1375 469.542Z" stroke="#8F96DB" stroke-width="1.5" stroke-miterlimit="10"/>
<path d="M52.8201 535.947C57.8127 535.947 61.8601 531.66 61.8601 526.372C61.8601 521.084 57.8127 516.798 52.8201 516.798C47.8274 516.798 43.7801 521.084 43.7801 526.372C43.7801 531.66 47.8274 535.947 52.8201 535.947Z" fill="#FFDD99"/>
<path d="M72.1392 126.745L50.4057 176.97L116.815 166.77L72.1392 126.745Z" fill="#768DEF"/>
<path d="M29.5215 251.885C29.5215 255.095 27.0655 257.696 24.035 257.696C21.0046 257.696 18.5486 255.095 18.5486 251.885C18.5486 248.676 21.0046 246.075 24.035 246.075C27.0655 246.075 29.5215 248.676 29.5215 251.885Z" fill="#909DF4"/>
<path d="M774.162 22.7998C774.162 26.0095 771.706 28.6107 768.675 28.6107C765.645 28.6107 763.189 26.0095 763.189 22.7998C763.189 19.5902 765.645 16.989 768.675 16.989C771.706 16.989 774.162 19.5902 774.162 22.7998Z" fill="#ED725A"/>
<path d="M875.058 530.187C879.15 528.409 884.44 528.753 888.143 531.386C891.412 533.71 893.122 538.081 897.062 539.443C902.843 541.442 907.942 535.742 913.518 535.351C918.339 535.013 922.227 538.474 924.112 542.932C925.725 546.747 926.033 551.015 926.321 555.184" stroke="#8F96DB" stroke-width="1.5" stroke-miterlimit="10"/>
<path d="M832.599 131.687C834.604 126.406 839.886 122.729 845.259 122.875C847.993 122.948 850.765 123.91 853.412 123.184C861.649 120.925 860.963 105.733 869.102 103.103C874.742 101.28 880.874 107.066 886.395 104.872C891.144 102.984 892.309 96.6496 893.813 91.5192C897.878 77.6489 909.914 66.784 923.489 64.728" stroke="#8F96DB" stroke-width="1.5" stroke-miterlimit="10"/>
<mask id="path-222-inside-1_42_3760" fill="white">
<path d="M769.821 436.647C774.628 436.647 778.523 440.774 778.523 445.863V609.053C778.523 614.144 774.626 618.269 769.821 618.269H520.252C515.446 618.269 511.551 614.142 511.551 609.053V445.865C511.551 440.774 515.447 436.649 520.252 436.649H769.821M769.821 434.443H520.252C514.307 434.443 509.469 439.566 509.469 445.863V609.053C509.469 615.35 514.307 620.473 520.252 620.473H769.821C775.767 620.473 780.604 615.35 780.604 609.053V445.865C780.605 439.568 775.768 434.443 769.821 434.443Z"/>
</mask>
<path d="M769.821 436.647C774.628 436.647 778.523 440.774 778.523 445.863V609.053C778.523 614.144 774.626 618.269 769.821 618.269H520.252C515.446 618.269 511.551 614.142 511.551 609.053V445.865C511.551 440.774 515.447 436.649 520.252 436.649H769.821M769.821 434.443H520.252C514.307 434.443 509.469 439.566 509.469 445.863V609.053C509.469 615.35 514.307 620.473 520.252 620.473H769.821C775.767 620.473 780.604 615.35 780.604 609.053V445.865C780.605 439.568 775.768 434.443 769.821 434.443Z" fill="white"/>
<path d="M780.604 445.865L779.604 445.865V445.865H780.604ZM769.821 436.647V437.647C774.022 437.647 777.523 441.271 777.523 445.863H778.523H779.523C779.523 440.277 775.234 435.647 769.821 435.647V436.647ZM778.523 445.863H777.523V609.053H778.523H779.523V445.863H778.523ZM778.523 609.053H777.523C777.523 613.646 774.021 617.269 769.821 617.269V618.269V619.269C775.232 619.269 779.523 614.641 779.523 609.053H778.523ZM769.821 618.269V617.269H520.252V618.269V619.269H769.821V618.269ZM520.252 618.269V617.269C516.051 617.269 512.551 613.645 512.551 609.053H511.551H510.551C510.551 614.639 514.84 619.269 520.252 619.269V618.269ZM511.551 609.053H512.551V445.865H511.551H510.551V609.053H511.551ZM511.551 445.865H512.551C512.551 441.272 516.053 437.649 520.252 437.649V436.649V435.649C514.842 435.649 510.551 440.277 510.551 445.865H511.551ZM520.252 436.649V437.649H769.821V436.649V435.649H520.252V436.649ZM769.821 434.443V433.443H520.252V434.443V435.443H769.821V434.443ZM520.252 434.443V433.443C513.701 433.443 508.469 439.069 508.469 445.863H509.469H510.469C510.469 440.063 514.912 435.443 520.252 435.443V434.443ZM509.469 445.863H508.469V609.053H509.469H510.469V445.863H509.469ZM509.469 609.053H508.469C508.469 615.848 513.701 621.473 520.252 621.473V620.473V619.473C514.912 619.473 510.469 614.853 510.469 609.053H509.469ZM520.252 620.473V621.473H769.821V620.473V619.473H520.252V620.473ZM769.821 620.473V621.473C776.373 621.473 781.604 615.848 781.604 609.053H780.604H779.604C779.604 614.853 775.161 619.473 769.821 619.473V620.473ZM780.604 609.053H781.604V445.865H780.604H779.604V609.053H780.604ZM780.604 445.865L781.604 445.865C781.605 439.07 776.374 433.443 769.821 433.443V434.443V435.443C775.163 435.443 779.605 440.065 779.604 445.865L780.604 445.865Z" fill="black" mask="url(#path-222-inside-1_42_3760)"/>
<path d="M778.024 461.724V609.054C778.024 613.895 774.325 617.771 769.821 617.771H520.252C515.748 617.771 512.051 613.895 512.051 609.054V461.724H778.024Z" fill="#F2AFD8" stroke="black"/>
<path d="M531.985 449.657C531.985 452.569 529.756 454.931 527.006 454.931C524.255 454.931 522.026 452.569 522.026 449.657C522.026 446.744 524.255 444.382 527.006 444.382C529.756 444.382 531.985 446.744 531.985 449.657Z" stroke="black" stroke-width="1.5" stroke-miterlimit="10"/>
<path d="M551.289 449.657C551.289 452.569 549.059 454.931 546.309 454.931C543.559 454.931 541.329 452.569 541.329 449.657C541.329 446.744 543.559 444.382 546.309 444.382C549.059 444.382 551.289 446.744 551.289 449.657Z" stroke="black" stroke-width="1.5" stroke-miterlimit="10"/>
<path d="M511.551 461.224H778.524" stroke="black" stroke-width="1.5" stroke-miterlimit="10"/>
<path d="M741.069 582.972C727.788 567.394 712.357 559.688 704.51 561.567C692.967 564.331 695.066 595.532 695.388 608.061C689.814 601.233 682.905 595.632 675.225 591.719C669.441 588.771 662.855 586.757 656.619 588.366C650.382 589.976 644.889 596.186 645.62 602.941C631.092 580.054 611.039 561.136 587.899 548.491C573.273 540.498 533.508 523.88 526.7 541.126C519.234 560.041 561.592 618.269 561.592 618.269H766.893C766.893 618.269 753.065 597.04 741.069 582.972Z" fill="#5C1847"/>
<path d="M484.532 416.586C476.995 408.222 469.755 392.061 467.72 383.441C465.932 375.86 464.335 368.099 460.953 361.09C460.042 359.2 456.126 354.838 457.545 352.569C460.409 347.999 467.355 354.02 469.166 356.741C469.814 357.716 472.206 361.82 473.404 362.06C474.601 362.299 475.106 357.385 475.252 355.278C475.813 347.177 475.849 338.346 475.201 330.15C474.533 321.709 475.668 314.302 478.169 313.911C480.704 313.515 480.572 315.104 481.033 315.633C481.438 312.96 483.736 309.79 485.22 310.682C486.122 311.224 486.45 312.422 486.576 313.513C486.702 314.603 487.316 316.678 487.316 316.678C487.316 316.678 488.753 310.988 491.378 314.206C492.705 315.833 494.725 324.479 496.02 327.224C495.891 325.409 495.456 324.398 496.009 322.277C496.308 321.127 496.922 320.18 498.098 320.786C498.792 321.143 498.993 321.87 499.236 322.584C500.553 326.458 503.793 332.691 504.971 336.615C506.198 340.706 507.424 344.799 508.652 348.891C510.958 356.583 513.213 364.677 514.867 372.701C516.398 380.124 522.016 398.417 522.016 398.417" fill="#A04B4B"/>
<path d="M480.963 316.092C481.632 320.493 483.153 326.106 483.987 331.095C485.182 338.249 485.721 344.873 486.743 351.173" stroke="black" stroke-miterlimit="10"/>
<path d="M487.676 316.815C488.476 320.584 489.862 325.806 490.791 330.096C492.343 337.265 493.482 343.69 494.817 349.987" stroke="black" stroke-miterlimit="10"/>
<path d="M496.003 327.102C497.975 333.952 500.828 341.81 503.088 350.479" stroke="black" stroke-miterlimit="10"/>
<path d="M474.16 361.626C473.654 365.245 473.4 369.089 471.123 372.25" stroke="black" stroke-miterlimit="10"/>
<path d="M739.624 618.27C736.954 610.715 734.098 602.776 730.084 595.85C726.07 588.923 720.824 582.585 714.129 578.244C711.126 576.296 707.875 574.774 704.635 573.259C695.922 569.183 687.211 565.108 678.499 561.032L635.737 543.364C633.09 540.763 630.446 538.161 627.804 535.557C622.698 530.521 617.605 525.47 612.552 520.37C612.357 520.175 612.165 519.979 611.97 519.784C573.263 480.654 544.476 436.934 519.329 385.912L474.16 406.895C474.16 406.895 493.697 477.403 512.258 507.335C536.778 546.873 565.139 582.838 577.954 594.226C580.241 602.36 582.861 610.389 585.829 618.272L739.624 618.27Z" fill="#FCDDD2"/>
<path d="M481.435 431.147L529.885 406.473" stroke="black" stroke-miterlimit="10"/>
<path d="M483.852 402.392L500.188 439.936" stroke="black" stroke-miterlimit="10"/>
<path d="M499.203 410.282C499.203 412.153 497.771 413.671 496.003 413.671C494.237 413.671 492.803 412.155 492.803 410.282C492.803 408.412 494.235 406.893 496.003 406.893C497.77 406.895 499.203 408.412 499.203 410.282Z" stroke="#D8A798" stroke-miterlimit="10"/>
<path d="M576.614 589.817C576.614 577.557 580.481 565.388 587.139 555.394C595.526 542.807 607.869 533.769 622.786 533.318" stroke="#D8A798" stroke-miterlimit="10"/>
<path d="M577.757 593.745C575.622 587.009 574.394 579.453 571.014 573.257" stroke="black" stroke-miterlimit="10"/>
<path d="M622.126 538.344L619.308 575.976C619.308 575.976 631.251 588.86 647.672 580.47C664.094 572.08 676.073 556.12 676.073 556.12L670.703 532.793" fill="#A04B4B"/>
<path d="M687.398 491.454C685.739 485.955 682.627 480.93 678.442 477.301C668.371 468.569 657.292 468.807 646.476 475.538C637.076 481.387 624.173 490.619 617.003 499.452C609.603 508.569 604.651 519.907 612.208 530.568C624.368 547.723 658.47 541.907 674.74 527.839C681.365 522.11 687.618 512.809 688.596 503.649C689.03 499.565 688.586 495.388 687.398 491.454Z" fill="#A04B4B"/>
<path d="M644.384 480.327C638.964 483.249 633.031 484.025 627.093 484.77C624.241 485.127 620.464 486.141 620.98 490.109C621.313 492.668 623.415 494.872 625.166 496.436" fill="#A04B4B"/>
<path d="M620.744 519.396C620.744 519.396 621.731 517.046 622.222 515.869C623.168 513.603 620.09 512.074 618.624 511.292C617.56 510.725 616.996 510.221 615.935 510.96C615.663 511.15 614.116 512.734 613.783 512.446C613.764 512.431 610.919 508.922 610.919 508.922C608.707 512.581 607.285 519.528 607.6 523.649C607.916 527.77 609.421 531.868 612.203 534.77C613.32 535.933 615.07 537.613 616.413 538.469C627.61 545.601 641.57 545.058 653.747 540.044C657.508 538.496 661.171 536.429 663.91 533.291C626.63 532.718 620.744 519.396 620.744 519.396Z" fill="#1E1611"/>
<path d="M665.204 516.758C665.038 516.72 664.871 516.686 664.707 516.656C662.22 516.221 659.757 516.608 657.303 515.754C655.328 515.066 653.489 513.766 652.404 511.888C651.122 509.667 652.883 508.374 654.589 507.376C657.115 505.899 659.575 504.241 661.63 502.097C665.007 498.573 666.787 493.519 665.322 488.597C663.733 483.259 658.77 480.125 654.92 476.742C651.209 473.482 646.468 468.406 648.032 462.752C649.601 457.081 654.777 455.013 659.886 455.814C662.629 456.245 665.393 457.058 668.132 456.606C669.524 456.377 670.85 455.827 672.225 455.5C676.446 454.497 681.313 455.929 683.827 459.657C685.638 462.344 686.34 466.151 689.133 467.617C690.476 468.322 692.044 468.307 693.504 468.672C696.472 469.411 698.978 471.801 700.186 474.765C701.393 477.729 701.345 481.195 700.26 484.215C698.312 489.64 695.394 492.356 697.788 498.342C703.348 512.239 705.685 529.302 692.403 539.294C688.909 541.924 684.533 543.281 681.626 546.616C679.813 548.694 678.332 551.658 675.675 551.958C673.889 552.159 672.206 550.991 670.982 549.599C669.884 548.35 669.023 546.895 668.172 545.448C666.994 543.442 665.795 541.343 665.554 538.996C665.207 535.645 666.85 532.471 668.342 529.494C669.747 526.687 672.576 520.867 669.23 518.546C668.076 517.745 666.597 517.081 665.204 516.758Z" fill="#1E1611"/>
<path d="M657.002 486.397C656.167 483.706 654.638 481.033 652.285 482.248C651.696 482.551 651.352 483.237 651.261 483.924C651.168 484.609 651.287 485.305 651.405 485.986C651.96 489.175 652.547 492.45 654.177 495.196C654.506 495.75 654.896 496.296 655.45 496.59C659.141 498.552 657.48 487.934 657.002 486.397Z" fill="#1E1611"/>
<path d="M633.683 504.594L623.24 502.087C623.24 502.087 622.216 511.572 626.655 512.512C631.092 513.453 633.683 504.594 633.683 504.594Z" fill="white"/>
<path d="M622.61 493.463C623.477 494.655 624.655 495.589 625.978 496.138" stroke="black" stroke-miterlimit="10"/>
<path d="M634.146 483.731C638.066 483.126 641.878 481.738 645.319 479.662" stroke="black" stroke-miterlimit="10"/>
<path d="M662.773 517.143C666.624 514.071 673.616 517.015 675.05 521.584C678.501 532.571 661.87 541.74 654.574 534.934C652.509 533.009 650.95 529.079 652.766 526.276" fill="#A04B4B"/>
<path d="M669.051 527.583L657.288 525.459" stroke="black" stroke-miterlimit="10"/>
<path d="M670.251 517.036C667.902 516.089 665.257 515.939 662.769 516.609" stroke="black" stroke-miterlimit="10"/>
<path d="M653.031 526.394C651.719 528.772 652.108 531.697 653.538 533.908C656.139 537.932 662.431 537.95 666.227 536.229" stroke="black" stroke-miterlimit="10"/>
<path d="M646.066 495.506C644.577 496.646 642.745 496.656 641.975 495.529C641.204 494.401 641.785 492.561 643.274 491.42C644.763 490.28 646.594 490.269 647.364 491.397C648.134 492.525 647.553 494.365 646.066 495.506Z" fill="black"/>
<path d="M681.869 554.892C644.384 559.599 621.435 577.778 621.435 577.778L627.954 609.322C661.481 575.559 694.099 567.942 694.426 567.579L681.869 554.892Z" fill="#FCDDD2"/>
<path d="M620.35 557.625L606.233 567.223C606.233 567.223 603.805 594.051 608.439 608.318L621.436 577.777L620.35 557.625Z" fill="#FCDDD2"/>
<path d="M621.435 577.778L627.954 609.322C661.481 575.559 694.099 567.942 694.426 567.579" stroke="black" stroke-miterlimit="10"/>
<path d="M620.35 557.625L606.233 567.223C606.233 567.223 603.805 594.051 608.439 608.318L621.436 577.777" stroke="black" stroke-miterlimit="10"/>
<path d="M481.235 472.33C485.023 486.594 490.636 500.311 497.874 512.991" stroke="black" stroke-miterlimit="10"/>
<path d="M482.472 496.83C484.851 506.002 487.704 515.034 491.013 523.875" stroke="black" stroke-miterlimit="10"/>
<path d="M713.912 516.057C714.115 522.592 711.716 529.02 708.043 534.277C704.37 539.532 699.483 543.714 694.322 547.304" stroke="black" stroke-miterlimit="10"/>
<path d="M709.713 547.073C714.881 543.968 719.289 539.461 722.403 534.102" stroke="black" stroke-miterlimit="10"/>
</svg>
