<svg width="669" height="423" viewBox="0 0 669 423" fill="none" xmlns="http://www.w3.org/2000/svg">
<path d="M352.961 64.1638C310.824 54.2558 280.145 63.8848 245.101 75.9768C227.827 81.9368 210.341 88.2398 192.138 90.6378C178.551 92.4278 164.825 92.9028 151.187 94.2578C137.008 95.6668 122.835 97.4448 108.919 100.573C85.4762 105.843 44.6452 115.553 47.1502 147.115C48.1532 159.754 56.7812 171.242 55.9102 183.891C54.7932 200.102 39.6692 212.659 29.7612 224.113C16.0842 239.924 3.78417 257.47 6.04017 279.45C7.85917 297.179 19.3742 312.758 33.5712 323.532C47.7682 334.306 64.5692 340.993 81.1232 347.595C106.337 357.651 127.659 369.428 147.494 388.126C158.984 398.958 171.218 409.69 186.11 414.94C206.121 421.995 231.632 415.856 239.781 394.665C244.223 383.112 245.472 369.663 252.362 359.168C259.459 348.357 274.423 339.26 287.624 341.01C309.124 343.86 317.509 359.811 327.757 376.588C332.762 384.781 338.703 392.327 347.109 397.246C361.528 405.683 375.935 402.393 391.136 398.97C407.56 395.272 424.152 392.283 440.871 390.284C469.236 386.894 497.775 388.412 526.04 391.977C552.879 395.363 591.848 413.009 613.983 389.061C623.681 378.569 625.612 364.205 622.08 350.802C617.019 331.597 606.128 310.276 606.716 290.329C607.584 260.881 620.857 241.28 637.08 218.27C644.849 207.252 650.834 195.009 650.554 181.224C649.911 149.508 630.028 125.157 609.298 103.29C588.613 81.4708 567.948 56.6098 547.019 37.2628" stroke="#ED725A" stroke-width="1.5" stroke-miterlimit="10"/>
<path d="M654.263 96.5478C654.263 101.156 650.528 104.891 645.92 104.891C641.312 104.891 637.577 101.156 637.577 96.5478C637.577 91.9398 641.313 88.2048 645.92 88.2048C650.528 88.2048 654.263 91.9398 654.263 96.5478Z" stroke="#ED725A" stroke-width="1.5" stroke-miterlimit="10"/>
<path d="M374.946 379.027C374.946 383.635 371.211 387.37 366.603 387.37C361.995 387.37 358.26 383.635 358.26 379.027C358.26 374.419 361.996 370.684 366.603 370.684C371.211 370.684 374.946 374.419 374.946 379.027Z" stroke="#ED725A" stroke-width="1.5" stroke-miterlimit="10"/>
<path d="M345.806 15.7538C349.27 15.7538 352.077 18.5618 352.077 22.0248V146.008C352.077 149.472 349.269 152.279 345.806 152.279H105.171C101.707 152.279 98.9002 149.471 98.9002 146.008V22.0248C98.9002 18.5618 101.708 15.7538 105.171 15.7538H345.806ZM345.806 14.2538H105.171C100.886 14.2538 97.4002 17.7398 97.4002 22.0248V146.008C97.4002 150.293 100.886 153.779 105.171 153.779H345.806C350.091 153.779 353.577 150.293 353.577 146.008V22.0248C353.578 17.7398 350.091 14.2538 345.806 14.2538Z" fill="white"/>
<path d="M345.806 152.279H105.171C101.707 152.279 98.9002 149.471 98.9002 146.008V32.4768H352.078V146.008C352.078 149.472 349.27 152.279 345.806 152.279Z" fill="#AFB9E8"/>
<path d="M113.627 24.6047C113.627 26.5867 112.02 28.1937 110.038 28.1937C108.056 28.1937 106.449 26.5867 106.449 24.6047C106.449 22.6227 108.056 21.0157 110.038 21.0157C112.02 21.0157 113.627 22.6227 113.627 24.6047Z" stroke="white" stroke-width="1.5" stroke-miterlimit="10"/>
<path d="M127.539 24.6047C127.539 26.5867 125.932 28.1937 123.95 28.1937C121.968 28.1937 120.361 26.5867 120.361 24.6047C120.361 22.6227 121.968 21.0157 123.95 21.0157C125.932 21.0157 127.539 22.6227 127.539 24.6047Z" stroke="white" stroke-width="1.5" stroke-miterlimit="10"/>
<path d="M98.9002 32.4768H352.078" stroke="white" stroke-width="1.5" stroke-miterlimit="10"/>
<path d="M331.723 134.89C329.177 131.515 324.832 128.409 321.44 130.733C318.594 132.683 318.488 137.086 318.709 140.746C310.639 129.322 301.037 119.189 290.304 110.769C284.488 106.207 277.804 101.99 270.66 102.54C263.516 103.09 259.81 113.115 261.688 120.658C242.182 94.8288 220.428 76.5078 197.773 60.6548C190.041 55.2448 181.461 50.0278 172.288 46.9438C162.531 43.6628 149.053 39.8178 140.237 47.4358C136.46 50.6998 134.492 55.6798 133.956 60.6428C133.293 66.7858 134.332 73.2728 136.006 79.1918C140.01 93.3508 146.432 106.701 153.881 119.277C161.333 131.857 177.724 152.516 177.724 152.516H339.481C338.242 146.075 335.556 139.971 331.723 134.89Z" fill="#909DF4"/>
<path d="M246.66 127.21C246.66 127.21 215.605 100.277 202.285 95.7099C188.965 91.1429 161.595 98.4789 161.252 98.4789C160.908 98.4789 136.751 152.283 136.751 152.283H235.827L246.66 127.21Z" fill="#EF9748"/>
<path d="M305.656 200.333C307.921 202.696 310.275 204.973 312.711 207.16C315.061 209.27 317.635 211.152 319.927 213.311C320.492 213.844 321.008 214.427 321.522 215.009C323.396 217.129 325.286 219.272 326.651 221.751C326.833 222.081 327.01 222.423 327.283 222.682C327.557 222.941 327.954 223.105 328.315 222.997C328.69 222.885 328.928 222.52 329.087 222.162C329.747 220.676 329.583 218.952 329.179 217.377C328.92 216.363 328.566 215.377 328.283 214.37C328.048 213.536 327.705 212.638 327.831 211.773C334.484 214.552 339.896 219.589 345.962 223.485C347.204 224.283 349.941 224.58 350.402 223.482C351.012 222.029 342.161 215.471 338.107 211.136C341.163 212.698 344.405 214.333 347.164 216.388C349.076 217.812 351.163 219.027 353.444 219.752C354.724 220.159 357.663 220.762 357.064 218.424C356.887 217.734 356.367 217.192 355.857 216.696C351.894 212.849 347.111 210.131 342.947 206.503C347.635 208.352 351.937 211.665 356.973 211.839C357.464 211.856 357.994 211.829 358.381 211.527C358.97 211.068 359.167 210.429 358.784 209.788C358.4 209.147 357.739 208.733 357.102 208.343C352.429 205.484 347.56 202.325 342.887 199.466C345.4 200.148 347.724 201.379 350.131 202.371C352.539 203.363 355.136 204.13 357.72 203.808C358.552 203.704 359.585 203.169 359.396 202.353C359.305 201.958 358.945 201.693 358.61 201.465C352.93 197.582 347.25 193.699 341.571 189.817C339.978 188.728 338.384 187.638 336.75 186.61C334.783 185.372 332.512 184.453 330.685 183.06C329.258 181.973 327.535 181.166 326.005 180.226C322.225 177.904 318.564 175.4 315.014 172.739" fill="#FFCAA3"/>
<path d="M327.956 211.752C326.168 210.965 324.352 210.241 322.513 209.581" stroke="black" stroke-miterlimit="10"/>
<path d="M338.374 211.124C335.948 209.464 333.435 207.931 330.848 206.535" stroke="black" stroke-miterlimit="10"/>
<path d="M342.96 206.407C340.967 205.144 338.975 203.881 336.982 202.618" stroke="black" stroke-miterlimit="10"/>
<path d="M345.155 200.703C343.671 199.886 342.243 198.968 340.883 197.958" stroke="black" stroke-miterlimit="10"/>
<path d="M209.436 96.5479C221.703 100.404 227.859 100.756 238.833 107.565C250.495 114.8 279.344 145.198 279.344 145.198C279.344 145.198 318.273 172.644 332.863 183.022L306.654 208.003C277.665 190.673 247.909 169.984 225.934 144.336" fill="#EF9748"/>
<path d="M164.926 147.065C164.926 147.065 177.092 140.54 182.446 139.193C189.862 137.328 198.658 136.801 201.016 137.519C202.12 137.855 206.275 139.562 208.449 142.105C210.758 143.115 211.696 143.621 213.067 144.198C214.438 144.775 215.082 146.389 216.518 147.619C217.953 148.849 219.529 152.275 219.529 152.275C219.529 152.275 208.581 152.312 205.506 152.414C202.43 152.516 199.109 158.388 192.228 160.468" fill="#FFCAA3"/>
<path d="M189.991 91.7079C181.551 91.6399 173.332 89.4409 164.909 89.4359C149.61 89.4269 140.829 97.4529 133.387 108.578C127.752 117.002 122.446 127.369 118.453 136.618C113.793 147.414 108.573 159.436 107.213 171.226C106.591 176.619 107.366 182.189 109.859 186.982C114.472 195.849 124.722 197.398 130.701 198.062C136.68 198.727 147.157 196.707 152.288 193.525C179.295 176.779 197.152 159.996 197.152 159.996L168.098 145.103L154.16 150.557L171.762 118.017" fill="#EF9748"/>
<path d="M170.333 120.659L154.161 150.559" stroke="black" stroke-miterlimit="10"/>
<path d="M168.099 145.105C159.768 148.338 151.436 151.57 143.105 154.803C137.417 157.01 131.841 161.377 127.31 165.437" stroke="black" stroke-miterlimit="10"/>
<path d="M158.117 149.166L188.217 167.688" stroke="black" stroke-miterlimit="10"/>
<path d="M239.022 134.674C235.037 141.262 229.519 152.276 229.519 152.276" stroke="black" stroke-miterlimit="10"/>
<path d="M322.236 175.487L293.035 199.809" stroke="black" stroke-miterlimit="10"/>
<path d="M207.324 145.224C209.441 145.786 211.595 146.211 213.767 146.496C214.438 146.584 215.137 146.668 215.705 147.035" stroke="black" stroke-miterlimit="10"/>
<path d="M209.193 142.675C208.817 142.486 208.421 142.341 208.025 142.196C205.929 141.426 203.771 140.645 201.539 140.703" stroke="black" stroke-miterlimit="10"/>
<path d="M202.391 153.634C203.524 152.818 204.924 152.448 206.312 152.304C209.194 152.005 212.279 152.626 215.045 151.542" stroke="black" stroke-miterlimit="10"/>
<path d="M94.1562 173.316C94.6232 184.712 101.895 195.568 112.256 200.337" stroke="black" stroke-miterlimit="10"/>
<path d="M86.0902 172.821C86.3262 180.257 89.3962 187.463 94.1562 191.752" stroke="black" stroke-miterlimit="10"/>
<path d="M249.968 100.687C258.854 108.208 267.108 116.477 274.613 125.377" stroke="black" stroke-miterlimit="10"/>
<path d="M250.165 91.7699C256.362 96.3719 262.042 101.67 267.062 107.533" stroke="black" stroke-miterlimit="10"/>
<path d="M178.416 106.875C173.72 105.188 169.369 102.678 165.075 100.137C163.254 99.0589 161.414 97.9549 159.944 96.4319C158.474 94.9089 157.393 92.8939 157.435 90.7779C157.474 88.8279 158.45 87.0089 159.663 85.4809C163.447 80.7149 169.563 78.2409 175.623 77.6909C181.683 77.1409 187.763 78.3109 193.686 79.7089C202.589 81.8099 211.678 84.6029 218.547 90.6439C220.48 92.3449 222.23 94.3159 223.31 96.6539C224.801 99.8829 224.911 103.612 224.274 107.111C223.637 110.61 222.295 113.935 220.962 117.232" fill="#EF9748"/>
<path d="M202.501 71.7008L190.529 75.1888L190.797 81.2078L184.737 91.5468C184.737 91.5468 199.062 97.0948 204.448 108.408C210.315 109.28 212.664 104.524 212.664 104.524L218.432 90.7028" fill="#FFCAA3"/>
<path d="M230.672 83.7148C231.704 77.7798 232.947 71.3588 232.85 66.6328C232.768 62.6318 232.156 56.5898 229.572 53.4558C226.246 49.4198 220.189 49.3548 215.105 48.7878C206.757 47.8578 200.988 55.4198 198.517 62.4838C196.619 67.9108 196.775 73.2078 198.533 78.8018C200.831 86.1128 208.979 95.9328 219.581 94.7278C225.207 94.0888 229.579 89.9998 230.672 83.7148Z" fill="#FFCAA3"/>
<path d="M220.427 70.7459C220.325 71.6289 219.695 72.2819 219.019 72.2039C218.343 72.1259 217.878 71.3469 217.98 70.4629C218.082 69.5799 218.713 68.9269 219.388 69.0049C220.064 69.0829 220.529 69.8619 220.427 70.7459Z" fill="black"/>
<path d="M231.98 71.8418C231.878 72.7248 231.247 73.3778 230.572 73.2998C229.896 73.2218 229.431 72.4428 229.533 71.5588C229.635 70.6758 230.266 70.0228 230.941 70.1008C231.617 70.1798 232.082 70.9588 231.98 71.8418Z" fill="black"/>
<path d="M226.858 69.8859C226.601 71.9309 226.812 74.0089 226.816 76.0609C226.819 77.3309 226.864 79.5679 225.214 79.8559C224.132 80.0449 221.775 79.3999 221.775 79.3999" stroke="black" stroke-miterlimit="10"/>
<path d="M222.698 83.0268L218.37 79.3828C218.37 79.3828 215.192 83.5368 216.833 85.0418C219.485 87.4748 222.698 83.0268 222.698 83.0268Z" fill="white"/>
<path d="M229.725 54.7198C231.634 57.7068 232.688 60.1098 232.769 69.0708C233.683 68.8428 234.609 68.6098 235.43 68.1488C236.251 67.6878 236.969 66.9628 237.21 66.0528C237.657 64.3668 236.401 62.6988 236.332 60.9558C236.282 59.6968 236.858 58.4958 237.542 57.4368C238.068 56.6218 238.684 55.8098 238.81 54.8478C238.988 53.4928 238.139 52.2048 237.127 51.2858C234.867 49.2348 231.838 48.4178 229.242 46.9128C227.984 46.1838 227.315 45.0448 226.147 44.1888C224.828 43.2218 223.418 42.3798 221.942 41.6758C218.537 40.0498 214.801 39.1718 211.035 39.0118C203.737 38.6998 196.527 41.4248 191.439 46.5228C184.713 53.2638 182.013 66.1198 186.233 73.5648C188.612 77.7608 190.796 81.2088 190.796 81.2088C191.066 81.6378 196.886 76.4128 197.243 75.7028C197.604 74.9828 197.74 74.1758 197.961 73.4008C198.714 70.7598 201.34 70.3168 203.591 69.4918C206.874 68.2898 208.516 65.3668 209.152 62.0678C209.518 60.1718 209.572 58.2298 209.625 56.2998C209.614 56.7318 212.267 57.6638 212.664 57.7868C216.578 58.9938 221.001 59.2068 224.974 58.1378C226.147 57.8228 227.397 57.4188 228.324 56.6178C228.578 56.3988 230.147 55.1498 229.725 54.7198Z" fill="#1E1611"/>
<path d="M205.268 89.4268C205.477 89.5788 209.633 94.1178 217.583 94.8278" stroke="black" stroke-miterlimit="10"/>
<path d="M213.423 64.4628C214.13 63.0778 215.545 62.0778 217.088 61.8758C218.63 61.6738 220.255 62.2748 221.296 63.4308" stroke="black" stroke-miterlimit="10"/>
<path d="M228.119 64.6518C228.644 63.4788 229.756 62.7298 230.727 62.8958C231.698 63.0618 232.431 64.1398 232.491 65.3968" stroke="black" stroke-miterlimit="10"/>
<path d="M224.588 73.0208C223.577 76.0268 220.379 77.6238 217.446 76.5878C214.513 75.5518 212.955 72.2738 213.966 69.2678C214.977 66.2618 218.175 64.6648 221.108 65.7008C224.041 66.7368 225.599 70.0148 224.588 73.0208Z" stroke="#572A2F" stroke-miterlimit="10"/>
<path d="M235.367 74.4257C234.823 77.5567 232.805 79.8067 230.859 79.4517C228.913 79.0967 227.776 76.2707 228.319 73.1407C228.863 70.0097 230.881 67.7597 232.827 68.1147C234.774 68.4697 235.911 71.2947 235.367 74.4257Z" stroke="#572A2F" stroke-miterlimit="10"/>
<path d="M228.834 71.4807L224.882 70.7407" stroke="#572A2F" stroke-miterlimit="10"/>
<path d="M214.19 68.7028L202.285 69.6118" stroke="#572A2F" stroke-miterlimit="10"/>
<path d="M205.688 71.7567C205.629 68.8707 201.734 66.6078 199.172 67.5278C193.012 69.7398 195.087 80.7718 200.811 81.8298C202.43 82.1288 204.755 81.4917 205.328 79.6577" fill="#FFCAA3"/>
<path d="M198.725 72.4478L204.019 77.2438" stroke="black" stroke-miterlimit="10"/>
<path d="M202.969 68.1987C204.258 68.9747 205.304 70.1667 205.926 71.5727" stroke="black" stroke-miterlimit="10"/>
<path d="M195.648 76.6267C196.442 78.9857 198.063 81.4827 200.629 81.9077C202.41 82.2027 204.45 81.4227 205.179 79.5747" stroke="black" stroke-miterlimit="10"/>
<path d="M182.054 60.3868C182.174 56.5048 182.6 52.5938 183.863 48.9208C185.126 45.2478 187.278 41.8048 190.383 39.4718C192.102 38.1808 194.067 37.2568 196.055 36.4398C197.729 35.7518 199.439 35.1318 201.21 34.7548C207.845 33.3428 214.717 35.4418 220.932 38.1598" fill="#FFC36C"/>
<path d="M223.904 38.6917C222.266 37.1127 220.147 36.0927 217.943 35.5277C216.629 35.1907 215.27 35.0077 213.916 35.0747C213.212 35.1097 212.512 35.2127 211.82 35.3487C207.011 36.2947 202.676 38.8177 198.508 41.3967C192.942 44.8407 187.386 48.5477 183.304 53.6637C181.83 55.5107 180.526 57.6417 180.394 60.0007C180.321 61.3077 180.616 62.6107 181.044 63.8487C181.766 65.9357 183.463 68.9127 184.884 70.6037C197.125 59.1527 210.874 50.0937 226.748 44.7117C226.665 42.4387 225.542 40.2707 223.904 38.6917Z" fill="#FFC36C"/>
<path d="M182.847 54.2568C182.847 54.2568 193.181 39.8498 212.362 35.0618" stroke="black" stroke-miterlimit="10"/>
<path d="M188.217 55.8848C189.73 58.5008 191.281 61.1638 193.534 63.1788" stroke="black" stroke-miterlimit="10"/>
<path d="M200.292 45.0529C201.859 48.3549 203.804 51.4899 206.08 54.3789" stroke="black" stroke-miterlimit="10"/>
<path d="M213.101 38.1698C215.743 40.8928 218.002 43.9868 219.79 47.3338" stroke="black" stroke-miterlimit="10"/>
<path d="M217.52 36.6118C219.79 39.4078 221.78 42.7278 223.262 45.9658" stroke="black" stroke-miterlimit="10"/>
<path d="M182.209 57.4978C182.951 61.6488 185.38 65.1668 188.48 67.6658" stroke="black" stroke-miterlimit="10"/>
<path d="M175.141 87.7068C180.992 89.8928 186.902 92.1068 192.108 95.5578C197.315 99.0078 202.587 103.856 204.447 109.819" stroke="black" stroke-miterlimit="10"/>
<path d="M208.5 108.003C211.164 106.725 213.328 104.435 214.453 101.703" stroke="black" stroke-miterlimit="10"/>
<path d="M157.433 90.1478C160.139 105.688 180.639 102.715 190.188 107.533" stroke="black" stroke-miterlimit="10"/>
<path d="M224.624 101.438C224.25 103.572 223.512 105.7 222.096 107.34C219.968 109.803 216.66 110.823 213.534 111.729" stroke="black" stroke-miterlimit="10"/>
<path d="M216.363 108.003C217.785 117.776 219.224 128.728 218.769 138.593" stroke="black" stroke-miterlimit="10"/>
<path d="M194.64 105.758C196.123 109.819 195.426 120.83 195.265 130.763" stroke="black" stroke-miterlimit="10"/>
<path d="M293.857 390.329H71.2212C67.7572 390.329 64.9502 387.521 64.9502 384.058V233.31H300.128V384.058C300.128 387.522 297.32 390.329 293.857 390.329Z" fill="#D4BCDD"/>
<path d="M293.857 212.988C297.321 212.988 300.128 215.796 300.128 219.259V384.058C300.128 387.522 297.32 390.329 293.857 390.329H71.2212C67.7572 390.329 64.9502 387.521 64.9502 384.058V219.259C64.9502 215.795 67.7582 212.988 71.2212 212.988H293.857ZM293.857 211.488H71.2212C66.9362 211.488 63.4502 214.974 63.4502 219.259V384.058C63.4502 388.343 66.9362 391.829 71.2212 391.829H293.856C298.141 391.829 301.627 388.343 301.627 384.058V219.259C301.628 214.974 298.142 211.488 293.857 211.488Z" fill="white"/>
<path d="M82.8472 223.744C82.8472 226.153 80.8942 228.106 78.4862 228.106C76.0772 228.106 74.1252 226.153 74.1252 223.744C74.1252 221.335 76.0782 219.383 78.4862 219.383C80.8942 219.383 82.8472 221.336 82.8472 223.744Z" stroke="white" stroke-width="1.5" stroke-miterlimit="10"/>
<path d="M95.3912 228.105C97.7997 228.105 99.7522 226.152 99.7522 223.744C99.7522 221.335 97.7997 219.383 95.3912 219.383C92.9827 219.383 91.0302 221.335 91.0302 223.744C91.0302 226.152 92.9827 228.105 95.3912 228.105Z" stroke="white" stroke-width="1.5" stroke-miterlimit="10"/>
<path d="M64.9502 233.31H300.128" stroke="white" stroke-width="1.5" stroke-miterlimit="10"/>
<path d="M277.53 390.329C274.372 382.542 270.07 375.249 264.815 368.776C261.589 364.802 257.84 361.024 253.107 359.276C248.374 357.527 242.467 358.293 239.249 362.274C236.787 365.319 236.319 369.525 235.952 373.47C228.156 365.102 220.26 356.649 210.751 350.442C201.242 344.235 189.702 339.82 178.691 342.234C166.481 344.911 166.481 360.343 166.481 360.343C166.481 360.343 158.996 349.851 158.32 348.864C153.314 341.542 147.651 334.836 141.624 328.396C135.705 322.072 130.076 315.421 123.408 309.9C116.763 304.399 105.979 297.374 97.0482 300.703C92.4022 302.435 91.1222 306.466 92.1532 311.114C93.1172 315.464 93.6252 319.823 94.9772 324.105C87.4662 315.733 78.9182 308.024 69.0092 302.813C61.8592 299.053 46.9412 292.682 39.5202 298.84C37.3802 300.616 36.4082 303.558 36.3452 306.388C35.9562 323.71 48.4372 342.325 58.4932 355.123C68.8102 368.254 81.2572 379.885 94.1462 390.329H277.53Z" fill="#FFDD99"/>
<path d="M232.341 312.069C231.007 319.432 231.403 327.044 231.439 334.567C231.475 342.091 232.081 347.013 229.359 353.842C226.902 360.009 221.77 362.104 219.091 368.144C217.727 371.22 212.554 390.315 212.554 390.315H143.081C143.081 390.315 141.133 360.299 151.846 334.684C162.559 309.068 175.951 304.474 175.951 304.474L215.476 294.279L232.341 312.069Z" fill="#735D9D"/>
<path d="M323.358 267.289C325.419 264.803 328.302 263.243 330.77 261.221C333.045 259.358 334.745 256.745 336.632 254.488C338.94 251.727 340.734 248.586 342.736 245.607C344.884 242.41 347.637 239.824 350.363 237.133C350.741 236.759 351.128 236.374 351.343 235.888C351.732 235.01 351.279 233.856 350.271 233.584C348.301 233.053 346.2 233.557 344.289 234.272C343.154 234.697 339.305 236.06 339.071 233.893C338.807 231.444 340.857 227.868 341.643 225.598C342.664 222.645 343.71 219.685 344.539 216.67C345.328 213.798 345.149 208.279 343.622 208.189C342.094 208.099 343.247 209.014 342.849 209.23C343.487 208.39 342.37 206.451 341.454 205.872C340.538 205.293 339.346 207.168 339.072 208.179C339.384 207.192 338.517 205.561 337.783 205.493C336.715 205.394 335.885 206.406 335.248 207.231C334.611 208.056 334.045 208.978 333.144 209.53C333.151 208.822 333.045 208.112 332.83 207.432C332.134 207.038 331.334 207.69 330.831 208.284C320.592 220.373 313.664 235.363 302.306 247.001" fill="#E27769"/>
<path d="M339.312 232.232C339.348 235.208 339.272 238.185 339.085 241.156" stroke="black" stroke-miterlimit="10"/>
<path d="M342.523 208.521C341.629 211.33 339.903 213.704 338.606 216.317C336.541 220.476 334.696 224.737 332.78 228.965" stroke="black" stroke-miterlimit="10"/>
<path d="M338.998 207.969C338.373 209.283 337.66 210.555 336.865 211.773C336.013 213.079 335.069 214.322 334.157 215.586C331.549 219.2 329.198 222.999 327.126 226.945" stroke="black" stroke-miterlimit="10"/>
<path d="M332.79 209.979C332.1 211.451 330.974 212.664 329.911 213.894C326.581 217.746 323.714 221.997 321.391 226.528" stroke="black" stroke-miterlimit="10"/>
<path d="M195.537 298.262C207.967 293.06 216.109 287.598 228.415 282.055C239.511 277.058 255.082 272.959 266.023 267.625C281.153 260.249 295.34 252.102 307.777 240.942L330.371 264.729C330.371 264.729 298.442 297.301 287.295 303.65C260.432 318.951 250.647 321.816 222.723 336.42" fill="#735D9D"/>
<path d="M231.123 332.33C231.281 326.712 232.562 321.128 234.87 316.003" stroke="black" stroke-miterlimit="10"/>
<path d="M300.236 247.196L322.644 272.346" stroke="black" stroke-miterlimit="10"/>
<path d="M191.921 367.219C201.397 367.395 210.833 368.891 219.048 373.883C222.993 376.28 225.191 379.487 226.278 383.938C227.196 387.696 227.493 391.715 227.155 395.57C227.123 395.936 226.84 396.273 226.525 396.349C226.08 396.457 225.185 396.013 225.185 396.013C225.185 396.013 225.993 399.835 225.137 400.63C224.541 401.184 223.416 400.431 222.993 399.97C222.5 399.433 221.827 398.061 221.827 398.061C221.827 398.061 222.392 400.254 221.915 400.632C221.207 401.192 219.16 399.772 218.676 398.335C218.378 399.151 217.892 399.908 217.139 399.708C214.771 399.079 212.918 395.729 210.969 394.068C208.379 391.86 204.905 391.71 201.674 391.759C200.187 391.781 198.696 391.818 197.213 391.671C195.694 391.52 194.326 390.924 192.844 390.624C190.086 390.066 187.209 389.811 184.411 389.648" fill="#E27769"/>
<path d="M209.42 386.957C212.021 388.038 214.777 389.242 216.241 391.471C216.679 392.138 216.98 392.87 217.249 393.606C217.815 395.158 218.247 396.747 218.678 398.334" stroke="black" stroke-miterlimit="10"/>
<path d="M213.152 382.257C214.631 383.197 216.081 384.2 217.335 385.424C218.589 386.648 219.646 388.106 220.217 389.762C220.543 390.709 220.706 391.703 220.87 392.691C221.207 394.726 221.556 396.759 221.915 398.79" stroke="black" stroke-miterlimit="10"/>
<path d="M218.231 379.027C220.694 380.863 222.623 383.408 223.724 386.276C224.698 388.812 225.023 391.543 225.341 394.242C225.442 395.097 225.542 395.952 225.643 396.807" stroke="black" stroke-miterlimit="10"/>
<path d="M181.485 300.081C181.485 300.081 161.874 302.982 154.348 307.305C142.582 314.064 137.41 324.38 129.912 341.874C122.414 359.368 119.373 367.045 119.3 372.841C119.192 381.374 123.033 390.317 138.728 390.317C166.687 390.317 188.781 390.317 188.781 390.317L198.88 366.727L159.932 360.633L170.68 335.47" fill="#735D9D"/>
<path d="M198.879 366.727L159.931 360.633L170.679 335.47" stroke="black" stroke-miterlimit="10"/>
<path d="M146.099 364.233C146.399 364.233 152.327 360.539 159.932 360.633" stroke="black" stroke-miterlimit="10"/>
<path d="M188.135 365.046L177.451 390.317" stroke="black" stroke-miterlimit="10"/>
<path d="M211.893 306.089C212.408 303.428 212.39 300.588 211.963 297.734" stroke="black" stroke-miterlimit="10"/>
<path d="M170.387 305.417C172.548 310.813 177.328 315.287 182.55 317.576C189.125 320.457 198.043 320.99 204.327 317.142C207.254 315.349 209.268 312.992 210.538 310.3" stroke="black" stroke-miterlimit="10"/>
<path d="M281.001 315.533C292.71 309.568 303.416 301.641 312.537 292.181" stroke="black" stroke-miterlimit="10"/>
<path d="M302.842 309.873C308.518 305.477 313.84 300.624 318.74 295.377" stroke="black" stroke-miterlimit="10"/>
<path d="M115.051 358.123C112.574 366.201 111.68 374.761 112.436 383.176" stroke="black" stroke-miterlimit="10"/>
<path d="M107.232 359.328C105.669 363.861 104.775 368.625 104.59 373.417" stroke="black" stroke-miterlimit="10"/>
<path d="M188.048 275.964L177.323 283.152L179.638 290.818L176.413 302.374C176.207 303.111 176.332 303.895 176.758 304.53C178.51 307.139 183.947 313.622 194.723 313.612C206.113 313.601 205.953 306.046 205.953 306.046L208.027 289.954" fill="#E27769"/>
<path d="M209.622 275.006C206.673 269.511 204.988 266.111 201.89 262.322C199.267 259.114 194.91 254.581 190.802 253.678C185.513 252.513 180.536 256.329 176.031 259.115C168.634 263.689 168.763 273.536 171.261 280.871C173.18 286.506 177.148 288.656 182.154 292.092C188.696 296.582 202.916 298.613 209.021 293.693C213.588 290.014 212.745 280.826 209.622 275.006Z" fill="#E27769"/>
<path d="M193.813 274.522C194.163 275.374 193.919 276.281 193.267 276.549C192.616 276.817 191.804 276.344 191.454 275.492C191.104 274.641 191.348 273.733 192 273.465C192.651 273.197 193.463 273.67 193.813 274.522Z" fill="black"/>
<path d="M204.315 268.736C204.665 269.587 204.421 270.495 203.77 270.763C203.119 271.031 202.307 270.557 201.957 269.706C201.607 268.854 201.851 267.947 202.503 267.679C203.153 267.411 203.965 267.884 204.315 268.736Z" fill="black"/>
<path d="M198.691 272.437C199.867 273.485 201.284 274.19 202.703 274.845C203.582 275.251 206.513 276.032 205.859 277.458C205.439 278.374 203.725 279.821 203.725 279.821" stroke="black" stroke-miterlimit="10"/>
<path d="M177.232 299.439C177.232 299.439 178.571 296.013 178.897 294.788C179.446 292.719 177.705 292.613 177.105 290.791C176.792 289.842 177.049 288.679 177.26 287.739C177.712 285.722 178.751 283.457 177.82 281.421C177.231 280.132 175.965 279.315 174.952 278.324C173.938 277.333 173.113 275.822 173.72 274.541C174.438 273.025 176.559 272.912 177.86 271.853C179.16 270.795 179.464 268.929 179.375 267.255C179.286 265.581 178.9 263.895 179.193 262.245C179.246 261.948 179.328 261.64 179.538 261.423C180.173 260.765 181.232 261.402 182.029 261.85C183.462 262.656 185.195 262.556 186.694 261.949C187.454 261.641 188.151 261.077 188.425 260.304C188.595 259.827 188.593 259.308 188.676 258.808C188.759 258.308 188.956 257.784 189.388 257.519C189.702 257.327 190.09 257.303 190.457 257.319C191.614 257.371 192.753 257.776 193.683 258.468C194.462 259.048 194.899 259.468 195.881 259.431C196.824 259.395 197.731 259.083 198.673 259.357C199.809 259.688 200.568 260.729 201.238 261.704C203.082 264.388 204.926 267.072 206.77 269.756C207.692 268.425 208.628 267.065 209.082 265.511C209.535 263.957 209.43 262.148 208.41 260.891C207.427 259.68 205.749 259.137 204.914 257.819C203.991 256.363 204.134 254.259 204.034 252.61C203.925 250.81 203.371 248.993 202.343 247.473C201.348 246.002 199.676 244.859 197.905 244.994C196.88 245.072 195.905 245.564 194.878 245.533C194.243 245.514 193.632 245.296 193.049 245.045C190.348 243.886 188.007 242.005 185.316 240.824C182.625 239.643 179.249 239.284 176.927 241.086C175.736 242.01 174.946 243.41 173.65 244.179C169.913 246.397 164.551 242.219 160.99 244.708C158.692 246.314 158.621 249.792 156.686 251.821C154.212 254.415 149.712 253.733 146.905 255.962C144.073 258.211 144.062 262.695 145.761 265.888C146.601 267.466 147.824 269.091 147.462 270.841C147.236 271.931 146.431 272.79 145.747 273.669C144.77 274.927 143.975 276.379 143.78 277.96C143.585 279.541 144.07 281.262 145.288 282.288C146.045 282.926 147.198 283.228 147.771 284.054C148.416 284.984 148.597 286.651 148.724 287.747C148.836 288.71 148.848 289.694 149.139 290.619C149.934 293.144 152.721 294.648 155.368 294.649C156.589 294.649 157.929 294.42 158.933 295.114C159.765 295.688 160.104 296.727 160.608 297.603C162.248 300.451 166.238 301.648 169.175 300.173C170.279 299.619 171.299 298.729 172.534 298.71C173.761 298.693 176.07 299.641 177.232 299.439Z" fill="#2C221D"/>
<path d="M194.479 296.284C197.785 297.108 204.049 297.281 208.797 294.281" stroke="black" stroke-miterlimit="10"/>
<path d="M185.539 274.265C185.529 270.949 187.719 267.769 191.295 268.396" stroke="black" stroke-miterlimit="10"/>
<path d="M197.865 266.004C197.753 265.059 198.463 263.954 199.532 263.411C200.601 262.868 201.93 262.95 202.677 263.559" stroke="black" stroke-miterlimit="10"/>
<path d="M183.029 283.848C181.138 281.534 176.519 282.177 175.018 284.563C171.411 290.3 180.149 297.965 185.489 295.171C187 294.381 188.487 292.376 187.783 290.516" fill="#E27769"/>
<path d="M177.796 288.858L185.174 289.385" stroke="black" stroke-miterlimit="10"/>
<path d="M178.541 282.685C180.087 282.493 181.701 282.798 183.105 283.546" stroke="black" stroke-miterlimit="10"/>
<path d="M177.958 294.229C180.112 295.645 183.028 296.644 185.39 295.351C187.029 294.454 188.193 292.515 187.607 290.544" stroke="black" stroke-miterlimit="10"/>
<path d="M199.841 280.366C199.365 282.142 199.953 284.476 201.991 284.843C203.519 285.119 205.173 284.178 205.667 282.699" stroke="black" stroke-miterlimit="10"/>
<path d="M607.749 179.227H384.849C381.385 179.227 378.578 176.419 378.578 172.956V62.7698H614.02V172.955C614.02 176.419 611.212 179.227 607.749 179.227Z" fill="#D5D8BC"/>
<path d="M607.749 46.0468C611.213 46.0468 614.02 48.8548 614.02 52.3178V172.955C614.02 176.419 611.212 179.226 607.749 179.226H384.849C381.385 179.226 378.578 176.418 378.578 172.955V52.3188C378.578 48.8548 381.386 46.0478 384.849 46.0478L607.749 46.0468ZM607.749 44.5468H384.849C380.564 44.5468 377.078 48.0328 377.078 52.3178V172.955C377.078 177.24 380.564 180.726 384.849 180.726H607.748C612.033 180.726 615.519 177.24 615.519 172.955V52.3188C615.52 48.0338 612.034 44.5468 607.749 44.5468Z" fill="white"/>
<path d="M389.716 51.3098C391.698 51.3098 393.305 52.9168 393.305 54.8988C393.305 56.8808 391.698 58.4878 389.716 58.4878C387.734 58.4878 386.127 56.8808 386.127 54.8988C386.127 52.9168 387.734 51.3098 389.716 51.3098ZM389.716 49.8098C386.91 49.8098 384.627 52.0928 384.627 54.8988C384.627 57.7048 386.91 59.9878 389.716 59.9878C392.522 59.9878 394.805 57.7048 394.805 54.8988C394.805 52.0928 392.522 49.8098 389.716 49.8098Z" fill="white"/>
<path d="M403.628 51.3098C405.61 51.3098 407.217 52.9168 407.217 54.8988C407.217 56.8808 405.61 58.4878 403.628 58.4878C401.646 58.4878 400.039 56.8808 400.039 54.8988C400.039 52.9168 401.646 51.3098 403.628 51.3098ZM403.628 49.8098C400.822 49.8098 398.539 52.0928 398.539 54.8988C398.539 57.7048 400.822 59.9878 403.628 59.9878C406.434 59.9878 408.717 57.7048 408.717 54.8988C408.717 52.0928 406.434 49.8098 403.628 49.8098Z" fill="white"/>
<path d="M378.578 62.7698H614.02" stroke="white" stroke-width="1.5" stroke-miterlimit="10"/>
<path d="M581.872 158.406C577.464 151.042 572.789 143.401 565.549 138.909C558.309 134.417 547.708 134.247 542.303 140.89C537.512 146.778 538.402 155.363 539.55 162.912C534.219 156.106 527.975 150.039 521.044 144.932C515.695 140.991 509.797 137.565 503.301 136.33C496.557 135.047 488.863 136.461 483.33 140.632C475.778 146.324 475.894 155.286 476.635 163.931C467.469 146.557 457.282 129.321 443.171 115.434C439.519 111.84 435.227 108.728 430.291 107.351C427.46 106.562 424.265 106.408 421.727 107.89C417.869 110.141 416.848 115.222 416.738 119.688C416.605 125.076 417.226 130.482 418.578 135.7C416.115 133.054 412.866 131.095 409.316 130.416C401.148 128.852 393.087 135.03 392.621 143.415C392.137 152.138 397.445 160.465 401.499 167.792C403.044 170.584 404.632 173.366 406.381 176.037C406.722 176.558 408.023 179.148 408.813 179.148C408.817 179.148 593.553 179.148 593.553 179.148C589.66 172.64 585.766 164.911 581.872 158.406Z" fill="#B5AE6B"/>
<mask id="mask0_42_3442" style="mask-type:luminance" maskUnits="userSpaceOnUse" x="378" y="46" width="237" height="134">
<path d="M607.749 179.227H384.849C381.385 179.227 378.578 176.419 378.578 172.956V52.3187C378.578 48.8547 381.386 46.0477 384.849 46.0477H607.748C611.212 46.0477 614.019 48.8557 614.019 52.3187V172.956C614.02 176.419 611.212 179.227 607.749 179.227Z" fill="white"/>
</mask>
<g mask="url(#mask0_42_3442)">
<path d="M598.037 170.969L536.249 52.5487L518.69 51.5157L504.902 62.7697L469.43 88.5608L509.306 205.424L598.037 170.969Z" fill="white"/>
<path d="M481.95 86.8558C485.398 89.7288 490.2 90.8988 494.583 89.9338" stroke="black" stroke-miterlimit="10"/>
<path d="M498.904 88.5608C503.222 87.1088 507.053 84.2458 509.669 80.5158C512.285 76.7858 513.672 72.2088 513.566 67.6538" stroke="black" stroke-miterlimit="10"/>
<path d="M581.177 126.941C570.487 106.553 538.406 42.3008 529.942 45.4648C520.23 49.0948 509.306 58.4548 509.306 58.4548C509.306 58.4548 514.539 75.2038 514.938 76.7918C516.393 82.5828 517.89 88.3618 519.43 94.1308C523.264 108.492 526.68 123.065 531.415 137.163C536.224 151.482 541.552 165.634 547.297 179.603C549.6 185.203 551.45 191.766 555.832 196.149C558.317 198.68 561.794 200.445 565.328 200.134C567.768 199.919 570.01 198.76 572.18 197.624C581.727 192.624 608.337 180.701 608.337 180.701C608.337 180.701 594.66 152.656 581.177 126.941Z" fill="#4C4139"/>
<path d="M526.668 205.302C524.07 195.838 519.622 187.129 516.328 177.93C512.019 165.895 508.19 153.693 503.744 141.706C496.962 123.421 487.345 98.1358 479.983 80.0768C479.983 80.0768 466.486 87.8198 463.764 89.6968C461.042 91.5748 461.633 96.0418 461.633 96.0418C472.376 136.107 504.914 227.1 504.914 227.1C508.766 225.064 518.32 219.697 522.172 217.661C527.249 214.979 528.128 210.619 526.668 205.302Z" fill="#4C4139"/>
<path d="M466.443 88.0128C478.921 107.182 488.636 122.791 501.641 141.607" stroke="black" stroke-miterlimit="10"/>
<path d="M526.245 50.3038C528.834 75.7328 530.412 101.264 530.977 126.818" stroke="black" stroke-miterlimit="10"/>
</g>
<path d="M396.72 186.047C394.117 188.032 391.44 189.919 388.697 191.704C386.05 193.426 383.217 194.888 380.618 196.668C379.977 197.107 379.378 197.604 378.78 198.099C376.601 199.905 374.404 201.73 372.673 203.969C372.443 204.267 372.215 204.578 371.905 204.791C371.595 205.005 371.177 205.105 370.837 204.943C370.484 204.774 370.305 204.377 370.203 203.999C369.78 202.429 370.208 200.751 370.85 199.257C371.263 198.295 371.764 197.376 372.199 196.424C372.56 195.636 373.037 194.802 373.046 193.928C366.044 195.648 359.92 199.789 353.325 202.703C351.975 203.3 349.225 203.172 348.938 202.015C348.559 200.486 358.316 195.371 362.99 191.713C359.73 192.785 356.274 193.9 353.232 195.505C351.123 196.617 348.874 197.495 346.508 197.86C345.181 198.064 342.184 198.208 343.136 195.99C343.417 195.336 344.014 194.88 344.596 194.469C349.105 191.279 354.25 189.332 358.924 186.39C354.007 187.494 349.246 190.104 344.243 189.499C343.756 189.44 343.236 189.332 342.9 188.974C342.389 188.429 342.292 187.768 342.77 187.193C343.248 186.619 343.965 186.312 344.655 186.025C349.713 183.921 355.011 181.551 360.069 179.447C357.481 179.733 354.995 180.591 352.463 181.2C349.931 181.809 347.246 182.166 344.743 181.449C343.937 181.218 342.999 180.53 343.312 179.753C343.463 179.377 343.86 179.171 344.225 178.996C350.436 176.036 356.647 173.076 362.857 170.115C364.599 169.285 366.342 168.454 368.115 167.69C371.964 166.032 375.685 164.136 379.545 162.482C383.598 160.746 387.672 159.063 391.768 157.431" fill="#D16159"/>
<path d="M372.924 193.889C374.812 193.387 376.718 192.952 378.637 192.584" stroke="black" stroke-miterlimit="10"/>
<path d="M362.728 191.662C365.381 190.396 368.101 189.269 370.872 188.288" stroke="black" stroke-miterlimit="10"/>
<path d="M358.925 186.294C361.088 185.354 363.252 184.413 365.415 183.473" stroke="black" stroke-miterlimit="10"/>
<path d="M357.635 180.32C359.227 179.741 360.78 179.055 362.279 178.267" stroke="black" stroke-miterlimit="10"/>
<path d="M463.765 89.6968C459.141 92.7768 454.568 96.2168 451.634 99.4078C446.929 104.526 419.264 138.056 419.264 138.056C419.264 138.056 390.926 155.146 374.685 164.584L392.443 193.515C392.443 193.515 425.367 181.678 442.158 169.883C457.421 159.161 486.641 124.03 486.641 124.03" fill="#4C4139"/>
<path d="M475.343 138.062L466.443 110.384" stroke="black" stroke-miterlimit="10"/>
<path d="M389.63 155.789L409.333 186.398" stroke="black" stroke-miterlimit="10"/>
<path d="M387.211 184.992L403.556 177.424" stroke="black" stroke-miterlimit="10"/>
<path d="M398.156 177.044C398.238 177.794 397.697 178.468 396.948 178.551C396.198 178.633 395.524 178.092 395.441 177.342C395.359 176.592 395.9 175.918 396.65 175.835C397.399 175.753 398.073 176.294 398.156 177.044Z" stroke="black" stroke-miterlimit="10"/>
<path d="M390.172 180.661C390.927 180.661 391.538 180.049 391.538 179.295C391.538 178.54 390.927 177.929 390.172 177.929C389.418 177.929 388.806 178.54 388.806 179.295C388.806 180.049 389.418 180.661 390.172 180.661Z" stroke="black" stroke-miterlimit="10"/>
<path d="M419.073 138.473C419.05 138.289 419.027 138.105 419.004 137.922C422.777 136.791 426.379 135.089 429.65 132.893" stroke="black" stroke-miterlimit="10"/>
<path d="M432.403 105.855C437.758 99.4128 444.314 93.9718 451.633 89.8958" stroke="black" stroke-miterlimit="10"/>
<path d="M436.717 91.1378C441.785 87.3658 447.326 84.2298 453.17 81.8278" stroke="black" stroke-miterlimit="10"/>
<path d="M490.916 38.4838L494.873 50.2028L508.991 63.8608C508.991 63.8608 509.359 71.9868 501.372 80.5058C493.446 88.9598 484.858 83.2858 484.858 83.2858L474.608 68.2148" fill="#D16159"/>
<path d="M457.865 69.0277C456.241 63.8247 454.193 52.6007 454.35 48.3267C454.483 44.7077 455.565 41.1667 457.949 38.3687C461.018 34.7657 468.234 36.0567 472.842 35.6187C480.408 34.8997 485.135 43.8647 487.268 50.2917C488.906 55.2287 489.685 60.3117 488.013 65.3477C485.293 73.5357 476.559 81.8117 467.318 79.5727C462.298 78.3557 459.438 74.0707 457.865 69.0277Z" fill="#D16159"/>
<path d="M498.061 37.0167C496.847 35.7207 495.178 34.7037 494.638 33.0117C494.339 32.0737 493.874 29.2667 493.571 28.3307C491.882 23.1087 487.503 21.3607 482.527 22.2187C481.996 17.2247 476.699 16.7427 472.349 16.6927C470.537 16.6717 468.694 16.4947 467.071 15.6277C465.355 14.7107 463.799 13.4127 461.795 13.2217C460.007 13.0517 458.166 13.6407 456.681 14.6177C451.523 18.0087 450.05 24.5697 443.732 26.5507C441.736 27.1767 439.65 27.3617 437.927 28.6717C436.641 29.6487 435.684 31.1107 435.503 32.7167C435.245 35.0077 436.759 36.4017 438.322 37.7957C440.145 39.4217 441.208 41.4937 441.061 43.9677C440.972 45.4657 440.571 46.9247 440.331 48.4057C439.649 52.6227 440.996 56.6087 444.528 59.1617C445.273 59.6997 446.281 60.2037 449.008 60.7957C450.93 61.2127 455.916 60.4927 455.916 60.4927C455.916 60.4927 454.685 53.3197 454.708 50.5277C454.73 47.8717 455.54 45.3967 457.094 43.2747C458.42 41.4637 461.319 40.8267 463.479 40.9237C466.714 41.0687 469.804 42.8517 473.02 42.4747C474.356 42.3177 475.626 41.7547 476.675 40.9157C481.001 43.7167 485.479 47.8347 486.47 52.8557C486.52 53.1107 487.156 56.0837 486.932 56.1307C490.641 55.3507 495.314 55.0507 496.981 51.0007C497.556 49.6037 497.266 48.1347 497.701 46.7187C498.061 45.5457 499.11 44.6897 499.599 43.5637C500.543 41.3847 499.683 38.7487 498.061 37.0167Z" fill="#2C221D"/>
<path d="M482.642 52.2418C482.834 49.0148 487.29 46.6528 490.117 47.7938C496.914 50.5378 494.11 62.7918 487.659 63.7258C485.834 63.9898 483.261 63.1748 482.7 61.0978" fill="#D16159"/>
<path d="M490.403 53.3187L484.269 58.4547" stroke="black" stroke-miterlimit="10"/>
<path d="M485.839 48.3798C484.362 49.1918 483.14 50.4808 482.383 52.0258" stroke="black" stroke-miterlimit="10"/>
<path d="M493.664 58.1298C492.673 60.7348 490.75 63.4588 487.86 63.8218C485.854 64.0738 483.606 63.1118 482.871 61.0128" stroke="black" stroke-miterlimit="10"/>
<path d="M480.366 76.6797C480.366 76.6797 483.667 74.5827 485.839 69.9647" stroke="black" stroke-miterlimit="10"/>
<path d="M463.372 56.6127C463.678 59.4907 463.995 62.3677 464.323 65.2437C464.368 65.6407 464.427 66.0667 464.702 66.3577C465.787 67.5047 468.275 66.9537 469.431 66.2667" stroke="black" stroke-miterlimit="10"/>
<path d="M472.142 67.4468L467.167 70.3528C467.167 70.3528 469.092 74.0428 471.019 73.3218C474.608 71.9808 472.142 67.4468 472.142 67.4468Z" fill="white"/>
<path d="M465.906 50.3917C466.416 49.3447 467.464 48.6417 468.572 48.2837C470.445 47.6787 472.588 47.9757 474.226 49.0677" stroke="black" stroke-miterlimit="10"/>
<path d="M454.282 54.5677C454.461 53.4707 455.091 52.6407 455.827 52.1417C457.07 51.2987 458.671 51.3077 460.05 52.1637" stroke="black" stroke-miterlimit="10"/>
<path d="M472.488 54.6827C472.743 55.7567 472.274 56.7877 471.441 56.9847C470.608 57.1817 469.726 56.4717 469.472 55.3977C469.217 54.3237 469.686 53.2927 470.519 53.0957C471.352 52.8987 472.233 53.6087 472.488 54.6827Z" fill="black"/>
<path d="M461.017 58.0967C461.272 59.1707 460.803 60.2018 459.97 60.3988C459.137 60.5968 458.255 59.8857 458.001 58.8117C457.746 57.7377 458.215 56.7068 459.048 56.5098C459.88 56.3128 460.762 57.0227 461.017 58.0967Z" fill="black"/>
<path d="M457.993 42.3147C455.853 43.4647 454.922 45.9787 453.476 47.9307C451.138 51.0857 447.085 52.8827 443.176 52.4957" stroke="#635149" stroke-miterlimit="10"/>
<path d="M477.041 40.6277C478.979 38.8387 480.37 36.4657 480.984 33.9017" stroke="#635149" stroke-miterlimit="10"/>
<path d="M658.67 305.315H491.077C487.613 305.315 484.806 302.507 484.806 299.044V179.977H664.942V299.044C664.941 302.508 662.134 305.315 658.67 305.315Z" fill="#F9D4BB"/>
<path d="M658.67 163.255C662.134 163.255 664.941 166.063 664.941 169.526V299.044C664.941 302.508 662.133 305.315 658.67 305.315H491.077C487.613 305.315 484.806 302.507 484.806 299.044V169.526C484.806 166.062 487.614 163.255 491.077 163.255H658.67ZM658.67 161.755H491.077C486.792 161.755 483.306 165.241 483.306 169.526V299.044C483.306 303.329 486.792 306.815 491.077 306.815H658.67C662.955 306.815 666.441 303.329 666.441 299.044V169.526C666.441 165.241 662.955 161.755 658.67 161.755Z" fill="white"/>
<path d="M499.533 172.106C499.533 174.088 497.926 175.695 495.944 175.695C493.962 175.695 492.355 174.088 492.355 172.106C492.355 170.124 493.962 168.517 495.944 168.517C497.926 168.517 499.533 170.124 499.533 172.106Z" stroke="white" stroke-width="1.5" stroke-miterlimit="10"/>
<path d="M513.444 172.106C513.444 174.088 511.837 175.695 509.855 175.695C507.873 175.695 506.266 174.088 506.266 172.106C506.266 170.124 507.873 168.517 509.855 168.517C511.837 168.517 513.444 170.124 513.444 172.106Z" stroke="white" stroke-width="1.5" stroke-miterlimit="10"/>
<path d="M484.806 179.977H664.941" stroke="white" stroke-width="1.5" stroke-miterlimit="10"/>
<path d="M618.51 257.056C614.385 256.334 613.219 267.425 615.197 271.116C609.765 263.348 602.889 251.45 597.456 243.682C591.363 234.969 584.082 224.117 573.094 221.281C563.196 218.726 558.033 227.346 557.878 236.147C557.73 244.573 558.577 253.073 560.138 261.347C561.839 270.368 564.048 280.643 568.959 288.519C563.739 280.149 555.385 277.319 546.05 278.096C541.702 278.458 537.182 279.921 534.437 283.312C530.046 288.736 531.693 298.593 533.564 305.317C537.646 305.317 541.729 305.317 545.811 305.317C567.524 305.317 653.537 305.353 653.537 305.353C653.537 305.353 631.896 259.4 618.51 257.056Z" fill="#EF9748"/>
<path d="M493.759 241.432C475.862 241.698 458.122 237.913 441.001 232.694C423.88 227.476 392.687 216.019 392.687 216.019L383.781 242.911C383.781 242.911 429.892 272.122 491.255 277.111" fill="#E27769"/>
<path d="M532.091 248.735C520.164 238.615 494.322 239.338 486.913 239.627C479.504 239.916 466.3 237.728 466.3 237.728L461.439 278.242C461.439 278.242 488.876 282.847 504.141 283.962" fill="#2C221D"/>
<path d="M498.477 258.454C500.35 263.736 499.495 271.507 499.516 277.111C499.535 282.11 501.292 284.887 502.03 289.831C502.913 295.74 506.265 299.961 509.801 305.315H585.79L581.787 263.183L571.443 248.234L549.602 242.411L500.295 255.379" fill="#2C221D"/>
<path d="M522.336 248.235C521.578 250.91 521.026 253.911 521.486 256.683C522.025 259.931 524.085 261.976 527.024 263.184" stroke="#6D574E" stroke-miterlimit="10"/>
<path d="M530.76 264.078C544.227 266.491 558.398 256.865 559.751 244.611" stroke="#6D574E" stroke-miterlimit="10"/>
<path d="M632.074 300.458C630.98 297.283 628.925 294.539 626.812 291.93C621.002 284.756 614.498 278.144 607.421 272.215L581.992 295.362L597.728 310.616L579.35 343.927L603.727 350.884C603.727 350.884 622.383 330.281 629.522 318.796C633.026 313.159 634.254 306.785 632.074 300.458Z" fill="#E27769"/>
<path d="M584.213 336.464C584.213 336.464 573.552 351.807 572.475 354.576C571.507 357.064 570.979 360.177 570.599 362.828C569.551 370.135 573.468 377.647 576.421 381.196C576.754 381.596 577.247 381.854 577.742 381.946C578.837 382.15 579.276 381.581 579.252 380.289C579.85 381.102 580.447 381.914 581.045 382.727C581.292 383.063 581.551 383.41 581.905 383.585C582.584 383.921 583.433 383.511 583.954 382.847C584.475 382.183 584.741 381.319 584.994 380.482C585.627 381.398 586.61 382.359 587.558 381.798C588.506 381.237 589.325 379.209 589.113 378.044C589.424 379.068 590.782 379.096 591.524 378.351C592.265 377.606 592.537 376.439 592.758 375.351C593.317 372.596 593.843 369.755 595.192 367.348C596.091 365.743 597.314 364.412 598.38 362.944C601.852 358.164 603.57 352.071 604.691 346.069" fill="#E27769"/>
<path d="M591.207 360.114C590.727 361.177 590.246 362.24 589.766 363.302C589.376 364.165 588.985 365.03 588.671 365.926C587.272 369.919 587.504 374.485 589.299 378.28" stroke="black" stroke-miterlimit="10"/>
<path d="M583.184 359.717C582.206 364.547 581.808 370.355 582.504 373.987C582.955 376.34 583.982 378.577 585.24 380.594" stroke="black" stroke-miterlimit="10"/>
<path d="M576.156 357.901C576.156 357.901 575.531 361.464 575.383 363.478C574.913 369.88 575.761 376.063 579.249 380.809" stroke="black" stroke-miterlimit="10"/>
<path d="M390.508 243.365C388.59 243.179 386.671 242.993 384.753 242.807C383.036 242.641 381.304 242.471 379.662 241.944C378.566 241.592 377.527 241.087 376.493 240.583C372.233 238.509 370.052 237.888 365.977 235.487C363.636 234.108 361.241 232.808 358.745 231.729C356.3 230.672 353.763 230.103 351.505 228.674C351.309 228.55 351.106 228.41 351.016 228.197C350.947 228.033 350.953 227.847 350.978 227.67C351.502 223.986 359.01 224.829 361.93 225.645C362.81 225.891 363.724 226.186 364.62 226.004C364.68 224.832 364.164 223.71 363.593 222.685C361.911 219.669 359.451 217.266 357.23 214.644C355.176 212.218 353.095 209.794 351.202 207.238C349.429 204.845 347.604 199.633 348.996 198.997C350.388 198.361 349.644 199.631 350.093 199.689C349.195 199.136 349.537 196.925 350.182 196.054C350.827 195.184 352.616 196.502 353.236 197.346C352.589 196.538 352.808 194.704 353.469 194.376C354.43 193.898 355.569 194.542 356.461 195.082C357.353 195.622 358.213 196.278 359.253 196.467C358.991 195.81 358.834 195.109 358.788 194.397C359.295 193.779 360.276 194.098 360.96 194.47C374.872 202.049 386.743 213.528 401.535 220.283" fill="#E27769"/>
<path d="M361.69 219.866C363.252 222.106 364.305 224.801 365.122 228.106" stroke="black" stroke-miterlimit="10"/>
<path d="M350.138 198.912C351.985 201.209 354.452 202.8 356.605 204.769C360.032 207.902 363.291 211.21 366.603 214.462" stroke="black" stroke-miterlimit="10"/>
<path d="M353.226 197.125C354.283 198.125 355.407 199.053 356.588 199.903C357.854 200.813 359.183 201.632 360.49 202.482C364.226 204.911 367.79 207.605 371.147 210.538" stroke="black" stroke-miterlimit="10"/>
<path d="M359.741 196.759C360.916 197.882 362.404 198.607 363.839 199.371C368.334 201.762 372.543 204.692 376.345 208.079" stroke="black" stroke-miterlimit="10"/>
<path d="M391.068 244.24C391.068 244.24 383.206 243.174 379.996 242.327" stroke="black" stroke-miterlimit="10"/>
<path d="M565.051 246.565C570.465 247.088 575.88 247.594 581.033 249.539C587.544 251.997 593.203 256.617 598.532 261.34C604.099 266.274 609.779 272.99 615.197 278.139L587.426 302.44L567.762 283.278" fill="#2C221D"/>
<path d="M597.728 310.616C597.728 310.616 601.836 305.357 606 302.44" stroke="black" stroke-miterlimit="10"/>
<path d="M579.345 294.565L608.304 271.116" stroke="#6D574E" stroke-miterlimit="10"/>
<path d="M472.057 279.932L476.262 239.062" stroke="#6D574E" stroke-miterlimit="10"/>
<path d="M498.477 272.215C498.477 272.215 500.397 280.938 500.923 284.679" stroke="#6D574E" stroke-miterlimit="10"/>
<path d="M566.78 283.205C572.798 287.851 587.427 302.44 587.427 302.44" stroke="#6D574E" stroke-miterlimit="10"/>
<path d="M535.886 217.57L548.827 222.815L548.067 231.443L554.591 244.052C554.591 244.052 551.407 255.943 537.121 258.904C525.059 261.404 525.332 253.62 525.332 253.62L519.587 237.039" fill="#E27769"/>
<path d="M508.548 224.213C510.459 217.744 511.493 213.773 513.937 209.078C516.006 205.103 519.621 199.343 523.771 197.481C529.114 195.082 535.225 198.025 540.61 199.98C549.451 203.192 551.485 213.647 550.458 221.964C549.669 228.354 545.942 231.506 541.399 236.248C535.463 242.445 520.854 247.731 513.305 243.868C507.658 240.977 506.524 231.064 508.548 224.213Z" fill="#E27769"/>
<path d="M600.99 263.312C604.469 262.169 606.179 258.076 605.985 255.168C605.673 250.485 603.485 248.07 603.126 245.177C602.892 243.293 603.452 241.386 603.292 239.495C603.029 236.372 600.763 233.653 597.964 232.244C595.165 230.835 591.909 230.581 588.788 230.86C586.395 231.074 583.99 231.584 581.611 231.245C579.624 230.962 577.763 230.098 576.031 229.082C572.969 227.286 570.175 224.948 568.203 221.996C564.851 216.976 564.136 210.662 561.55 205.207C560.247 202.459 558.438 199.96 556.273 197.827C551.013 192.645 546.005 190.726 538.547 190.478C533.439 190.308 526.332 190.99 522.423 195.754C522.423 195.754 514.868 195.948 511.264 199.753C506.986 204.27 507.293 210.808 511.03 216.019C512.961 212.85 514.605 209.498 517.432 207.062C517.106 207.576 517.262 208.297 517.68 208.739C518.098 209.181 518.719 209.381 519.326 209.43C520.942 209.561 522.47 208.756 523.891 207.975C523.411 209.256 523.207 210.641 523.298 212.006C523.317 212.294 523.357 212.601 523.547 212.818C523.763 213.066 524.118 213.133 524.445 213.161C526.672 213.348 528.963 212.277 530.249 210.449C529.64 212.106 529.108 214.185 530.335 215.454C531.202 216.351 532.669 216.417 533.824 215.947C534.979 215.477 535.896 214.577 536.781 213.698C536.355 214.121 536.915 216.508 537.019 217.059C537.247 218.266 537.617 219.438 538.028 220.593C539.29 224.144 540.845 227.604 542.866 230.791C544.952 234.081 547.933 236.576 550.065 239.782C551.416 241.814 552.558 244.039 554.374 245.669C556.606 247.672 559.683 249.179 562.616 249.776C565.571 250.378 568.627 250.105 571.616 250.007C582.664 249.647 591.04 255.179 600.99 263.312Z" fill="#893D33"/>
<path d="M575.215 191.766C574.579 190.195 573.648 188.755 572.455 187.656C568.148 183.691 558.759 183.948 555.549 189.335C553.785 192.296 554.643 196.105 555.981 199.281L558.619 205.069C562.297 207.068 566.951 207.153 570.7 205.291C573.832 203.736 576.042 200.866 576.198 197.309C576.279 195.495 575.936 193.546 575.215 191.766Z" fill="#893D33"/>
<path d="M536.887 225.344C537.783 222.671 542.072 221.697 544.192 223.3C549.29 227.157 544.141 236.835 538.497 236.153C536.9 235.96 534.92 234.689 534.92 232.813" fill="#E27769"/>
<path d="M543.176 228.016L536.844 230.944" stroke="black" stroke-miterlimit="10"/>
<path d="M540.457 222.819C539.029 223.166 537.707 223.974 536.718 225.102" stroke="black" stroke-miterlimit="10"/>
<path d="M544.826 232.808C543.399 234.776 541.161 236.631 538.645 236.279C536.899 236.035 535.225 234.713 535.084 232.779" stroke="black" stroke-miterlimit="10"/>
<path d="M522.527 245.524C522.527 245.524 528.471 245.241 534.49 241.176" stroke="black" stroke-miterlimit="10"/>
<path d="M516.285 220.956C515.348 222.594 514.37 224.279 512.857 225.408C512.495 225.678 512.102 225.917 511.808 226.259C511.386 226.749 511.206 227.438 511.334 228.072C511.462 228.706 511.895 229.271 512.474 229.56" stroke="black" stroke-miterlimit="10"/>
<path d="M513.615 233.383C514.565 234.172 515.987 234.482 517.112 233.879C518.533 233.117 518.562 231.302 518.61 229.888" stroke="black" stroke-miterlimit="10"/>
<path d="M523.217 217.444C524.256 217.226 525.344 217.179 526.377 217.423C527.411 217.667 528.388 218.216 529.048 219.048C529.886 220.104 530.147 221.493 530.381 222.82" stroke="black" stroke-miterlimit="10"/>
<path d="M511.648 213.495C512.636 212.786 514.022 212.74 515.116 213.27C516.21 213.801 517.008 214.853 517.352 216.019" stroke="black" stroke-miterlimit="10"/>
<path d="M524.962 223.421C524.555 224.269 523.731 224.719 523.119 224.426C522.508 224.133 522.342 223.208 522.748 222.36C523.155 221.512 523.979 221.062 524.591 221.355C525.202 221.648 525.368 222.573 524.962 223.421Z" fill="black"/>
<path d="M513.729 219.725C513.323 220.573 512.498 221.023 511.886 220.73C511.275 220.437 511.109 219.512 511.515 218.664C511.921 217.816 512.746 217.366 513.358 217.659C513.97 217.952 514.136 218.877 513.729 219.725Z" fill="black"/>
<path d="M630.237 335.701C636.331 329.506 640.649 321.583 642.554 313.105" stroke="black" stroke-miterlimit="10"/>
<path d="M644.194 332.25C646.037 328.615 647.213 324.643 647.647 320.591" stroke="black" stroke-miterlimit="10"/>
<path d="M524.91 138.015C524.91 138.015 514.501 142.789 507.513 145.957C503.56 147.749 496.936 152.651 494.673 156.381C491.795 161.126 491.043 166.994 491.371 171.839C491.589 175.045 493.055 178.676 495.203 182.171C496.618 184.473 498.127 186.88 499.445 186.567C500.762 186.255 500.288 183.028 500.288 183.024C500.292 183.219 501.849 186.28 502.208 186.524C502.689 186.851 503.258 187.134 503.755 186.874C504.429 186.52 504.887 186.134 505.213 185.446C505.488 184.864 505.51 184.26 505.567 183.611C505.619 183.022 505.57 181.601 505.54 181.002C505.831 181.648 506.11 183.663 506.662 183.557C507.214 183.45 508.115 182.989 508.61 182.385C509.571 181.212 510.08 179.744 510.572 178.309C510.577 178.656 510.583 179.013 510.714 179.335C510.844 179.657 511.128 179.941 511.475 179.967C511.912 179.999 513.693 178.699 513.952 178.347C515.074 176.824 515.492 174.786 516.303 173.077C516.98 171.651 517.642 170.641 518.618 169.401C519.508 168.27 520.867 166.871 522.164 166.19C524.807 164.803 526.43 164.425 529.134 163.147C531.413 162.07 533.645 160.739 535.22 158.726" fill="#D16159"/>
<path d="M510.337 178.909C510.538 176.632 510.816 174.362 511.171 172.104C511.408 170.599 511.683 169.083 512.284 167.683C513.269 165.389 515.057 163.553 516.808 161.773" stroke="black" stroke-miterlimit="10"/>
<path d="M505.782 181.503C504.897 177.708 504.992 173.763 505.092 169.867C505.12 168.79 505.149 167.704 505.406 166.658C505.851 164.853 506.945 163.287 508.017 161.768" stroke="black" stroke-miterlimit="10"/>
<path d="M500.397 183.78C499.179 180.004 497.953 176.187 497.616 172.233C497.552 171.476 497.52 170.715 497.547 169.955C497.648 167.119 498.571 164.349 499.968 161.878" stroke="black" stroke-miterlimit="10"/>
<path d="M533.766 81.5808L552.082 116.135L511.206 144.127L538.107 165.315C538.107 165.315 583.974 150.384 596.467 142.977C606.276 137.162 610.485 122.059 591.589 97.4248C572.692 72.7908 559.647 58.1818 555.772 54.0738C547.433 45.2328 537.511 41.5608 528.264 46.2158" fill="#4C4139"/>
<path d="M533.766 81.5808L552.082 116.135L511.207 144.126" stroke="black" stroke-miterlimit="10"/>
<path d="M534.822 155.789C534.822 156.543 534.21 157.155 533.456 157.155C532.702 157.155 532.09 156.544 532.09 155.789C532.09 155.035 532.702 154.423 533.456 154.423C534.211 154.423 534.822 155.035 534.822 155.789Z" stroke="black" stroke-miterlimit="10"/>
<path d="M541.891 152.9C542.646 152.9 543.257 152.288 543.257 151.534C543.257 150.779 542.646 150.168 541.891 150.168C541.137 150.168 540.525 150.779 540.525 151.534C540.525 152.288 541.137 152.9 541.891 152.9Z" stroke="black" stroke-miterlimit="10"/>
<path d="M525.636 155.492C525.786 155.61 543.257 146.804 543.257 146.804" stroke="black" stroke-miterlimit="10"/>
<path d="M526.592 133.591C526.765 133.472 558.001 158.554 558.001 158.554" stroke="black" stroke-miterlimit="10"/>
<path d="M551.084 116.48C554.919 114.982 558.774 113.368 562.872 112.752C567.252 112.093 571.706 112.32 576.111 112.548" stroke="black" stroke-miterlimit="10"/>
<path d="M538.107 165.314L591.049 146.072" stroke="black" stroke-miterlimit="10"/>
<path d="M547.366 37.5878C536.786 27.6478 525.98 17.7588 513.472 10.3908C490.315 -3.25023 457.994 -1.13923 442.019 8.78577C429.757 16.4038 423.294 25.8918 415.418 37.6408C405.56 52.3478 395.222 68.1688 378.977 75.2098C371.059 78.6418 362.352 79.6728 353.883 81.3308C345.414 82.9888 336.754 85.4728 330.266 91.1638C323.778 96.8538 320.081 106.515 323.586 114.402C326.339 120.597 333.119 124.494 339.896 124.686C346.672 124.879 353.279 121.733 358.157 117.026C370.606 105.015 376.4 73.4168 353.406 64.3208" stroke="#ED725A" stroke-width="1.5" stroke-miterlimit="10"/>
<path d="M44.9932 251.802C46.4562 258.741 50.1552 266.127 55.1552 271.825C61.6642 279.243 74.9392 284.044 80.6472 273.258C83.3022 268.242 84.6262 260.125 78.2992 256.535C77.8502 256.28 77.3462 256.051 76.8022 256.045C75.5792 256.032 74.7682 257.095 74.4072 258.066C72.7162 262.616 75.4382 267.533 79.1122 271.188C80.8172 272.884 82.8032 274.465 85.2622 275.309C87.7202 276.153 90.7312 276.144 92.8762 274.836C96.2122 272.801 97.0902 268.319 96.8462 265.11" stroke="#8F96DB" stroke-width="1.5" stroke-miterlimit="10"/>
<path d="M31.0082 69.0967C36.8952 61.6737 44.8222 54.9687 53.7302 51.5327C58.5502 49.6737 64.8472 49.0067 69.9152 50.0127C72.4452 50.5147 75.3842 51.3127 76.9302 53.5877C78.5612 55.9877 76.6572 60.4357 79.8822 61.7957C80.7102 62.1447 81.6522 62.0607 82.5412 61.9267C85.3362 61.5067 88.0562 60.6647 90.8522 60.2537C93.6492 59.8437 96.6262 59.8987 99.1442 61.1837C101.662 62.4687 103.576 65.2217 103.2 68.0237C103.053 69.1207 102.576 70.2067 102.779 71.2947C103.119 73.1147 105.181 74.0667 107.025 74.2407C110.843 74.5997 114.473 74.4757 117.719 76.9197C120.101 78.7127 121.469 81.9197 120.25 84.4937" stroke="#FFDD99" stroke-width="1.5" stroke-miterlimit="10"/>
<path d="M280.434 62.0368C281.918 58.7348 283.581 55.4238 286.171 52.8948C288.761 50.3658 292.458 48.7158 296.011 49.4068C297.848 49.7648 299.584 50.7208 301.455 50.6818C304.029 50.6278 306.232 48.6478 307.39 46.3478C308.548 44.0478 308.885 41.4388 309.355 38.9078C310.105 34.8658 311.321 30.7348 314.086 27.6928C316.851 24.6508 321.523 23.0198 325.218 24.8238" stroke="#FFDD99" stroke-width="1.5" stroke-miterlimit="10"/>
<path d="M106.192 398.803C107.22 392.671 103.082 386.866 96.9497 385.838C90.8173 384.811 85.0128 388.949 83.9849 395.081C82.9571 401.213 87.0951 407.018 93.2275 408.046C99.3598 409.074 105.164 404.936 106.192 398.803Z" stroke="#909DF4" stroke-width="1.5" stroke-miterlimit="10"/>
<path d="M286.716 22.3238C291.759 22.3238 295.847 18.2357 295.847 13.1928C295.847 8.14986 291.759 4.06177 286.716 4.06177C281.673 4.06177 277.585 8.14986 277.585 13.1928C277.585 18.2357 281.673 22.3238 286.716 22.3238Z" stroke="#8F96DB" stroke-width="1.5" stroke-miterlimit="10"/>
<path d="M611.629 363.484L617.682 403.352L641.47 385.829L611.629 363.484Z" fill="#FFDD99"/>
<path d="M12.7612 319.739L28.8542 301.493L1.36217 302.479L12.7612 319.739Z" stroke="#8F96DB" stroke-width="1.5" stroke-miterlimit="10"/>
<path d="M38.4772 364.924C42.0753 364.924 44.9922 362.007 44.9922 358.409C44.9922 354.811 42.0753 351.894 38.4772 351.894C34.879 351.894 31.9622 354.811 31.9622 358.409C31.9622 362.007 34.879 364.924 38.4772 364.924Z" fill="#FFDD99"/>
<path d="M52.4002 86.4828L36.7372 120.659L84.5972 113.718L52.4002 86.4828Z" fill="#ED725A"/>
<path d="M21.6862 171.635C21.6862 173.819 19.9162 175.589 17.7322 175.589C15.5482 175.589 13.7782 173.819 13.7782 171.635C13.7782 169.451 15.5482 167.681 17.7322 167.681C19.9162 167.681 21.6862 169.451 21.6862 171.635Z" fill="#909DF4"/>
<path d="M558.338 15.7538C558.338 17.9378 556.568 19.7078 554.384 19.7078C552.2 19.7078 550.43 17.9378 550.43 15.7538C550.43 13.5698 552.2 11.7998 554.384 11.7998C556.568 11.7998 558.338 13.5698 558.338 15.7538Z" fill="#ED725A"/>
<path d="M631.053 361.005C634.002 359.795 637.814 360.029 640.483 361.821C642.839 363.402 644.071 366.376 646.911 367.303C651.077 368.663 654.752 364.785 658.77 364.519C662.245 364.289 665.047 366.644 666.405 369.677C667.568 372.273 667.79 375.177 667.997 378.014" stroke="#8F96DB" stroke-width="1.5" stroke-miterlimit="10"/>
<path d="M600.453 89.8458C601.898 86.2528 605.705 83.7508 609.577 83.8498C611.547 83.8998 613.545 84.5538 615.453 84.0598C621.389 82.5228 620.895 72.1858 626.76 70.3958C630.825 69.1558 635.244 73.0928 639.223 71.5998C642.646 70.3148 643.485 66.0048 644.569 62.5138C647.499 53.0758 656.173 45.6828 665.956 44.2838" stroke="#8F96DB" stroke-width="1.5" stroke-miterlimit="10"/>
<path d="M555.21 297.356C558.674 297.356 561.481 300.164 561.481 303.627V414.669C561.481 418.133 558.673 420.94 555.21 420.94H375.349C371.885 420.94 369.078 418.132 369.078 414.669V303.628C369.078 300.164 371.886 297.357 375.349 297.357H555.21M555.21 295.856H375.349C371.064 295.856 367.578 299.342 367.578 303.627V414.669C367.578 418.954 371.064 422.44 375.349 422.44H555.21C559.495 422.44 562.981 418.954 562.981 414.669V303.628C562.982 299.343 559.496 295.856 555.21 295.856Z" fill="white"/>
<path d="M555.21 420.941H375.349C371.885 420.941 369.078 418.133 369.078 414.67V314.079H561.482V414.67C561.482 418.133 558.674 420.941 555.21 420.941Z" fill="#C5B3DD"/>
<path d="M383.805 306.208C383.805 308.19 382.198 309.797 380.216 309.797C378.234 309.797 376.627 308.19 376.627 306.208C376.627 304.226 378.234 302.619 380.216 302.619C382.198 302.619 383.805 304.226 383.805 306.208Z" stroke="white" stroke-width="1.5" stroke-miterlimit="10"/>
<path d="M397.717 306.208C397.717 308.19 396.11 309.797 394.128 309.797C392.146 309.797 390.539 308.19 390.539 306.208C390.539 304.226 392.146 302.619 394.128 302.619C396.11 302.619 397.717 304.226 397.717 306.208Z" stroke="white" stroke-width="1.5" stroke-miterlimit="10"/>
<path d="M369.078 314.079H561.482" stroke="white" stroke-width="1.5" stroke-miterlimit="10"/>
<path d="M534.489 396.922C524.917 386.322 513.796 381.079 508.141 382.357C499.822 384.238 501.335 405.469 501.567 413.994C497.55 409.348 492.571 405.537 487.036 402.874C482.867 400.868 478.121 399.498 473.627 400.593C469.132 401.688 465.173 405.914 465.7 410.51C455.23 394.937 440.778 382.064 424.101 373.46C413.56 368.021 384.902 356.713 379.996 368.448C374.615 381.319 405.142 420.94 405.142 420.94H553.1C553.1 420.94 543.134 406.495 534.489 396.922Z" fill="#A29DCE"/>
<path d="M349.606 283.705C344.174 278.014 338.956 267.017 337.49 261.152C336.201 255.993 335.05 250.712 332.613 245.943C331.956 244.657 329.134 241.689 330.157 240.145C332.221 237.035 337.227 241.132 338.532 242.984C338.999 243.647 340.723 246.44 341.586 246.603C342.449 246.766 342.813 243.422 342.918 241.988C343.322 236.476 343.348 230.467 342.881 224.89C342.4 219.146 343.218 214.106 345.02 213.84C346.847 213.571 346.752 214.652 347.084 215.012C347.376 213.193 349.032 211.036 350.102 211.643C350.752 212.012 350.988 212.827 351.079 213.569C351.17 214.311 351.612 215.723 351.612 215.723C351.612 215.723 352.648 211.851 354.54 214.041C355.496 215.148 356.952 221.031 357.885 222.899C357.792 221.664 357.479 220.976 357.877 219.533C358.093 218.75 358.535 218.106 359.383 218.518C359.883 218.761 360.028 219.256 360.203 219.742C361.152 222.378 363.487 226.619 364.336 229.289C365.22 232.073 366.104 234.858 366.989 237.642C368.651 242.876 370.276 248.384 371.468 253.844C372.571 258.895 376.62 271.342 376.62 271.342" fill="#A04B4B"/>
<path d="M347.034 215.324C347.516 218.319 348.612 222.138 349.213 225.533C350.074 230.401 350.463 234.908 351.199 239.195" stroke="black" stroke-miterlimit="10"/>
<path d="M351.872 215.816C352.448 218.381 353.447 221.934 354.117 224.853C355.235 229.731 356.056 234.103 357.018 238.388" stroke="black" stroke-miterlimit="10"/>
<path d="M357.873 222.816C359.294 227.477 361.35 232.824 362.979 238.723" stroke="black" stroke-miterlimit="10"/>
<path d="M342.131 246.308C341.766 248.77 341.583 251.386 339.942 253.537" stroke="black" stroke-miterlimit="10"/>
<path d="M533.447 420.941C531.523 415.8 529.465 410.398 526.572 405.685C523.679 400.972 519.898 396.659 515.073 393.705C512.909 392.38 510.566 391.344 508.231 390.313C501.952 387.54 495.674 384.767 489.395 381.993L458.577 369.971C456.67 368.201 454.764 366.431 452.86 364.659C449.18 361.232 445.51 357.795 441.868 354.325C441.728 354.192 441.589 354.059 441.449 353.926C413.553 327.3 392.807 297.551 374.684 262.833L342.131 277.111C342.131 277.111 356.211 325.088 369.588 345.455C387.259 372.359 407.698 396.831 416.934 404.58C418.582 410.115 420.47 415.578 422.609 420.942L533.447 420.941Z" fill="#FCDDD2"/>
<path d="M347.374 293.613L382.291 276.824" stroke="black" stroke-miterlimit="10"/>
<path d="M349.116 274.047L360.889 299.594" stroke="black" stroke-miterlimit="10"/>
<path d="M360.179 279.416C360.179 280.689 359.147 281.722 357.873 281.722C356.6 281.722 355.567 280.69 355.567 279.416C355.567 278.143 356.599 277.11 357.873 277.11C359.146 277.111 360.179 278.143 360.179 279.416Z" stroke="#D8A798" stroke-miterlimit="10"/>
<path d="M486.01 420.258C487.615 418.167 489.22 416.076 490.826 413.985C492.558 411.729 494.295 409.468 496.25 407.402C501.956 401.373 509.657 397.083 517.91 396.188" stroke="#D8A798" stroke-miterlimit="10"/>
<path d="M415.968 401.58C415.968 393.238 418.755 384.957 423.553 378.157C429.598 369.592 438.493 363.442 449.244 363.135" stroke="#D8A798" stroke-miterlimit="10"/>
<path d="M416.792 404.253C415.253 399.669 414.368 394.528 411.932 390.312" stroke="black" stroke-miterlimit="10"/>
<path d="M448.768 366.555L446.737 392.162C446.737 392.162 455.344 400.929 467.179 395.22C479.014 389.511 487.647 378.651 487.647 378.651L483.777 362.778" fill="#A04B4B"/>
<path d="M495.809 334.649C494.613 330.907 492.37 327.488 489.354 325.019C482.096 319.077 474.112 319.239 466.317 323.819C459.542 327.799 450.243 334.081 445.076 340.091C439.743 346.295 436.174 354.01 441.62 361.264C450.384 372.937 474.961 368.98 486.686 359.407C491.461 355.509 495.967 349.18 496.672 342.947C496.985 340.168 496.665 337.326 495.809 334.649Z" fill="#A04B4B"/>
<path d="M464.809 327.078C460.903 329.066 456.627 329.594 452.348 330.101C450.292 330.344 447.57 331.034 447.942 333.734C448.182 335.475 449.697 336.975 450.959 338.039" fill="#A04B4B"/>
<path d="M447.772 353.662C447.772 353.662 448.483 352.063 448.837 351.262C449.519 349.72 447.301 348.68 446.244 348.148C445.477 347.762 445.071 347.419 444.306 347.922C444.11 348.051 442.995 349.129 442.755 348.933C442.742 348.923 440.691 346.535 440.691 346.535C439.097 349.025 438.072 353.752 438.299 356.556C438.527 359.36 439.612 362.149 441.617 364.123C442.422 364.915 443.683 366.058 444.651 366.64C452.72 371.493 462.781 371.124 471.557 367.712C474.267 366.659 476.907 365.252 478.881 363.117C452.014 362.727 447.772 353.662 447.772 353.662Z" fill="#1E1611"/>
<path d="M479.814 351.867C479.694 351.841 479.574 351.818 479.456 351.798C477.663 351.502 475.888 351.765 474.12 351.184C472.696 350.716 471.371 349.831 470.589 348.553C469.665 347.042 470.934 346.162 472.164 345.483C473.984 344.478 475.757 343.35 477.238 341.891C479.672 339.493 480.955 336.054 479.899 332.705C478.754 329.073 475.177 326.94 472.402 324.638C469.728 322.42 466.311 318.966 467.438 315.119C468.569 311.26 472.299 309.853 475.981 310.398C477.958 310.691 479.95 311.244 481.924 310.937C482.927 310.781 483.883 310.407 484.874 310.184C487.916 309.502 491.423 310.476 493.235 313.013C494.54 314.841 495.046 317.432 497.059 318.429C498.027 318.909 499.157 318.899 500.209 319.147C502.348 319.65 504.154 321.276 505.025 323.293C505.895 325.31 505.86 327.668 505.078 329.723C503.674 333.415 501.571 335.263 503.297 339.336C507.304 348.792 508.988 360.403 499.416 367.202C496.898 368.991 493.744 369.915 491.649 372.184C490.342 373.598 489.275 375.615 487.36 375.819C486.073 375.956 484.86 375.161 483.978 374.214C483.187 373.364 482.566 372.374 481.953 371.389C481.104 370.024 480.24 368.596 480.066 366.999C479.816 364.719 481 362.559 482.075 360.533C483.088 358.623 485.127 354.663 482.715 353.084C481.884 352.539 480.818 352.087 479.814 351.867Z" fill="#1E1611"/>
<path d="M473.903 331.208C473.301 329.377 472.199 327.558 470.503 328.385C470.079 328.591 469.831 329.058 469.765 329.525C469.698 329.991 469.784 330.465 469.869 330.928C470.269 333.098 470.692 335.327 471.867 337.195C472.104 337.572 472.385 337.944 472.784 338.144C475.444 339.479 474.247 332.254 473.903 331.208Z" fill="#1E1611"/>
<path d="M457.097 343.59L449.571 341.884C449.571 341.884 448.833 348.338 452.032 348.978C455.23 349.618 457.097 343.59 457.097 343.59Z" fill="white"/>
<path d="M449.117 336.016C449.742 336.827 450.591 337.463 451.544 337.836" stroke="black" stroke-miterlimit="10"/>
<path d="M457.431 329.394C460.256 328.982 463.003 328.038 465.483 326.625" stroke="black" stroke-miterlimit="10"/>
<path d="M478.062 352.129C480.837 350.039 485.876 352.042 486.91 355.151C489.397 362.627 477.411 368.866 472.153 364.235C470.665 362.925 469.541 360.251 470.85 358.344" fill="#A04B4B"/>
<path d="M482.586 359.233L474.109 357.788" stroke="black" stroke-miterlimit="10"/>
<path d="M483.451 352.056C481.758 351.412 479.852 351.31 478.059 351.766" stroke="black" stroke-miterlimit="10"/>
<path d="M471.041 358.424C470.095 360.042 470.376 362.032 471.406 363.537C473.281 366.275 477.815 366.287 480.551 365.116" stroke="black" stroke-miterlimit="10"/>
<path d="M466.021 337.406C464.948 338.182 463.628 338.189 463.073 337.422C462.517 336.654 462.936 335.402 464.009 334.626C465.082 333.85 466.402 333.843 466.957 334.61C467.512 335.378 467.093 336.63 466.021 337.406Z" fill="black"/>
<path d="M491.824 377.815C464.809 381.018 448.27 393.388 448.27 393.388L452.968 414.852C477.131 391.878 500.638 386.695 500.874 386.448L491.824 377.815Z" fill="#FCDDD2"/>
<path d="M447.488 379.675L437.314 386.206C437.314 386.206 435.564 404.461 438.904 414.169L448.271 393.387L447.488 379.675Z" fill="#FCDDD2"/>
<path d="M448.27 393.388L452.968 414.852C477.131 391.878 500.638 386.695 500.874 386.448" stroke="black" stroke-miterlimit="10"/>
<path d="M447.488 379.675L437.314 386.206C437.314 386.206 435.564 404.461 438.904 414.169L448.271 393.387" stroke="black" stroke-miterlimit="10"/>
<path d="M347.23 321.636C349.96 331.342 354.005 340.676 359.221 349.304" stroke="black" stroke-miterlimit="10"/>
<path d="M348.121 338.307C349.836 344.548 351.892 350.694 354.277 356.71" stroke="black" stroke-miterlimit="10"/>
<path d="M514.917 351.39C515.063 355.837 513.334 360.211 510.687 363.788C508.04 367.364 504.518 370.209 500.799 372.652" stroke="black" stroke-miterlimit="10"/>
<path d="M511.891 372.495C515.615 370.382 518.792 367.315 521.036 363.669" stroke="black" stroke-miterlimit="10"/>
</svg>
